<svg xmlns="http://www.w3.org/2000/svg" viewBox="0 0 118 118"><defs><style>.cls-1{fill:#fff;}.cls-2{fill:#333;}</style></defs><g id="Layer_2" data-name="Layer 2"><g id="Layer_1-2" data-name="Layer 1"><rect class="cls-1" x="11.5" y="11.5" width="95" height="95"></rect><rect class="cls-1" width="118" height="118"></rect><path class="cls-2" d="M38.32,81.8h3.8a6.38,6.38,0,0,0,.64,1.49,8,8,0,0,1,.64,1.33c-.73-.56-1.46-1.13-2.18-1.71a5.93,5.93,0,0,0-2.82-.73,3.16,3.16,0,0,0-3,1.32,6.51,6.51,0,0,0-.79,3.42,9.88,9.88,0,0,0,1.19,4.63,3.75,3.75,0,0,0,3.46,2.26,4.29,4.29,0,0,0,2.71-.7,5.62,5.62,0,0,0,1.44-1.8,2.71,2.71,0,0,1-.93,2.2,5.7,5.7,0,0,1-3.5.78,6.81,6.81,0,0,1-4.48-1.47,5.4,5.4,0,0,1-1.78-4.42,6.84,6.84,0,0,1,1.64-4.82A5.17,5.17,0,0,1,38.32,81.8Z"></path><path class="cls-2" d="M49,86.6v4.3c0,.13.07.2.18.2a2.24,2.24,0,0,0,.88-.46,2.68,2.68,0,0,1-.64.84,1.43,1.43,0,0,1-.94.37.81.81,0,0,1-.74-.33,1.48,1.48,0,0,1-.22-.81V87.39a1.57,1.57,0,0,0-.06-.5c0-.12-.17-.18-.38-.18s-.69.25-1.06.75a2.31,2.31,0,0,0-.55,1.06v1.82a1.49,1.49,0,0,1-.43,1,1.42,1.42,0,0,1-1.06.46V84.2a3,3,0,0,1,.6-1.88,1.88,1.88,0,0,1,1.56-.78h1.38a1.56,1.56,0,0,1-1.27.94c-.52,0-.78.13-.78.29v5A8.2,8.2,0,0,1,47,85.8a1.94,1.94,0,0,1,1.17-.63.78.78,0,0,1,.72.31A2.44,2.44,0,0,1,49,86.6Z"></path><path class="cls-2" d="M52.16,85.13a.67.67,0,0,1,.66.37,1.8,1.8,0,0,1,.2.87v4.31c0,.29.14.43.32.43a.71.71,0,0,0,.43-.2l.32-.26a3.15,3.15,0,0,1-.74.91,1.42,1.42,0,0,1-.86.29.75.75,0,0,1-.64-.34,1.33,1.33,0,0,1-.25-.79V86.2c0-.19-.07-.29-.21-.29a1.88,1.88,0,0,0-.91.52,2.23,2.23,0,0,1,.63-.79A1.61,1.61,0,0,1,52.16,85.13Zm.2-3.35a.86.86,0,0,1,.64.28,1.07,1.07,0,0,1,.26.75,1,1,0,0,1-.46.85A1.56,1.56,0,0,1,52,84a.51.51,0,0,1-.48-.34,1.86,1.86,0,0,1-.16-.81,1,1,0,0,1,.27-.8A1.19,1.19,0,0,1,52.36,81.78Z"></path><path class="cls-2" d="M60.07,84.9c.17,0,.41.21.72.62a2.18,2.18,0,0,1,.48,1.37,6.73,6.73,0,0,1-1,2,20.06,20.06,0,0,0-1.55,3,21,21,0,0,1-1.45-2.72,18.82,18.82,0,0,0-1-2.08,1.08,1.08,0,0,0-1-.46,2.39,2.39,0,0,0-.56.16,4.09,4.09,0,0,0-.67.3,5.88,5.88,0,0,1,1.1-1.22c.53-.48.91-.72,1.16-.72.46,0,1,.71,1.65,2.11a15.36,15.36,0,0,0,1.4,2.62,3.64,3.64,0,0,0,.45-.84A3,3,0,0,0,60,87.9a1.58,1.58,0,0,0-.3-1,3.46,3.46,0,0,0-.93-.78,4.29,4.29,0,0,1,.58-.78A1.09,1.09,0,0,1,60.07,84.9Z"></path><path class="cls-2" d="M67.4,85.21v5.67a.19.19,0,0,0,.2.2.65.65,0,0,0,.33-.1l.63-.34a2.82,2.82,0,0,1-.67.81,1.39,1.39,0,0,1-.9.4,1.11,1.11,0,0,1-.64-.34,1.13,1.13,0,0,1-.39-.9v-.83c-.62.62-1.15,1.12-1.58,1.5a1.83,1.83,0,0,1-1.12.57,1.15,1.15,0,0,1-.93-.62,2.91,2.91,0,0,1-.4-1.64,4.34,4.34,0,0,1,1.15-3.23,4,4,0,0,1,3-1.15Zm-4,3.22a1.88,1.88,0,0,0,.25,1.1.75.75,0,0,0,.67.35,1.66,1.66,0,0,0,.79-.22,4.42,4.42,0,0,0,.85-.6V85.64a2.28,2.28,0,0,0-1.85.85A2.94,2.94,0,0,0,63.4,88.43Z"></path><path class="cls-2" d="M68.92,84.19a2.93,2.93,0,0,1,.61-1.88,1.91,1.91,0,0,1,1.57-.77h1.38a1.57,1.57,0,0,1-1.27.94c-.52,0-.78.13-.78.29v7.8c0,.19.07.28.21.28a1,1,0,0,0,.5-.21,6.36,6.36,0,0,0,.7-.54,4.46,4.46,0,0,1-1,1.22,1.71,1.71,0,0,1-1.06.53.73.73,0,0,1-.67-.35,1.79,1.79,0,0,1-.21-.94Z"></path><path class="cls-2" d="M73.58,85.13a.51.51,0,0,1,.54.41A6.34,6.34,0,0,1,74.23,87v.69L75.42,86a2.06,2.06,0,0,1,1.49-.89.8.8,0,0,1,.66.3,1.13,1.13,0,0,1,.24.73,1.82,1.82,0,0,1-.59,1.15c-.39.43-.77.83-1.15,1.19a2.31,2.31,0,0,0,.15-.51,2.6,2.6,0,0,0,.08-.64,1.25,1.25,0,0,0-.11-.55.41.41,0,0,0-.39-.21c-.2,0-.44.17-.73.53s-.57.7-.84,1.06V91a5.65,5.65,0,0,1-.61.5,1.81,1.81,0,0,1-.8.31V86.78a.28.28,0,0,0-.31-.32.78.78,0,0,0-.32.1,2.11,2.11,0,0,0-.41.33,4.45,4.45,0,0,1,.87-1.13Q73.27,85.13,73.58,85.13Z"></path><path class="cls-2" d="M84,84.87c.15,0,.4.21.73.64a2.19,2.19,0,0,1,.51,1.38,8.92,8.92,0,0,1-1.11,2.33c-.74,1.31-1.29,2.34-1.66,3.1a4.69,4.69,0,0,0-.56,2,2.25,2.25,0,0,0,.44,1.35,1.37,1.37,0,0,0,1.16.6,1.32,1.32,0,0,0,.94-.32,3.51,3.51,0,0,0,.67-1.11,1.75,1.75,0,0,1-.7,1.61,3,3,0,0,1-1.62.43A3.08,3.08,0,0,1,81,96.52a1.6,1.6,0,0,1-.55-1.4,3,3,0,0,1,.48-1.59c.32-.52.78-1.16,1.36-1.93-.18-.41-.44-1-.76-1.68s-.68-1.43-1.07-2.14-.64-1.07-.77-1.1a1.55,1.55,0,0,0-.35-.05,2,2,0,0,0-.73.16,6.45,6.45,0,0,0-.74.38A8.93,8.93,0,0,1,79,85.8a1.75,1.75,0,0,1,1.17-.69c.47,0,1,.73,1.73,2.17a22.7,22.7,0,0,0,1.4,2.7c.17-.3.32-.63.48-1A3,3,0,0,0,84,87.87a1.78,1.78,0,0,0-.32-1.06,2.25,2.25,0,0,0-.92-.71c.15-.28.32-.55.5-.83A.83.83,0,0,1,84,84.87Z"></path><path class="cls-2" d="M58.49,30.11h0V21.44c-13.11.09-20.46,4.25-21.6,5.19v25c0,12.34,17.75,22.82,21.57,25V61.49h0A16.23,16.23,0,0,1,50,57.94q-4.5-3.72-4.5-11.17,0-7.71,4.15-12.2A13,13,0,0,1,58.49,30.11Zm22.63-3.43c-1.07-.82-7.37-5.13-21.61-5.24v8.63h9.66a14.64,14.64,0,0,0,1.61,3.76,19.79,19.79,0,0,1,1.61,3.38l-5.51-4.33A14.8,14.8,0,0,0,59.73,31H59l-.24,0h-.27c-3,.23-5.09,1.33-6.27,3.28a16.66,16.66,0,0,0-2,8.67,24.73,24.73,0,0,0,3,11.7,10.25,10.25,0,0,0,5.22,5.08l0,0c.31.12.62.22.94.31h0a10.07,10.07,0,0,0,2.5.31c3.1,0,5.4-.6,6.87-1.78a14,14,0,0,0,3.65-4.55,6.84,6.84,0,0,1-2.37,5.56q-2.37,2-8.85,2c-.61,0-1.22,0-1.8-.07v15c3.8-2,21.67-12.24,21.65-25,0-2.27,0-6.26,0-10.41C81.11,34.81,81.11,28,81.12,26.68Zm0,0c-1.07-.82-7.37-5.13-21.61-5.24v8.63h9.66a14.64,14.64,0,0,0,1.61,3.76,19.79,19.79,0,0,1,1.61,3.38l-5.51-4.33A14.8,14.8,0,0,0,59.73,31H59l-.24,0h-.27c-3,.23-5.09,1.33-6.27,3.28a16.66,16.66,0,0,0-2,8.67,24.73,24.73,0,0,0,3,11.7,10.25,10.25,0,0,0,5.22,5.08l0,0c.31.12.62.22.94.31h0a10.07,10.07,0,0,0,2.5.31c3.1,0,5.4-.6,6.87-1.78a14,14,0,0,0,3.65-4.55,6.84,6.84,0,0,1-2.37,5.56q-2.37,2-8.85,2c-.61,0-1.22,0-1.8-.07v15c3.8-2,21.67-12.24,21.65-25,0-2.27,0-6.26,0-10.41C81.11,34.81,81.11,28,81.12,26.68ZM58.49,30.11h0V21.44c-13.11.09-20.46,4.25-21.6,5.19v25c0,12.34,17.75,22.82,21.57,25V61.49h0A16.23,16.23,0,0,1,50,57.94q-4.5-3.72-4.5-11.17,0-7.71,4.15-12.2A13,13,0,0,1,58.49,30.11Zm0,0h0V21.44c-13.11.09-20.46,4.25-21.6,5.19v25c0,12.34,17.75,22.82,21.57,25V61.49h0A16.23,16.23,0,0,1,50,57.94q-4.5-3.72-4.5-11.17,0-7.71,4.15-12.2A13,13,0,0,1,58.49,30.11Zm22.63-3.43c-1.07-.82-7.37-5.13-21.61-5.24v8.63h9.66a14.64,14.64,0,0,0,1.61,3.76,19.79,19.79,0,0,1,1.61,3.38l-5.51-4.33A14.8,14.8,0,0,0,59.73,31H59l-.24,0h-.27c-3,.23-5.09,1.33-6.27,3.28a16.66,16.66,0,0,0-2,8.67,24.73,24.73,0,0,0,3,11.7,10.25,10.25,0,0,0,5.22,5.08l0,0c.31.12.62.22.94.31h0a10.07,10.07,0,0,0,2.5.31c3.1,0,5.4-.6,6.87-1.78a14,14,0,0,0,3.65-4.55,6.84,6.84,0,0,1-2.37,5.56q-2.37,2-8.85,2c-.61,0-1.22,0-1.8-.07v15c3.8-2,21.67-12.24,21.65-25,0-2.27,0-6.26,0-10.41C81.11,34.81,81.11,28,81.12,26.68Zm0,0c-1.07-.82-7.37-5.13-21.61-5.24v8.63h9.66a14.64,14.64,0,0,0,1.61,3.76,19.79,19.79,0,0,1,1.61,3.38l-5.51-4.33A14.8,14.8,0,0,0,59.73,31H59l-.24,0h-.27c-3,.23-5.09,1.33-6.27,3.28a16.66,16.66,0,0,0-2,8.67,24.73,24.73,0,0,0,3,11.7,10.25,10.25,0,0,0,5.22,5.08l0,0c.31.12.62.22.94.31h0a10.07,10.07,0,0,0,2.5.31c3.1,0,5.4-.6,6.87-1.78a14,14,0,0,0,3.65-4.55,6.84,6.84,0,0,1-2.37,5.56q-2.37,2-8.85,2c-.61,0-1.22,0-1.8-.07v15c3.8-2,21.67-12.24,21.65-25,0-2.27,0-6.26,0-10.41C81.11,34.81,81.11,28,81.12,26.68ZM50,57.94q-4.5-3.72-4.5-11.17,0-7.71,4.15-12.2a13,13,0,0,1,8.89-4.46h0V21.44c-13.11.09-20.46,4.25-21.6,5.19v25c0,12.34,17.75,22.82,21.57,25V61.49h0A16.23,16.23,0,0,1,50,57.94ZM83.63,24.36s-6.7-6-24.66-6c-16.67,0-24.81,5.85-24.65,6s.07,20.71,0,27.5C34.16,67.19,58.93,80,58.93,80s24.73-12.15,24.7-28.14C83.62,45.07,83.63,24.36,83.63,24.36Zm-1.54,2.08V51.66c0,6.13-4,12.61-11.48,18.73a68.6,68.6,0,0,1-11.42,7.46L59,78l-.22-.11c-.93-.48-23-12-22.81-26.21l0-25v-.43c.19-.48,2.63-1.95,6-3.14a50.76,50.76,0,0,1,17-2.65H59c16.44,0,22.65,5.39,22.91,5.62l.16.15Zm-22.58-5v8.63h9.66a14.64,14.64,0,0,0,1.61,3.76,19.79,19.79,0,0,1,1.61,3.38l-5.51-4.33A14.8,14.8,0,0,0,59.73,31H59l-.24,0h-.27c-3,.23-5.09,1.33-6.27,3.28a16.66,16.66,0,0,0-2,8.67,24.73,24.73,0,0,0,3,11.7,10.25,10.25,0,0,0,5.22,5.08l0,0c.31.12.62.22.94.31h0a10.07,10.07,0,0,0,2.5.31c3.1,0,5.4-.6,6.87-1.78a14,14,0,0,0,3.65-4.55,6.84,6.84,0,0,1-2.37,5.56q-2.37,2-8.85,2c-.61,0-1.22,0-1.8-.07v15c3.8-2,21.67-12.24,21.65-25,0-2.27,0-6.26,0-10.41,0-6.42,0-13.22,0-14.55C80.05,25.86,73.75,21.55,59.51,21.44ZM50,57.94q-4.5-3.72-4.5-11.17,0-7.71,4.15-12.2a13,13,0,0,1,8.89-4.46h0V21.44c-13.11.09-20.46,4.25-21.6,5.19v25c0,12.34,17.75,22.82,21.57,25V61.49h0A16.23,16.23,0,0,1,50,57.94Zm8.54-27.83h0V21.44c-13.11.09-20.46,4.25-21.6,5.19v25c0,12.34,17.75,22.82,21.57,25V61.49h0A16.23,16.23,0,0,1,50,57.94q-4.5-3.72-4.5-11.17,0-7.71,4.15-12.2A13,13,0,0,1,58.49,30.11Zm22.63-3.43c-1.07-.82-7.37-5.13-21.61-5.24v8.63h9.66a14.64,14.64,0,0,0,1.61,3.76,19.79,19.79,0,0,1,1.61,3.38l-5.51-4.33A14.8,14.8,0,0,0,59.73,31H59l-.24,0h-.27c-3,.23-5.09,1.33-6.27,3.28a16.66,16.66,0,0,0-2,8.67,24.73,24.73,0,0,0,3,11.7,10.25,10.25,0,0,0,5.22,5.08l0,0c.31.12.62.22.94.31h0a10.07,10.07,0,0,0,2.5.31c3.1,0,5.4-.6,6.87-1.78a14,14,0,0,0,3.65-4.55,6.84,6.84,0,0,1-2.37,5.56q-2.37,2-8.85,2c-.61,0-1.22,0-1.8-.07v15c3.8-2,21.67-12.24,21.65-25,0-2.27,0-6.26,0-10.41C81.11,34.81,81.11,28,81.12,26.68Zm0,0c-1.07-.82-7.37-5.13-21.61-5.24v8.63h9.66a14.64,14.64,0,0,0,1.61,3.76,19.79,19.79,0,0,1,1.61,3.38l-5.51-4.33A14.8,14.8,0,0,0,59.73,31H59l-.24,0h-.27c-3,.23-5.09,1.33-6.27,3.28a16.66,16.66,0,0,0-2,8.67,24.73,24.73,0,0,0,3,11.7,10.25,10.25,0,0,0,5.22,5.08l0,0c.31.12.62.22.94.31h0a10.07,10.07,0,0,0,2.5.31c3.1,0,5.4-.6,6.87-1.78a14,14,0,0,0,3.65-4.55,6.84,6.84,0,0,1-2.37,5.56q-2.37,2-8.85,2c-.61,0-1.22,0-1.8-.07v15c3.8-2,21.67-12.24,21.65-25,0-2.27,0-6.26,0-10.41C81.11,34.81,81.11,28,81.12,26.68ZM58.49,30.11h0V21.44c-13.11.09-20.46,4.25-21.6,5.19v25c0,12.34,17.75,22.82,21.57,25V61.49h0A16.23,16.23,0,0,1,50,57.94q-4.5-3.72-4.5-11.17,0-7.71,4.15-12.2A13,13,0,0,1,58.49,30.11Zm0,0h0V21.44c-13.11.09-20.46,4.25-21.6,5.19v25c0,12.34,17.75,22.82,21.57,25V61.49h0A16.23,16.23,0,0,1,50,57.94q-4.5-3.72-4.5-11.17,0-7.71,4.15-12.2A13,13,0,0,1,58.49,30.11Zm22.63-3.43c-1.07-.82-7.37-5.13-21.61-5.24v8.63h9.66a14.64,14.64,0,0,0,1.61,3.76,19.79,19.79,0,0,1,1.61,3.38l-5.51-4.33A14.8,14.8,0,0,0,59.73,31H59l-.24,0h-.27c-3,.23-5.09,1.33-6.27,3.28a16.66,16.66,0,0,0-2,8.67,24.73,24.73,0,0,0,3,11.7,10.25,10.25,0,0,0,5.22,5.08l0,0c.31.12.62.22.94.31h0a10.07,10.07,0,0,0,2.5.31c3.1,0,5.4-.6,6.87-1.78a14,14,0,0,0,3.65-4.55,6.84,6.84,0,0,1-2.37,5.56q-2.37,2-8.85,2c-.61,0-1.22,0-1.8-.07v15c3.8-2,21.67-12.24,21.65-25,0-2.27,0-6.26,0-10.41C81.11,34.81,81.11,28,81.12,26.68Zm0,0c-1.07-.82-7.37-5.13-21.61-5.24v8.63h9.66a14.64,14.64,0,0,0,1.61,3.76,19.79,19.79,0,0,1,1.61,3.38l-5.51-4.33A14.8,14.8,0,0,0,59.73,31H59l-.24,0h-.27c-3,.23-5.09,1.33-6.27,3.28a16.66,16.66,0,0,0-2,8.67,24.73,24.73,0,0,0,3,11.7,10.25,10.25,0,0,0,5.22,5.08l0,0c.31.12.62.22.94.31h0a10.07,10.07,0,0,0,2.5.31c3.1,0,5.4-.6,6.87-1.78a14,14,0,0,0,3.65-4.55,6.84,6.84,0,0,1-2.37,5.56q-2.37,2-8.85,2c-.61,0-1.22,0-1.8-.07v15c3.8-2,21.67-12.24,21.65-25,0-2.27,0-6.26,0-10.41C81.11,34.81,81.11,28,81.12,26.68ZM58.49,30.11h0V21.44c-13.11.09-20.46,4.25-21.6,5.19v25c0,12.34,17.75,22.82,21.57,25V61.49h0A16.23,16.23,0,0,1,50,57.94q-4.5-3.72-4.5-11.17,0-7.71,4.15-12.2A13,13,0,0,1,58.49,30.11Z"></path><path class="cls-2" d="M58.5,56.81v0c.31.12.62.22.94.31h0A8.06,8.06,0,0,1,58.5,56.81Zm0-28.73Zm0,0Zm0,28.73v0c.31.12.62.22.94.31h0A8.06,8.06,0,0,1,58.5,56.81Zm0-28.73Zm0,28.73v0c.31.12.62.22.94.31h0A8.06,8.06,0,0,1,58.5,56.81Z"></path></g></g></svg>