<svg xmlns="http://www.w3.org/2000/svg" viewBox="0 0 118 118"><defs><style>.cls-1{fill:#fff;}.cls-2{fill:none;stroke:#333;stroke-miterlimit:10;}.cls-3{fill:#333;}</style></defs><g id="Layer_2" data-name="Layer 2"><g id="Layer_1-2" data-name="Layer 1"><rect class="cls-1" x="11.5" y="11.5" width="95" height="95"></rect><rect class="cls-1" width="118" height="118"></rect><polygon class="cls-2" points="86.8 31.21 82.14 33.87 76.22 37.24 60.22 46.36 55.45 43.64 49.53 40.27 33.64 31.21 60.22 16.05 86.8 31.21"></polygon><polygon class="cls-2" points="60.22 46.36 33.64 61.52 33.64 31.21 60.22 46.36"></polygon><polygon class="cls-2" points="86.8 61.52 60.22 76.67 33.64 61.52 49.53 52.46 55.45 49.08 60.22 46.36 76.23 55.49 82.15 58.86 86.8 61.52"></polygon><path class="cls-3" d="M68.78,55.49A12.51,12.51,0,0,1,48,49.08a12.71,12.71,0,0,1-.3-2.71,12.9,12.9,0,0,1,.3-2.73,12.52,12.52,0,0,1,20.78-6.4l5.92-3.37a19.14,19.14,0,1,0,0,25Z"></path><path class="cls-3" d="M36.54,83.79a3.09,3.09,0,0,1,5.31-2l-.69.65a2,2,0,0,0-1.52-.67,2,2,0,1,0,0,4,2,2,0,0,0,1.52-.67l.69.65a3.09,3.09,0,0,1-5.31-2Z"></path><path class="cls-3" d="M44.49,80.94h1.06v5.7H44.49Z"></path><path class="cls-3" d="M49.87,81.84H48v-.9h4.84v.9H50.93v4.8H49.87Z"></path><path class="cls-3" d="M57.62,84.63v2H56.56v-2l-2.24-3.71h1.14l1.66,2.78,1.69-2.78h1Z"></path><path class="cls-3" d="M62.09,80.94h1.06v4.81h3v.89h-4Z"></path><path class="cls-3" d="M68.59,80.94h1.06v5.7H68.59Z"></path><path class="cls-3" d="M73.87,81.83v1.73h2.75v.9H73.87v2.18H72.82v-5.7H77v.89Z"></path><path class="cls-3" d="M83.9,85.75v.89H79.63v-5.7h4.16v.89h-3.1v1.48h2.75v.87H80.69v1.57Z"></path><path class="cls-3" d="M36.52,92.42a1.55,1.55,0,0,1,1.61-1.58,1.48,1.48,0,0,1,1.11.43l-.14.15a1.28,1.28,0,0,0-1-.37,1.37,1.37,0,1,0,0,2.74,1.29,1.29,0,0,0,1-.38l.14.15a1.49,1.49,0,0,1-1.11.44A1.55,1.55,0,0,1,36.52,92.42Z"></path><path class="cls-3" d="M40.53,92.42A1.62,1.62,0,1,1,42.15,94,1.56,1.56,0,0,1,40.53,92.42Zm3,0a1.39,1.39,0,1,0-1.39,1.37A1.35,1.35,0,0,0,43.54,92.42Z"></path><path class="cls-3" d="M48,90.86V94H47.8l-2.12-2.71V94h-.23V90.86h.19l2.12,2.71V90.86Z"></path><path class="cls-3" d="M50,90.86H51.2a1.56,1.56,0,1,1,0,3.12H50Zm1.21,2.91a1.36,1.36,0,1,0,0-2.71h-1v2.71Z"></path><path class="cls-3" d="M54.24,92.42A1.62,1.62,0,1,1,55.86,94,1.56,1.56,0,0,1,54.24,92.42Zm3,0a1.4,1.4,0,1,0-1.39,1.37A1.35,1.35,0,0,0,57.25,92.42Z"></path><path class="cls-3" d="M63.57,91.91c0,.65-.48,1-1.26,1h-.89v1h-.23V90.86h1.12C63.09,90.86,63.57,91.25,63.57,91.91Zm-.24,0c0-.54-.35-.85-1-.85h-.89v1.69h.89C63,92.75,63.33,92.44,63.33,91.91Z"></path><path class="cls-3" d="M67,93.1H65.19l-.4.88h-.24L66,90.86h.23L67.64,94H67.4Zm-.09-.19-.82-1.8-.81,1.8Z"></path><path class="cls-3" d="M69.54,91.06H68.42v-.2h2.47v.2H69.77V94h-.23Z"></path><path class="cls-3" d="M72,92.42A1.62,1.62,0,1,1,73.62,94,1.56,1.56,0,0,1,72,92.42Zm3,0a1.4,1.4,0,1,0-1.39,1.37A1.35,1.35,0,0,0,75,92.42Z"></path><path class="cls-3" d="M79.46,90.86V94h-.19l-2.12-2.71V94h-.23V90.86h.19l2.12,2.71V90.86Z"></path><path class="cls-3" d="M83.66,92.43h.22V93.6a1.65,1.65,0,0,1-1.12.4,1.58,1.58,0,1,1,0-3.16,1.54,1.54,0,0,1,1.12.42l-.14.16a1.31,1.31,0,0,0-1-.37,1.37,1.37,0,1,0,.89,2.45Z"></path></g></g></svg>