<svg width="602" height="110" viewBox="0 0 602 110" fill="none" xmlns="http://www.w3.org/2000/svg">
<path d="M49.6026 36.9901C48.5526 36.9901 47.8026 37.3701 47.3326 38.1301C46.8626 38.8901 46.5226 39.5001 46.3126 39.9701L32.4226 70.4801C31.9526 71.5301 31.5626 72.3601 31.2426 72.9901C30.9326 73.6201 30.7726 74.0601 30.7726 74.3201C30.7726 74.5801 30.8326 74.7901 30.9726 74.9501C31.1026 75.1101 31.2726 75.2601 31.4826 75.4201V76.8301H19.4826V75.4201C19.9526 75.2101 20.1926 74.8401 20.1926 74.3201C20.1926 74.0601 19.9926 73.5201 19.6026 72.7101C19.2126 71.9001 18.7226 70.8901 18.1526 69.6901L4.03264 39.0301C3.77264 38.4501 3.40264 38.0401 2.93264 37.7701C2.46264 37.5101 1.78264 37.2501 0.892639 36.9901V35.5801H14.9326V36.9901C14.5626 36.9901 14.2126 37.0801 13.8726 37.2601C13.5326 37.4401 13.3626 37.8001 13.3626 38.3201C13.3626 38.9001 13.5826 39.6301 14.0326 40.5201C14.4726 41.4101 15.0126 42.5101 15.6426 43.8101L25.6826 65.3801L35.4926 44.1201C36.1226 42.7601 36.7126 41.5401 37.2626 40.4701C37.8126 39.4001 38.0826 38.6501 38.0826 38.2301C38.0826 37.3901 37.3526 36.9701 35.8826 36.9701V35.5601H49.6126V36.9701L49.6026 36.9901Z" fill="#EFBA1C"/>
<path d="M71.9626 75.4301C73.3226 75.4301 74.0026 74.9601 74.0026 74.0201V38.4001C74.0026 37.4601 73.3226 36.9901 71.9626 36.9901V35.5801H84.9826V36.9901C83.6226 36.9901 82.9426 37.4601 82.9426 38.4001V74.0201C82.9426 74.9601 83.6226 75.4301 84.9826 75.4301V76.8401H71.9626V75.4301Z" fill="#EFBA1C"/>
<path d="M122.013 74.0201C122.013 74.4901 122.173 74.8401 122.483 75.0801C122.793 75.3201 123.163 75.4301 123.583 75.4301V76.8401H111.343V75.4301C112.493 75.4301 113.073 74.9601 113.073 74.0201V38.4001C113.073 37.4601 112.493 36.9901 111.343 36.9901V35.5801H123.583V36.9901C123.163 36.9901 122.803 37.1101 122.483 37.3401C122.173 37.5701 122.013 37.9301 122.013 38.4001V53.3001L138.253 40.5101C138.983 39.8801 139.563 39.3701 139.983 38.9801C140.403 38.5901 140.613 38.2601 140.613 38.0001C140.613 37.6301 140.493 37.3701 140.263 37.2201C140.023 37.0601 139.753 36.9801 139.443 36.9801V35.5701H155.913V36.9801C154.973 36.9801 154.033 37.3701 153.093 38.1601L135.053 52.5101L151.523 71.5701C152.203 72.3501 153.003 73.1301 153.913 73.8801C154.823 74.6401 155.733 75.1501 156.623 75.4101V76.8201H142.113V75.4101C142.793 75.4101 143.133 75.2301 143.133 74.8601C143.133 74.6001 142.763 74.0201 142.033 73.1301L128.623 57.6801L122.033 62.7801V74.0001L122.013 74.0201Z" fill="#EFBA1C"/>
<path d="M173.633 75.4301C174.313 75.3301 174.853 74.9901 175.243 74.4101C175.633 73.8401 176.013 73.1801 176.383 72.4501L190.893 41.9401C191.263 41.2601 191.583 40.6301 191.873 40.0601C192.163 39.4801 192.303 38.9901 192.303 38.5701C192.303 38.0501 192.123 37.6801 191.753 37.4701C191.383 37.2601 190.993 37.1101 190.573 37.0001V35.5901H203.833V37.0001C203.463 37.1101 203.103 37.2501 202.733 37.4301C202.363 37.6101 202.183 37.9901 202.183 38.5701C202.183 38.9901 202.273 39.4101 202.453 39.8301C202.633 40.2501 202.913 40.8001 203.273 41.4801L219.593 73.4101C219.853 73.9901 220.203 74.4001 220.653 74.6701C221.093 74.9301 221.603 75.1901 222.183 75.4501V76.8601H208.373V75.4501C208.583 75.4501 208.843 75.3701 209.153 75.2101C209.463 75.0501 209.623 74.8201 209.623 74.5001C209.623 73.9801 209.413 73.3001 208.993 72.4601L206.013 66.6501H186.873L184.053 72.2201C183.533 73.3201 183.273 74.1001 183.273 74.5701C183.273 75.1501 183.773 75.4301 184.763 75.4301V76.8401H173.623V75.4301H173.633ZM203.203 60.8401L196.613 46.2501L189.243 60.8401H203.203Z" fill="#EFBA1C"/>
<path d="M406.663 74.02C406.663 74.96 407.243 75.43 408.393 75.43V76.84H396.313V75.43C396.683 75.43 397.003 75.31 397.293 75.08C397.583 74.85 397.723 74.49 397.723 74.02V42.8H384.783C384.313 42.8 383.853 42.93 383.413 43.19C382.963 43.45 382.743 43.95 382.743 44.68H381.333V33.7H382.743C382.743 34.43 382.963 34.93 383.413 35.19C383.853 35.45 384.313 35.58 384.783 35.58H419.613C420.083 35.58 420.543 35.45 420.983 35.19C421.423 34.93 421.653 34.43 421.653 33.7H423.063V44.68H421.653C421.653 43.95 421.433 43.45 420.983 43.19C420.533 42.93 420.083 42.8 419.613 42.8H406.673V74.02H406.663Z" fill="#EFBA1C"/>
<path d="M483.383 38.4101C483.383 37.4701 482.803 37.0001 481.653 37.0001V35.5901H493.733V37.0001C493.363 37.0001 493.043 37.1201 492.753 37.3501C492.463 37.5801 492.323 37.9401 492.323 38.4101V74.0301C492.323 74.5001 492.463 74.8501 492.753 75.0901C493.043 75.3301 493.363 75.4401 493.733 75.4401V76.8501H481.653V75.4401C482.803 75.4401 483.383 74.9701 483.383 74.0301V59.2801H458.123V74.0301C458.123 74.5001 458.263 74.8501 458.553 75.0901C458.843 75.3301 459.163 75.4401 459.533 75.4401V76.8501H447.693V75.4401C448.683 75.4401 449.183 74.9701 449.183 74.0301V38.4101C449.183 37.4701 448.683 37.0001 447.693 37.0001V35.5901H459.533V37.0001C459.163 37.0001 458.843 37.1201 458.553 37.3501C458.263 37.5801 458.123 37.9401 458.123 38.4101V51.7501H483.383V38.4101Z" fill="#EFBA1C"/>
<path d="M516.963 75.4301C517.643 75.3301 518.183 74.9901 518.573 74.4101C518.963 73.8401 519.343 73.1801 519.713 72.4501L534.223 41.9401C534.593 41.2601 534.913 40.6301 535.203 40.0601C535.493 39.4801 535.633 38.9901 535.633 38.5701C535.633 38.0501 535.453 37.6801 535.083 37.4701C534.713 37.2601 534.323 37.1101 533.903 37.0001V35.5901H547.163V37.0001C546.793 37.1101 546.433 37.2501 546.063 37.4301C545.693 37.6101 545.513 37.9901 545.513 38.5701C545.513 38.9901 545.603 39.4101 545.783 39.8301C545.963 40.2501 546.243 40.8001 546.603 41.4801L562.923 73.4101C563.183 73.9901 563.533 74.4001 563.983 74.6701C564.423 74.9301 564.933 75.1901 565.513 75.4501V76.8601H551.703V75.4501C551.913 75.4501 552.173 75.3701 552.483 75.2101C552.793 75.0501 552.953 74.8201 552.953 74.5001C552.953 73.9801 552.743 73.3001 552.323 72.4601L549.343 66.6501H530.203L527.383 72.2201C526.863 73.3201 526.603 74.1001 526.603 74.5701C526.603 75.1501 527.103 75.4301 528.093 75.4301V76.8401H516.953V75.4301H516.963ZM546.533 60.8401L539.943 46.2501L532.573 60.8401H546.533Z" fill="#EFBA1C"/>
<path d="M588.193 75.4301C589.553 75.4301 590.233 74.9601 590.233 74.0201V38.4001C590.233 37.4601 589.553 36.9901 588.193 36.9901V35.5801H601.213V36.9901C599.853 36.9901 599.173 37.4601 599.173 38.4001V74.0201C599.173 74.9601 599.853 75.4301 601.213 75.4301V76.8401H588.193V75.4301Z" fill="#EFBA1C"/>
<path d="M282.823 47.7651V47.9851L282.863 47.9151L282.583 48.5751L283.203 48.2151L283.243 48.1451L283.453 47.8751L283.563 49.2051L283.163 50.5651V50.6151L283.193 50.7151L283.803 52.0951L284.083 55.4151L283.953 57.3351L284.593 61.5251L284.613 61.7851L284.103 63.3551L284.703 62.8651L284.983 66.1951L282.673 66.4151L281.553 61.6751V54.0751L282.023 50.7451V48.3851L282.583 47.7751C282.653 47.7751 282.733 47.7751 282.823 47.7651V47.7651Z" fill="#EFBA1C"/>
<path d="M318.803 49.5352L320.563 50.8752L319.173 55.0652L317.683 57.9252L318.053 53.4752L318.483 52.7552V50.8352L318.803 49.5352Z" fill="#EFBA1C"/>
<path d="M300.963 0.935051C270.973 0.935051 246.663 25.255 246.663 55.235C246.663 56.675 246.723 58.1051 246.833 59.5151C248.473 38.5151 262.053 20.8651 280.793 13.3651L286.413 80.7251H281.563V81.055L282.583 81.305L281.563 81.555V82.395L284.113 82.7051L281.563 83.0151V83.5151H287.393L286.763 82.7351L287.693 80.7251H287.153L285.823 66.1151L286.193 66.0851L290.913 65.2551L292.563 63.355L291.763 65.855L291.633 67.6551L292.553 67.205L291.553 68.7551C291.193 70.4551 290.843 72.335 290.803 72.715C290.833 72.865 291.063 73.2651 291.353 73.6851L293.653 72.245L291.693 74.7251L290.513 78.035L289.083 80.415L288.093 82.5751L288.723 83.365L292.413 81.305L289.063 84.415L288.673 85.4551V86.835L292.403 87.0151V87.0951L294.723 87.465L292.403 88.0151V92.005L294.733 99.525L294.633 102.115L293.973 106.035L294.653 108.645L296.483 109.515L297.783 108.415L297.343 105.465L296.853 102.875V92.0451L295.983 86.885H300.963L301.673 95.8451L300.583 103.825L298.963 108.785L298.863 109.615H302.263L303.673 106.715L303.393 103.065L303.913 97.505L304.933 94.195L305.383 88.3451L301.723 87.8451L305.453 87.3451V87.2651H307.333C307.433 86.6951 307.523 86.135 307.573 85.725L304.493 85.255L307.833 84.7351C308.063 84.4951 308.543 84.2151 309.603 83.9551L310.823 82.305L310.023 80.715H310.013V80.6951L309.183 79.055L307.873 77.855L306.513 80.1451L307.163 76.955L307.343 74.135L305.953 69.6251V67.9051C305.953 67.9051 305.903 67.9051 305.893 67.8951H305.863L305.673 67.8651C305.443 67.8151 305.203 67.765 304.963 67.715C304.493 67.605 304.023 67.4551 303.553 67.2951C303.083 67.1151 302.613 66.9051 302.173 66.6451C302.693 66.5451 303.183 66.5151 303.683 66.5151C304.183 66.5151 304.673 66.5651 305.163 66.6151C305.193 66.6151 305.223 66.6251 305.273 66.6251C305.163 66.4151 305.083 66.2051 305.033 65.9451C305.613 66.0451 306.053 66.3051 306.463 66.5751L306.493 66.605H306.523V66.635L306.553 66.6551C306.553 66.6551 306.633 66.7651 306.683 66.8351H312.783L313.723 65.5751L316.933 59.3951L315.003 80.715H311.353L312.203 82.415L311.403 83.5151H319.183V82.035L315.323 81.705L315.503 81.6851H315.553H315.683V81.665L319.173 81.3651V80.715H315.763L321.373 13.445C339.993 20.995 353.483 38.5951 355.103 59.5051C355.213 58.0951 355.273 56.6651 355.273 55.2251C355.273 25.2351 330.963 0.925049 300.973 0.925049L300.963 0.935051ZM300.183 49.665C299.663 49.405 299.193 49.005 298.873 48.525C298.533 48.035 298.303 47.485 298.213 46.915C298.133 46.345 298.143 45.765 298.323 45.235C298.453 45.785 298.613 46.2851 298.793 46.7551C298.983 47.2451 299.213 47.675 299.493 48.065C299.783 48.465 300.113 48.825 300.513 49.135C300.703 49.315 300.933 49.4451 301.143 49.5851C301.353 49.7351 301.593 49.8451 301.843 50.0051C301.563 50.0051 301.273 49.9951 301.003 49.9451C300.743 49.8651 300.453 49.7951 300.193 49.6551L300.183 49.665ZM317.363 54.675L312.423 63.105V63.5751H311.013L309.243 64.9051L310.283 62.885L310.333 62.3351L306.523 58.165L302.403 57.705L302.033 58.175L301.963 58.275L301.333 58.465L301.643 58.025L301.623 57.605H301.613L301.533 55.6251L301.123 55.8651L301.493 54.7251V54.5451L302.703 52.565L302.783 52.5051C302.973 52.3551 303.223 52.295 303.513 52.275V52.1951L301.913 51.5751L303.513 51.5451V51.5151H306.593C307.813 51.4551 308.863 51.355 309.753 51.235L307.193 50.1951H310.193C311.763 50.1951 313.453 49.415 314.833 48.595C313.243 48.745 311.613 48.5251 310.283 48.2551C307.623 47.7051 305.323 46.6951 304.673 46.1951C304.573 46.1151 304.513 46.045 304.463 45.965L302.173 45.5051L304.703 45.0051C304.803 44.9551 304.913 44.925 305.053 44.925C305.653 44.925 306.593 44.5651 307.503 44.1451C306.223 43.8651 304.523 43.155 302.493 41.455C301.003 40.175 299.303 39.785 297.593 40.305C295.353 40.985 293.413 43.185 292.633 45.915C292.133 47.715 292.553 49.365 293.253 50.745C293.253 50.065 293.313 49.365 293.443 48.705C293.593 47.975 293.813 47.2651 294.223 46.6451C294.593 46.0251 295.163 45.525 295.813 45.215C295.213 45.605 294.743 46.155 294.473 46.785C294.193 47.405 294.073 48.0851 294.023 48.7651C293.993 49.4451 294.043 50.1451 294.133 50.8251C294.213 51.4451 294.363 52.0751 294.543 52.6551C295.383 53.6751 296.143 54.2751 296.163 54.2951L296.353 54.4451L297.923 55.6151L299.563 55.855L297.823 56.095H297.813L297.713 56.065L296.383 55.5751V56.965L296.883 58.135L297.773 58.7651L299.283 59.0851L297.663 59.165H297.643L297.583 59.1451L296.403 58.705L296.353 58.6851L296.253 58.555L295.573 57.6851L290.273 58.595L286.493 61.465L287.963 64.8651L285.683 62.0751L285.473 62.235L284.503 51.635L284.873 52.0851L285.303 51.6551L285.783 50.465L285.443 47.915L284.513 46.985C284.383 47.095 284.243 47.195 284.113 47.285L281.023 13.225C287.193 10.785 293.923 9.44505 300.963 9.44505C308.003 9.44505 314.873 10.815 321.103 13.305L317.363 54.635V54.675Z" fill="#EFBA1C"/>
</svg>
