<svg xmlns="http://www.w3.org/2000/svg" viewBox="0 0 118 118"><defs><style>.cls-1{fill:#fff;}.cls-2{fill:#333;}</style></defs><g id="Layer_2" data-name="Layer 2"><g id="Layer_1-2" data-name="Layer 1"><rect class="cls-1" x="11.5" y="11.5" width="95" height="95"></rect><rect class="cls-1" width="118" height="118"></rect><path class="cls-2" d="M75.41,81.93H57.73c-.22,0-.43,0-.65,0s-.36-.06-.42-.28a.4.4,0,0,1,.19-.47l7.81-5.65q3.42-2.46,6.82-4.94l9.61-7c.42-.31.84-.62,1.27-.92a.66.66,0,0,1,1.07.25l2.31,3.86,1.83,3.11L89.41,73l1.83,3.09,1.85,3.12c.36.6.72,1.19,1.07,1.8a.59.59,0,0,1-.53.92H75.41Z"></path><path class="cls-2" d="M69.37,89.58c0-.29,0-.57,0-.86V86.36c0-.26,0-.52,0-.77a.3.3,0,0,1,.34-.32h.67a.29.29,0,0,1,.32.33c0,1.17,0,2.33,0,3.49v2.3c0,.33,0,.34-.36.34a1.79,1.79,0,0,0-.4,0,1,1,0,0,1-1-.43c-.51-.63-1-1.24-1.56-1.84s-1.18-1.3-1.78-2c0,0-.14-.07-.17,0a.26.26,0,0,0-.09.19c0,.27,0,.54,0,.82,0,.83,0,1.66,0,2.49,0,.16,0,.33,0,.49s-.07.28-.27.27h-.75a.28.28,0,0,1-.31-.29c0-.14,0-.28,0-.42V89.46c0-.31,0-.62,0-.93s0-.84,0-1.26,0-1.11,0-1.67a.31.31,0,0,1,.34-.32,8,8,0,0,1,.85,0,.57.57,0,0,1,.33.18l3.51,3.94a1.75,1.75,0,0,1,.16.25Z"></path><path class="cls-2" d="M59.3,91.73H56.48c-.26,0-.37-.1-.36-.35,0-.46,0-.92,0-1.37s0-.6,0-.91c0-1,0-2.06,0-3.09a4.4,4.4,0,0,1,0-.51c0-.2.17-.23.35-.23h5.29c.34,0,.42.06.44.39a1.14,1.14,0,0,1,0,.52.43.43,0,0,1-.32.21,7.48,7.48,0,0,1-.82,0H57.84c-.24,0-.34.1-.35.32s0,.51,0,.77.09.36.38.36h3.52a1.67,1.67,0,0,1,.32,0c.19,0,.3.13.27.34a2.08,2.08,0,0,0,0,.35c0,.3-.08.39-.37.4H58.42c-.22,0-.45,0-.67,0s-.21.09-.22.15c0,.4-.05.8-.05,1.2,0,.24.15.33.4.33,1.36,0,2.72,0,4.07,0,.47,0,.56.08.5.54s.07.56-.58.55Z"></path><path class="cls-2" d="M85,91.73c-.37,0-.73,0-1.09,0-.08,0-.17-.13-.22-.22a.74.74,0,0,1,0-.3V85.83c0-.49.07-.56.56-.56.17,0,.33,0,.5,0s.3.1.3.31v1.88c0,.22.1.31.33.31h3.27c.22,0,.29-.08.28-.29,0-.58,0-1.15,0-1.73,0-.35.13-.47.48-.48s.4,0,.6,0a.25.25,0,0,1,.29.27v.74c0,.53,0,1,0,1.57s0,1.11,0,1.67,0,.83,0,1.25a5.66,5.66,0,0,1-.06.82s-.11.13-.18.14h-.75c-.32,0-.42-.1-.42-.43v-2c0-.35,0-.37-.37-.37H85.45c-.33,0-.42.09-.42.42v2.17C85,91.55,85,91.63,85,91.73Z"></path><path class="cls-2" d="M52.57,86.45c-.15,0-.25,0-.34,0H49c-.4,0-.48-.08-.48-.48,0-.64,0-.65.63-.65h5c.39,0,.42,0,.41.43,0,.09,0,.18,0,.27a.85.85,0,0,1-.29.62c-.46.42-.89.86-1.35,1.28s-1,.93-1.54,1.4c-.34.31-.67.64-1,1l-.17.15-.16.17a.81.81,0,0,0,.25.08h3.94c.42,0,.44,0,.4.43,0,.21,0,.42,0,.66H48.49c-.35,0-.41-.09-.45-.43a1.1,1.1,0,0,1,.47-1c1.32-1.22,2.63-2.47,3.94-3.7Z"></path><path class="cls-2" d="M62.26,27.34a8.23,8.23,0,0,1,.46.74,1.5,1.5,0,0,1,.14.59q0,11.34,0,22.67a.38.38,0,0,1-.6.36.23.23,0,0,1-.1-.15c0-.11,0-.22,0-.33V27.38Z"></path><path class="cls-2" d="M95.27,88c.32-.37.57-.67.83-1,.46-.54.92-1.09,1.41-1.61a.64.64,0,0,1,.4-.18,8.42,8.42,0,0,1,.87,0c.2,0,.24.08.21.29-.06.39-.35.59-.58.85-.72.8-1.46,1.59-2.18,2.39a1.6,1.6,0,0,0-.36.54,2.38,2.38,0,0,0,0,.6v1.37c0,.06,0,.11,0,.17s0,.25-.18.25h-.93c-.21,0-.27-.18-.27-.37,0-.68,0-1.35,0-2a.84.84,0,0,0-.18-.49c-.9-1-1.81-2-2.71-3.06a.43.43,0,0,1-.06-.35.36.36,0,0,1,.29-.17c.26,0,.53,0,.79,0a.68.68,0,0,1,.61.31c.43.52.89,1,1.33,1.54l.53.63A3.06,3.06,0,0,1,95.27,88Z"></path><path class="cls-2" d="M59.31,25.5a2.66,2.66,0,0,1,0,.28V51.37c0,.35-.14.45-.48.35a.21.21,0,0,1-.12-.15,1.48,1.48,0,0,1,0-.3q0-12.21,0-24.44A2.19,2.19,0,0,1,59.31,25.5Z"></path><path class="cls-2" d="M79.07,85.27H82c.32,0,.38.07.38.39V86c0,.29-.06.37-.35.37h-1.9c-.37,0-.41,0-.41.39,0,.69,0,1.39,0,2.09s0,1.69,0,2.54c0,.21-.07.32-.31.31a4.57,4.57,0,0,0-.74,0c-.23,0-.32-.12-.35-.31a1.62,1.62,0,0,1,0-.22c0-1.51,0-3,0-4.52,0-.21-.08-.28-.28-.28h-1.9c-.4,0-.5-.13-.49-.62s.12-.52.49-.52Z"></path><path class="cls-2" d="M31.21,72.94v1.12q0,9,0,18c0,.51,0,1,0,1.52,0,.31,0,.36-.31.36s-.33,0-.33-.35V77.75c0-1.2,0-2.41,0-3.62a1.64,1.64,0,0,1,.33-.89,4.15,4.15,0,0,1,.24-.34Z"></path><path class="cls-2" d="M55.78,31.45a2.66,2.66,0,0,1,0,.28V51.4a.33.33,0,0,1-.52.31.36.36,0,0,1-.09-.26V48.53q0-7.8,0-15.6a2,2,0,0,1,.37-1.25l.15-.24Z"></path><path class="cls-2" d="M65.8,33.26c.17.28.35.56.5.85a.77.77,0,0,1,.07.34v16.1c0,.31,0,.62,0,.93s-.19.25-.37.26-.32,0-.32-.27c0-1.72,0-3.44,0-5.17V33.52a2.13,2.13,0,0,1,0-.25Z"></path><path class="cls-2" d="M34.68,67c0,.1,0,.2,0,.3,0,3.84,0,7.69,0,11.53v3a.69.69,0,0,1-.6.72,2.34,2.34,0,0,1,0-.26V68.12c0-.34.24-.55.36-.83A1.53,1.53,0,0,1,34.6,67Z"></path><path class="cls-2" d="M37.59,71.92V64.08c0-.31,0-.35.36-.34s.27.14.26.33V79.42a.75.75,0,0,1-.47.65A.15.15,0,0,1,37.6,80a1,1,0,0,1,0-.24Z"></path><path class="cls-2" d="M27.69,78.7c0,.17,0,.26,0,.35V93.59c0,.34-.2.49-.52.35-.06,0-.11-.13-.13-.21a2.94,2.94,0,0,1,0-.42V81.49a9.91,9.91,0,0,0,0-1.09A2,2,0,0,1,27.51,79,2.52,2.52,0,0,0,27.69,78.7Z"></path><path class="cls-2" d="M73,91.69V90.25c0-.62,0-1.24,0-1.86,0-.42,0-.85.06-1.27,0-.11-.08-.23-.07-.34,0-.43,0-.87.09-1.3,0-.16.11-.23.27-.22h.6c.27,0,.38.12.39.41v5.59c0,.44,0,.48-.48.48h-.68l-.07,0Z"></path><path class="cls-2" d="M52.26,37.39a2.7,2.7,0,0,1,0,.28v12.7c0,.35,0,.7,0,1.05s-.08.32-.32.32-.31-.1-.31-.33q0-4.87,0-9.76c0-1,0-2,0-3.07a1.35,1.35,0,0,1,.25-.76c.09-.14.17-.29.25-.44Z"></path><path class="cls-2" d="M41.08,70.68V64.09c0-.28.07-.35.32-.35s.32.07.32.35V77c0,.17-.35.55-.51.55a.16.16,0,0,1-.12-.08.53.53,0,0,1,0-.18V70.68Z"></path><path class="cls-2" d="M69.32,39.19a2.72,2.72,0,0,1,.53,1.45c0,3.59,0,7.17,0,10.76,0,.21,0,.35-.29.34s-.34,0-.34-.36V39.53c0-.11,0-.22,0-.33Z"></path><path class="cls-2" d="M61.16,25.6c.27.12.26.31.26.52V51.39c0,.11.08.32-.13.32s-.15-.21-.15-.33q0-9.16,0-18.33c0-2.41,0-4.81,0-7.22A2.15,2.15,0,0,1,61.16,25.6Z"></path><path class="cls-2" d="M44.59,75v-11c0-.28,0-.33.32-.35s.29.13.29.34V74.42C45.2,74.73,45.05,74.88,44.59,75Z"></path><path class="cls-2" d="M24.18,84.71c0,.1,0,.21,0,.31v8.61c0,.31,0,.33-.32.33s-.33,0-.33-.33c0-2.6,0-5.19,0-7.79,0-.36.24-.59.38-.88a1.92,1.92,0,0,1,.17-.26Z"></path><path class="cls-2" d="M48.13,72.55c0-.16-.05-.25-.05-.35V64.07c0-.23.06-.34.31-.33s.34,0,.34.33v7.78C48.73,72.25,48.38,72.3,48.13,72.55Z"></path><path class="cls-2" d="M60.34,24c0,.13,0,.25,0,.38q0,10.35,0,20.72c0,2.09,0,4.18,0,6.27a1.32,1.32,0,0,1-.08.33,1,1,0,0,1-.13-.34v-27a1.88,1.88,0,0,1,.05-.33Z"></path><path class="cls-2" d="M57.86,27.94a1.45,1.45,0,0,1,0,.29v23a2.29,2.29,0,0,1,0,.37.11.11,0,0,1-.22,0,.81.81,0,0,1,0-.22v-23a2.78,2.78,0,0,1,.08-.49Z"></path><path class="cls-2" d="M48.82,43.18c0,.09,0,.17,0,.25,0,2.65,0,5.29,0,7.94a.36.36,0,0,1-.57.33c-.07,0-.1-.2-.1-.3,0-1.24,0-2.48,0-3.72,0-.93,0-1.86,0-2.79a2.37,2.37,0,0,1,.48-1.55l.12-.15Z"></path><path class="cls-2" d="M63.76,29.8a2.11,2.11,0,0,1,.12.48q0,10.56,0,21.12a.44.44,0,0,1,0,.2.16.16,0,0,1-.12.09s-.09-.06-.1-.11a.79.79,0,0,1,0-.22V30.14c0-.11,0-.22,0-.32Z"></path><path class="cls-2" d="M64.81,31.54a4,4,0,0,1,.09.59V51.35c0,.13.07.31-.14.34a.75.75,0,0,1-.1-.33V31.89c0-.12,0-.23,0-.34Z"></path><path class="cls-2" d="M33.14,69.47c.11.18.19,23.35.09,24.27a2.23,2.23,0,0,1-.08.24C33,93.74,33,69.7,33.14,69.47Z"></path><path class="cls-2" d="M32,93.93c0-.11,0-.21,0-.32v-22a1,1,0,0,1,.13-.36,2.21,2.21,0,0,1,.08.35q0,11,0,22a1.47,1.47,0,0,1-.08.35Z"></path><path class="cls-2" d="M29.77,75.31c0,.11,0,.21,0,.32q0,9,0,18a.38.38,0,0,1,0,.15.45.45,0,0,1-.1.14s-.1-.08-.12-.13a.55.55,0,0,1,0-.22q0-8.88,0-17.75a2.3,2.3,0,0,1,.1-.51Z"></path><path class="cls-2" d="M54.42,33.8V51.3a1.2,1.2,0,0,1,0,.27s-.08.09-.12.13-.1-.08-.11-.13a.61.61,0,0,1,0-.19V34.3C54.17,34.11,54.15,33.91,54.42,33.8Z"></path><path class="cls-2" d="M56.7,29.69c.18.21.18,21.85,0,22.06a.93.93,0,0,1-.09-.22c0-.11,0-.22,0-.33V30.15A3.87,3.87,0,0,1,56.7,29.69Z"></path><path class="cls-2" d="M28.73,77a2.85,2.85,0,0,1,0,.29V93.51a.48.48,0,0,1,0,.12c0,.11-.09.2-.13.3a.78.78,0,0,1-.13-.3q0-8.07,0-16.13a1.72,1.72,0,0,1,.13-.48Z"></path><path class="cls-2" d="M35.71,65.28c0,.14,0,.27,0,.4V80.81a4.51,4.51,0,0,1,0,.52.9.9,0,0,1-.12.24c0-.08-.07-.15-.1-.23s0,0,0-.07V65.74a2.44,2.44,0,0,1,.07-.46Z"></path><path class="cls-2" d="M53.38,35.52a1.37,1.37,0,0,1,0,.19q0,7.82,0,15.63c0,.13.09.36-.13.36s-.13-.23-.13-.35q0-7.65,0-15.3C53.12,35.84,53.12,35.63,53.38,35.52Z"></path><path class="cls-2" d="M67.3,35.73a4.29,4.29,0,0,1,.07.5c0,3.5,0,7,0,10.5,0,1.55,0,3.1,0,4.64a1.21,1.21,0,0,1-.12.35,1.22,1.22,0,0,1-.11-.34q0-7.62,0-15.25c0-.13,0-.26,0-.39Z"></path><path class="cls-2" d="M51.57,66.86c0-.93,0-1.85,0-2.77,0-.22,0-.35.31-.34s.37,0,.37.34c0,1.72,0,3.44,0,5.16a.75.75,0,0,1-.5.65c-.19,0-.17-.11-.17-.23V66.86Z"></path><path class="cls-2" d="M39,71.43V64.11s0-.1,0-.14a1.27,1.27,0,0,1,.13-.19.75.75,0,0,1,.13.18.48.48,0,0,1,0,.17V78.66c0,.14.08.37-.13.37s-.13-.24-.13-.36C39,76.26,39,73.84,39,71.43Z"></path><path class="cls-2" d="M42.54,76.52c0-.1,0-.2,0-.3V64.07a.53.53,0,0,1,0-.18.26.26,0,0,1,.14-.11s.09.06.11.11a.59.59,0,0,1,0,.19q0,6,0,12.09C42.79,76.33,42.78,76.49,42.54,76.52Z"></path><path class="cls-2" d="M72.86,45.16a2.47,2.47,0,0,1,.51,1.27c0,1.66,0,3.33,0,5,0,.24-.08.32-.31.32s-.31-.1-.31-.33c0-2,0-4,0-5.95a1.35,1.35,0,0,1,0-.29Z"></path><path class="cls-2" d="M36.66,80.85s-.09-.08-.09-.11V63.92c0-.05,0-.1.08-.15C36.78,64,36.8,80.6,36.66,80.85Z"></path><path class="cls-2" d="M49.85,41.42a2.3,2.3,0,0,1,0,.26v9.76a.47.47,0,0,1,0,.17s-.08.1-.12.1a.28.28,0,0,1-.14-.1.53.53,0,0,1,0-.18q0-4.76,0-9.51a1.94,1.94,0,0,1,.14-.51Z"></path><path class="cls-2" d="M40.25,63.78a2.7,2.7,0,0,1,0,.28V78s0,0,0,0-.08.17-.13.26a1,1,0,0,1-.09-.25q0-4.05,0-8.09c0-2,0-3.93,0-5.9a1.34,1.34,0,0,1,.07-.27Z"></path><path class="cls-2" d="M43.56,75.77a2.4,2.4,0,0,1,0-.28V64.07a.37.37,0,0,1,0-.15.49.49,0,0,1,.11-.14.66.66,0,0,1,.15.14s0,.09,0,.14c0,3.8,0,7.59,0,11.38a1.27,1.27,0,0,1-.12.36Z"></path><path class="cls-2" d="M26.13,81.23c.17.18.18,12.48,0,12.72a1.77,1.77,0,0,1-.05-.32c0-.81,0-1.62,0-2.42q0-4.75,0-9.51A3.56,3.56,0,0,1,26.13,81.23Z"></path><path class="cls-2" d="M50.89,39.76c0,.08,0,.17,0,.26v11.4a.55.55,0,0,1,0,.18s-.06.09-.08.09-.12,0-.13-.09a.93.93,0,0,1,0-.24q0-5.56,0-11.11a2.3,2.3,0,0,1,.1-.51Z"></path><path class="cls-2" d="M47.2,73.23a84,84,0,0,1,0-9.52,2.53,2.53,0,0,1,.11.33c0,2.84,0,5.67,0,8.51a2.67,2.67,0,0,1,0,.4A1.57,1.57,0,0,1,47.2,73.23Z"></path><path class="cls-2" d="M25.14,83c.16.24.14,10.81,0,11C25,93.75,25,83.23,25.14,83Z"></path><path class="cls-2" d="M68.23,51.7V37.47h.1a3.59,3.59,0,0,1,0,.46V51.37c0,.12,0,.23,0,.34Z"></path><path class="cls-2" d="M55.09,65.61c0-.51,0-1,0-1.54,0-.24.1-.31.31-.32s.3.09.3.3c0,.92,0,1.85,0,2.77a.65.65,0,0,1-.44.54c-.18,0-.16-.09-.16-.2V65.61Z"></path><path class="cls-2" d="M46.16,74c-.17-.24-.16-10,0-10.24a1.63,1.63,0,0,1,.07.31v9.64A1.5,1.5,0,0,1,46.16,74Z"></path><path class="cls-2" d="M70.7,41.61a1,1,0,0,1,.16.19,1,1,0,0,1,0,.3v9.21a.81.81,0,0,1,0,.22,1.08,1.08,0,0,1-.11.18.76.76,0,0,1-.12-.19.66.66,0,0,1,0-.2V41.65Z"></path><path class="cls-2" d="M20.67,90.65s0,.07,0,.09v3c0,.21-.14.24-.31.23s-.33,0-.33-.23c0-.71,0-1.42,0-2.12a2.86,2.86,0,0,1,.47-.94Z"></path><path class="cls-2" d="M22.8,87.14v6.48l-.14.32a1,1,0,0,1-.11-.31q0-3,0-6.09C22.54,87.37,22.52,87.18,22.8,87.14Z"></path><path class="cls-2" d="M71.77,43.42a63.85,63.85,0,0,1,0,8.3c0-.1,0-.2,0-.3V43.71A1.47,1.47,0,0,1,71.77,43.42Z"></path><path class="cls-2" d="M49.6,71.4a1.86,1.86,0,0,1,0-.34q0-3.25,0-6.51c0-.18,0-.35,0-.53a1.05,1.05,0,0,1,.06-.24h.07a1.09,1.09,0,0,1,.05.26q0,3.55,0,7.11a1,1,0,0,1-.05.25Z"></path><path class="cls-2" d="M45.29,49.11a1,1,0,0,1,0,.25c0,.69,0,1.39,0,2.09,0,.25-.11.29-.32.29s-.35,0-.34-.29c0-.42,0-.84,0-1.25a1.09,1.09,0,0,1,.12-.4c.12-.24.27-.47.41-.7Z"></path><path class="cls-2" d="M50.71,63.78a57.27,57.27,0,0,1-.07,6.93,2.22,2.22,0,0,1-.06-.36V64.07a2.5,2.5,0,0,1,.05-.29Z"></path><path class="cls-2" d="M47.34,45.64a1.09,1.09,0,0,1,0,.25v5.56a1.09,1.09,0,0,1,0,.18.11.11,0,0,1-.08.07.11.11,0,0,1-.09-.06,1,1,0,0,1,0-.24c0-1.76,0-3.51,0-5.27a4.1,4.1,0,0,1,.06-.49Z"></path><path class="cls-2" d="M74.25,47.47a1.59,1.59,0,0,1,.15.45c0,1.18,0,2.37,0,3.55,0,.08-.08.16-.12.24s-.14-.15-.14-.22c0-1.3,0-2.6,0-3.9,0,0,0-.06,0-.09Z"></path><path class="cls-2" d="M53.24,63.8a1.17,1.17,0,0,1,0,.26v4.48a.65.65,0,0,1,0,.2.13.13,0,0,1-.1.08.26.26,0,0,1-.09-.09s0-.09,0-.13c0-1.51,0-3,0-4.53a.9.9,0,0,1,.08-.28Z"></path><path class="cls-2" d="M21.63,94a27.13,27.13,0,0,1,0-5.1,1.28,1.28,0,0,1,.07.26V93.7A1.34,1.34,0,0,1,21.63,94Z"></path><path class="cls-2" d="M54.3,65.93v1.85a.82.82,0,0,1,0,.22s-.08.08-.13.09-.07-.06-.08-.1a1.41,1.41,0,0,1,0-.2V64.05a2.53,2.53,0,0,0,.13-.22.5.5,0,0,1,.1.21c0,.26,0,.52,0,.77v1.12Z"></path><path class="cls-2" d="M46.31,47.39v4.32h-.08a.86.86,0,0,1-.07-.21V47.72a1.91,1.91,0,0,1,.06-.33Z"></path><path class="cls-2" d="M56.55,66.33V63.81l.08,0c0,.07.14.15.15.23,0,.69,0,1.38,0,2.07a.72.72,0,0,1-.12.29Z"></path><path class="cls-2" d="M75.28,49.21a1.62,1.62,0,0,1,.14.46c0,.6,0,1.2,0,1.79,0,.09-.08.17-.12.25,0-.08-.14-.16-.14-.24q0-1,0-2a1.36,1.36,0,0,1,0-.2Z"></path><path class="cls-2" d="M58.61,64.88a8.06,8.06,0,0,1,0-1c0-.2.24-.14.38-.12a.32.32,0,0,1,.2.18C59.28,64.41,59.19,64.56,58.61,64.88Z"></path><path class="cls-2" d="M57.65,63.8a2.85,2.85,0,0,1,0,1.78A4.84,4.84,0,0,1,57.65,63.8Z"></path><path class="cls-2" d="M19.28,93c0,.31,0,.59,0,.86a.2.2,0,0,1-.11.11.18.18,0,0,1-.13-.08A.93.93,0,0,1,19.28,93Z"></path><path class="cls-2" d="M76.68,51.65c-.31.16-.45.09-.46-.21V51C76.53,51.16,76.54,51.45,76.68,51.65Z"></path></g></g></svg>