<svg xmlns="http://www.w3.org/2000/svg" width="301" height="301" viewBox="0 0 301 301" fill="none"><rect x="1.44318" y="1.3595" width="298" height="298" rx="5" fill="#F4F4F4" stroke="#E2E2E2" stroke-width="2"></rect><path d="M212.998 75.5689C212.998 109.601 185.017 137.237 150.443 137.237C115.869 137.237 87.8885 109.601 87.8885 75.5689C87.8885 41.5367 115.869 13.901 150.443 13.901C185.017 13.901 212.998 41.5367 212.998 75.5689Z" fill="#E1E1E1" stroke="#F4F4F4" stroke-width="4"></path><path d="M251.942 175.316C252.501 176.442 253.123 178.769 253.742 182.257C254.348 185.669 254.916 189.978 255.444 194.909C256.5 204.766 257.386 217.001 258.098 229.29C259.398 251.731 260.112 274.248 260.227 282.621H150.443L40.6596 282.621C40.7742 274.248 41.488 251.731 42.788 229.29C43.4999 217.001 44.3859 204.766 45.442 194.909C45.9703 189.978 46.5385 185.669 47.1439 182.257C47.7629 178.769 48.3854 176.442 48.9447 175.316C54.4313 164.266 62.4861 154.201 72.6698 145.706C82.854 137.21 94.963 130.456 108.312 125.843C121.662 121.231 135.979 118.854 150.443 118.854C164.908 118.854 179.225 121.231 192.574 125.843C205.923 130.456 218.032 137.21 228.217 145.706C238.4 154.201 246.455 164.266 251.942 175.316Z" fill="#E1E1E1" stroke="#F4F4F4" stroke-width="4"></path><path d="M62.9569 220.403H67.9758C68.7293 220.403 69.0137 220.573 69.3976 221.325L73.3928 229.308L77.3595 221.325C77.7292 220.573 77.9994 220.403 78.7813 220.403H83.6154C84.0704 220.403 84.2836 220.545 84.2836 220.828C84.2834 221.002 84.2394 221.173 84.1557 221.325L74.7435 239.106C74.189 240.198 73.8477 240.524 73.3217 240.524C72.7956 240.524 72.4544 240.155 71.8999 239.106L62.4308 221.325C62.3427 221.174 62.2939 221.003 62.2886 220.828C62.2886 220.545 62.5161 220.403 62.9569 220.403Z" fill="#F4F4F4"></path><path d="M91.4779 220.403C91.5927 220.389 91.7092 220.401 91.8185 220.439C91.9277 220.477 92.0267 220.54 92.1078 220.622C92.189 220.704 92.25 220.804 92.2862 220.914C92.3224 221.023 92.3329 221.14 92.3167 221.254V239.163C92.3334 239.276 92.3233 239.392 92.2871 239.501C92.2508 239.611 92.1895 239.71 92.108 239.791C92.0265 239.872 91.9271 239.933 91.8177 239.97C91.7083 240.006 91.5919 240.016 91.4779 239.999H86.5585C86.4444 240.016 86.3281 240.006 86.2187 239.97C86.1093 239.933 86.0098 239.872 85.9283 239.791C85.8468 239.71 85.7855 239.611 85.7493 239.501C85.713 239.392 85.7029 239.276 85.7196 239.163V221.254C85.7035 221.14 85.7139 221.023 85.7501 220.914C85.7863 220.804 85.8474 220.704 85.9285 220.622C86.0096 220.54 86.1086 220.477 86.2179 220.439C86.3271 220.401 86.4437 220.389 86.5585 220.403H91.4779Z" fill="#F4F4F4"></path><path d="M101.16 220.403C101.275 220.389 101.392 220.401 101.501 220.439C101.61 220.477 101.709 220.54 101.79 220.622C101.871 220.704 101.932 220.804 101.969 220.914C102.005 221.023 102.015 221.14 101.999 221.254V239.163C102.016 239.276 102.006 239.392 101.969 239.502C101.933 239.611 101.872 239.71 101.79 239.791C101.709 239.872 101.609 239.934 101.5 239.97C101.391 240.006 101.274 240.016 101.16 239.999H96.2409C96.1268 240.016 96.0105 240.006 95.901 239.97C95.7916 239.934 95.6922 239.872 95.6107 239.791C95.5292 239.71 95.4679 239.611 95.4317 239.502C95.3954 239.392 95.3853 239.276 95.402 239.163V221.254C95.3858 221.14 95.3963 221.023 95.4325 220.914C95.4687 220.804 95.5298 220.704 95.6109 220.622C95.692 220.54 95.791 220.477 95.9002 220.439C96.0095 220.401 96.126 220.389 96.2409 220.403H101.16ZM102.582 229.421L107.516 221.226C107.642 220.946 107.856 220.715 108.125 220.566C108.394 220.418 108.704 220.361 109.008 220.403H114.525C114.98 220.403 115.207 220.545 115.207 220.829C115.19 221 115.131 221.166 115.037 221.311L109.35 229.974L115.25 239.106C115.346 239.245 115.405 239.406 115.421 239.574C115.421 239.857 115.193 239.999 114.738 239.999H109.051C108.184 239.999 107.914 239.857 107.544 239.219L102.554 230.91C102.406 230.701 102.317 230.456 102.298 230.201C102.325 229.914 102.439 229.642 102.625 229.421H102.582Z" fill="#F4F4F4"></path><path d="M120.895 239.999H116.032C115.577 239.999 115.364 239.858 115.364 239.574C115.373 239.4 115.422 239.23 115.506 239.078L124.847 221.311C125.402 220.219 125.743 219.893 126.269 219.893C126.795 219.893 127.15 220.261 127.691 221.311L137.217 239.078C137.301 239.23 137.35 239.4 137.359 239.574C137.359 239.858 137.131 239.999 136.691 239.999H131.643C131.334 240.048 131.017 239.981 130.755 239.811C130.492 239.641 130.302 239.38 130.222 239.078L126.269 231.095L122.288 239.078C122.004 239.829 121.648 239.999 120.895 239.999Z" fill="#F4F4F4"></path><path d="M159.212 228.514C159.059 228.511 158.909 228.549 158.777 228.624C158.644 228.699 158.534 228.808 158.458 228.939L151.946 240.425L148.591 246.337L146.629 249.826C146.559 249.949 146.522 250.088 146.522 250.23C146.522 250.371 146.559 250.51 146.629 250.634L147.382 252.052C147.51 252.264 147.61 252.449 147.709 252.633C147.963 253.096 148.248 253.541 148.563 253.966C148.67 254.108 148.789 254.241 148.918 254.363L149.089 254.533C149.195 254.623 149.31 254.703 149.43 254.774C149.528 254.833 149.633 254.881 149.743 254.916H149.842C150.007 254.968 150.181 254.992 150.354 254.987C150.675 254.992 150.992 254.919 151.278 254.774C151.306 254.784 151.336 254.784 151.363 254.774C151.462 254.726 151.553 254.664 151.634 254.59C151.674 254.564 151.708 254.531 151.733 254.491L152.017 254.207L152.174 254.023C152.269 253.9 152.368 253.758 152.472 253.597L152.6 253.399L152.728 253.186V253.058L153.055 252.477L153.269 252.066L159.425 240.425L165.112 229.761C165.181 229.632 165.214 229.487 165.21 229.34C165.206 229.194 165.164 229.051 165.088 228.926C165.013 228.8 164.906 228.696 164.778 228.624C164.65 228.552 164.505 228.514 164.359 228.514H159.212Z" fill="#F4F4F4"></path><path d="M131.316 221.722L133.378 225.692C133.455 225.828 133.566 225.941 133.701 226.021C133.836 226.101 133.989 226.144 134.146 226.146H149.316C149.465 226.147 149.612 226.187 149.741 226.262C149.87 226.337 149.978 226.443 150.054 226.572C150.13 226.7 150.171 226.846 150.174 226.995C150.176 227.144 150.141 227.291 150.07 227.422L142.15 241.36C142.084 241.487 142.05 241.629 142.05 241.772C142.05 241.915 142.084 242.056 142.15 242.183L144.368 246.366C144.442 246.499 144.55 246.61 144.681 246.687C144.813 246.764 144.962 246.805 145.115 246.805C145.267 246.805 145.417 246.764 145.548 246.687C145.679 246.61 145.787 246.499 145.861 246.366L147.596 243.204L149.174 240.368L157.022 226.514C157.097 226.385 157.205 226.278 157.335 226.203C157.464 226.128 157.612 226.089 157.761 226.089H166.463C166.619 226.087 166.773 226.044 166.907 225.964C167.042 225.885 167.153 225.771 167.23 225.635L169.321 221.665C169.389 221.535 169.423 221.39 169.419 221.244C169.415 221.097 169.373 220.955 169.297 220.829C169.221 220.704 169.114 220.6 168.986 220.528C168.858 220.455 168.714 220.417 168.567 220.417H132.07C131.915 220.411 131.761 220.448 131.625 220.523C131.489 220.598 131.376 220.708 131.298 220.843C131.221 220.977 131.181 221.13 131.185 221.285C131.188 221.44 131.233 221.591 131.316 221.722V221.722Z" fill="#F4F4F4"></path><path d="M135.567 229.762L139.833 237.915C139.905 238.051 140.014 238.166 140.147 238.245C140.279 238.325 140.431 238.367 140.586 238.367C140.741 238.367 140.893 238.325 141.026 238.245C141.159 238.166 141.267 238.051 141.34 237.915L145.961 229.762C146.037 229.633 146.077 229.487 146.077 229.338C146.078 229.189 146.038 229.043 145.963 228.914C145.887 228.785 145.779 228.679 145.649 228.606C145.518 228.533 145.371 228.497 145.221 228.5H136.321C136.172 228.499 136.025 228.536 135.896 228.609C135.766 228.682 135.657 228.788 135.581 228.915C135.505 229.043 135.464 229.188 135.461 229.337C135.459 229.485 135.495 229.632 135.567 229.762V229.762Z" fill="#F4F4F4"></path><path d="M171.382 214.008H129.312C129.137 213.993 128.961 213.993 128.786 214.008C128.627 214.017 128.474 214.066 128.339 214.15C128.205 214.235 128.094 214.352 128.018 214.49C127.988 214.597 127.988 214.71 128.018 214.816C128.032 215.179 128.129 215.533 128.302 215.851L129.113 217.652C129.182 217.791 129.29 217.907 129.424 217.988C129.557 218.068 129.71 218.109 129.866 218.106H170.771C170.926 218.107 171.079 218.066 171.212 217.986C171.345 217.906 171.453 217.79 171.524 217.652L172.463 215.894C172.636 215.575 172.733 215.221 172.747 214.859C172.747 214.292 172.292 214.008 171.382 214.008Z" fill="#F4F4F4"></path><path d="M185.984 220.403H174.069C173.918 220.406 173.771 220.448 173.641 220.525C173.511 220.602 173.404 220.712 173.33 220.843L170.984 224.983C170.912 225.111 170.874 225.256 170.876 225.403C170.877 225.55 170.917 225.694 170.992 225.82C171.067 225.946 171.174 226.051 171.303 226.123C171.431 226.195 171.576 226.232 171.723 226.231H174.382C174.605 226.231 174.818 226.319 174.975 226.476C175.133 226.633 175.221 226.846 175.221 227.068V239.163C175.221 239.385 175.309 239.597 175.467 239.754C175.624 239.911 175.837 239.999 176.06 239.999H180.965C181.08 240.015 181.196 240.005 181.306 239.969C181.416 239.933 181.516 239.872 181.599 239.791C181.681 239.71 181.744 239.611 181.782 239.502C181.82 239.393 181.832 239.277 181.818 239.163V226.77C181.818 226.359 181.96 226.273 182.316 226.273H185.984C186.105 226.278 186.225 226.257 186.337 226.211C186.448 226.166 186.549 226.098 186.633 226.011C186.716 225.923 186.78 225.82 186.82 225.706C186.86 225.593 186.876 225.472 186.865 225.352V221.254C186.883 221.136 186.872 221.015 186.834 220.901C186.796 220.788 186.73 220.685 186.644 220.602C186.558 220.519 186.453 220.458 186.338 220.423C186.223 220.388 186.102 220.381 185.984 220.403V220.403Z" fill="#F4F4F4"></path><path d="M194.586 220.403C194.7 220.389 194.817 220.401 194.926 220.439C195.036 220.477 195.135 220.54 195.216 220.622C195.297 220.704 195.358 220.804 195.394 220.914C195.43 221.023 195.441 221.14 195.424 221.254V226.656C195.424 227.011 195.567 227.153 195.936 227.153H200.031C200.443 227.153 200.529 227.011 200.529 226.656V221.254C200.512 221.138 200.523 221.02 200.56 220.91C200.597 220.799 200.659 220.698 200.742 220.616C200.825 220.533 200.925 220.471 201.037 220.434C201.148 220.397 201.266 220.387 201.382 220.403H206.287C206.402 220.389 206.518 220.401 206.628 220.439C206.737 220.477 206.836 220.54 206.917 220.622C206.998 220.704 207.059 220.804 207.095 220.914C207.132 221.023 207.142 221.14 207.126 221.254V239.163C207.143 239.276 207.132 239.392 207.096 239.502C207.06 239.611 206.999 239.71 206.917 239.791C206.836 239.872 206.736 239.934 206.627 239.97C206.517 240.006 206.401 240.016 206.287 239.999H201.382C201.267 240.015 201.15 240.005 201.041 239.969C200.931 239.933 200.831 239.872 200.748 239.791C200.666 239.71 200.603 239.611 200.565 239.502C200.527 239.393 200.514 239.277 200.529 239.163V233.491C200.529 233.08 200.443 232.995 200.031 232.995H195.936C195.567 232.995 195.424 233.08 195.424 233.491V239.163C195.441 239.276 195.431 239.392 195.395 239.502C195.359 239.611 195.297 239.71 195.216 239.791C195.134 239.872 195.035 239.934 194.925 239.97C194.816 240.006 194.7 240.016 194.586 239.999H189.666C189.552 240.016 189.436 240.006 189.326 239.97C189.217 239.934 189.118 239.872 189.036 239.791C188.955 239.71 188.893 239.611 188.857 239.502C188.821 239.392 188.811 239.276 188.827 239.163V221.254C188.811 221.14 188.822 221.023 188.858 220.914C188.894 220.804 188.955 220.704 189.036 220.622C189.117 220.54 189.216 220.477 189.326 220.439C189.435 220.401 189.551 220.389 189.666 220.403H194.586Z" fill="#F4F4F4"></path><path d="M214.093 239.999H209.23C208.789 239.999 208.562 239.858 208.562 239.574C208.571 239.4 208.619 239.23 208.704 239.078L218.102 221.311C218.656 220.219 218.998 219.893 219.524 219.893C220.05 219.893 220.391 220.261 220.946 221.311L230.358 239.078C230.43 239.234 230.474 239.402 230.486 239.574C230.486 239.858 230.272 239.999 229.817 239.999H224.77C224.002 239.999 223.732 239.829 223.348 239.078L219.367 231.095L215.401 239.078C215.13 239.829 214.846 239.999 214.093 239.999Z" fill="#F4F4F4"></path><path d="M237.751 220.403C237.866 220.389 237.982 220.401 238.092 220.439C238.201 220.477 238.3 220.54 238.381 220.622C238.462 220.704 238.523 220.804 238.559 220.914C238.596 221.023 238.606 221.14 238.59 221.254V239.163C238.607 239.276 238.596 239.392 238.56 239.501C238.524 239.611 238.463 239.71 238.381 239.791C238.3 239.872 238.2 239.933 238.091 239.97C237.981 240.006 237.865 240.016 237.751 239.999H232.903C232.789 240.016 232.672 240.006 232.563 239.97C232.453 239.933 232.354 239.872 232.273 239.791C232.191 239.71 232.13 239.611 232.094 239.501C232.057 239.392 232.047 239.276 232.064 239.163V221.254C232.048 221.14 232.058 221.023 232.094 220.914C232.131 220.804 232.192 220.704 232.273 220.622C232.354 220.54 232.453 220.477 232.562 220.439C232.671 220.401 232.788 220.389 232.903 220.403H237.751Z" fill="#F4F4F4"></path><path d="M178.178 243.232H177.778C177.755 243.117 177.713 243.016 177.654 242.929C177.596 242.842 177.525 242.769 177.441 242.71C177.359 242.65 177.267 242.605 177.166 242.575C177.065 242.544 176.959 242.529 176.85 242.529C176.65 242.529 176.469 242.58 176.306 242.681C176.145 242.782 176.017 242.931 175.921 243.128C175.827 243.324 175.779 243.566 175.779 243.851C175.779 244.137 175.827 244.379 175.921 244.575C176.017 244.772 176.145 244.921 176.306 245.022C176.469 245.123 176.65 245.173 176.85 245.173C176.959 245.173 177.065 245.158 177.166 245.128C177.267 245.098 177.359 245.054 177.441 244.994C177.525 244.934 177.596 244.861 177.654 244.774C177.713 244.685 177.755 244.584 177.778 244.471H178.178C178.148 244.639 178.093 244.79 178.014 244.924C177.934 245.057 177.835 245.17 177.717 245.264C177.599 245.356 177.466 245.427 177.319 245.475C177.173 245.523 177.016 245.547 176.85 245.547C176.568 245.547 176.318 245.479 176.098 245.341C175.879 245.204 175.707 245.008 175.581 244.754C175.455 244.501 175.392 244.2 175.392 243.851C175.392 243.503 175.455 243.202 175.581 242.949C175.707 242.695 175.879 242.499 176.098 242.362C176.318 242.224 176.568 242.155 176.85 242.155C177.016 242.155 177.173 242.18 177.319 242.228C177.466 242.276 177.599 242.347 177.717 242.441C177.835 242.533 177.934 242.646 178.014 242.779C178.093 242.911 178.148 243.062 178.178 243.232ZM181.61 243.851C181.61 244.2 181.547 244.501 181.422 244.754C181.296 245.008 181.123 245.204 180.904 245.341C180.685 245.479 180.434 245.547 180.153 245.547C179.871 245.547 179.621 245.479 179.401 245.341C179.182 245.204 179.01 245.008 178.884 244.754C178.758 244.501 178.695 244.2 178.695 243.851C178.695 243.503 178.758 243.202 178.884 242.949C179.01 242.695 179.182 242.499 179.401 242.362C179.621 242.224 179.871 242.155 180.153 242.155C180.434 242.155 180.685 242.224 180.904 242.362C181.123 242.499 181.296 242.695 181.422 242.949C181.547 243.202 181.61 243.503 181.61 243.851ZM181.223 243.851C181.223 243.566 181.175 243.324 181.08 243.128C180.985 242.931 180.857 242.782 180.694 242.681C180.533 242.58 180.353 242.529 180.153 242.529C179.953 242.529 179.772 242.58 179.609 242.681C179.448 242.782 179.32 242.931 179.224 243.128C179.13 243.324 179.082 243.566 179.082 243.851C179.082 244.137 179.13 244.379 179.224 244.575C179.32 244.772 179.448 244.921 179.609 245.022C179.772 245.123 179.953 245.173 180.153 245.173C180.353 245.173 180.533 245.123 180.694 245.022C180.857 244.921 180.985 244.772 181.08 244.575C181.175 244.379 181.223 244.137 181.223 243.851ZM182.283 242.201H182.76L183.882 244.941H183.921L185.043 242.201H185.52V245.502H185.146V242.994H185.114L184.082 245.502H183.721L182.689 242.994H182.657V245.502H182.283V242.201ZM186.322 245.502V242.201H187.437C187.696 242.201 187.908 242.247 188.072 242.341C188.238 242.433 188.36 242.558 188.44 242.716C188.52 242.874 188.559 243.051 188.559 243.245C188.559 243.44 188.52 243.617 188.44 243.776C188.362 243.935 188.24 244.062 188.076 244.156C187.911 244.25 187.701 244.296 187.444 244.296H186.644V243.942H187.431C187.608 243.942 187.75 243.911 187.858 243.85C187.965 243.789 188.043 243.706 188.092 243.602C188.141 243.496 188.166 243.377 188.166 243.245C188.166 243.113 188.141 242.995 188.092 242.891C188.043 242.786 187.965 242.705 187.856 242.645C187.748 242.585 187.604 242.555 187.424 242.555H186.721V245.502H186.322ZM189.002 245.502H188.583L189.795 242.201H190.208L191.42 245.502H191.001L190.014 242.723H189.989L189.002 245.502ZM189.157 244.213H190.846V244.567H189.157V244.213ZM194.553 242.201V245.502H194.166L192.367 242.91H192.334V245.502H191.934V242.201H192.321L194.127 244.799H194.159V242.201H194.553ZM195.069 242.201H195.527L196.443 243.742H196.481L197.397 242.201H197.855L196.662 244.142V245.502H196.262V244.142L195.069 242.201ZM199.649 245.502V242.201H200.049V245.148H201.584V245.502H199.649ZM202.602 242.201V245.502H202.203V242.201H202.602ZM203.404 242.201H203.881L205.003 244.941H205.042L206.164 242.201H206.641V245.502H206.267V242.994H206.235L205.203 245.502H204.842L203.81 242.994H203.778V245.502H203.404V242.201ZM207.843 242.201V245.502H207.443V242.201H207.843ZM208.464 242.555V242.201H210.94V242.555H209.902V245.502H209.502V242.555H208.464ZM211.558 245.502V242.201H213.55V242.555H211.957V243.671H213.447V244.026H211.957V245.148H213.576V245.502H211.558ZM215.29 245.502H214.271V242.201H215.335C215.655 242.201 215.929 242.267 216.157 242.399C216.385 242.53 216.56 242.719 216.681 242.965C216.803 243.21 216.863 243.503 216.863 243.845C216.863 244.189 216.802 244.485 216.68 244.733C216.557 244.98 216.379 245.171 216.144 245.304C215.91 245.436 215.625 245.502 215.29 245.502ZM214.671 245.148H215.264C215.537 245.148 215.763 245.095 215.943 244.99C216.122 244.884 216.256 244.734 216.344 244.54C216.432 244.345 216.476 244.114 216.476 243.845C216.476 243.578 216.433 243.349 216.346 243.157C216.259 242.963 216.129 242.815 215.956 242.712C215.783 242.607 215.567 242.555 215.309 242.555H214.671V245.148Z" fill="#F4F4F4"></path></svg>