<svg width="340" height="73" viewBox="0 0 340 73" fill="none" xmlns="http://www.w3.org/2000/svg">
<path d="M0.717896 8.48668C0.717896 4.0684 4.29962 0.486694 8.7179 0.486694H281.614C286.032 0.486694 289.614 4.06842 289.614 8.48669V64.4138C289.614 68.8321 286.032 72.4138 281.614 72.4138H8.7179C4.29962 72.4138 0.717896 68.8321 0.717896 64.4138V8.48668Z" fill="#15668F"/>
<path d="M76.562 0.486694H339.391V72.4138H76.562V0.486694Z" fill="#013047"/>
<path d="M97.7825 48.0997V31.2997H110.455V33.3397H100.159V38.1397H105.391C107.391 38.1397 108.911 38.5557 109.951 39.3877C110.991 40.2197 111.511 41.4277 111.511 43.0117C111.511 44.6437 110.943 45.8997 109.807 46.7797C108.687 47.6597 107.079 48.0997 104.983 48.0997H97.7825ZM100.159 46.2037H104.887C106.279 46.2037 107.327 45.9397 108.031 45.4117C108.751 44.8837 109.111 44.0997 109.111 43.0597C109.111 41.0437 107.703 40.0357 104.887 40.0357H100.159V46.2037ZM112.537 48.0757L112.681 46.1317C112.793 46.1477 112.897 46.1637 112.993 46.1797C113.089 46.1957 113.177 46.2037 113.257 46.2037C113.769 46.2037 114.169 46.0277 114.457 45.6757C114.761 45.3237 114.985 44.8597 115.129 44.2837C115.273 43.6917 115.377 43.0277 115.441 42.2917C115.505 41.5557 115.553 40.8197 115.585 40.0837L115.801 35.3797H125.569V48.0997H123.265V36.7237L123.817 37.3957H117.289L117.817 36.6997L117.649 40.2277C117.601 41.3477 117.513 42.3957 117.385 43.3717C117.257 44.3477 117.057 45.2037 116.785 45.9397C116.529 46.6757 116.169 47.2517 115.705 47.6677C115.257 48.0837 114.673 48.2917 113.953 48.2917C113.745 48.2917 113.521 48.2677 113.281 48.2197C113.057 48.1877 112.809 48.1397 112.537 48.0757ZM130.024 48.0997V35.3797H132.328V44.6437L140.128 35.3797H142.216V48.0997H139.912V38.8357L132.136 48.0997H130.024ZM150.197 48.2677C151.317 48.2677 152.309 48.1077 153.173 47.7877C154.053 47.4517 154.749 46.9957 155.261 46.4197C155.773 45.8277 156.029 45.1477 156.029 44.3797C156.029 43.4197 155.621 42.6597 154.805 42.0997C153.989 41.5397 152.869 41.2597 151.445 41.2597L151.349 41.8117C152.181 41.8117 152.917 41.6757 153.557 41.4037C154.197 41.1317 154.709 40.7637 155.093 40.2997C155.477 39.8197 155.669 39.2757 155.669 38.6677C155.669 37.9477 155.413 37.3237 154.901 36.7957C154.405 36.2677 153.725 35.8677 152.861 35.5957C151.997 35.3077 151.013 35.1797 149.909 35.2117C149.173 35.2277 148.429 35.3397 147.677 35.5477C146.941 35.7397 146.189 36.0197 145.421 36.3877L146.045 38.1877C146.733 37.8517 147.405 37.6037 148.061 37.4437C148.733 37.2837 149.389 37.1957 150.029 37.1797C150.685 37.1797 151.253 37.2517 151.733 37.3957C152.229 37.5397 152.613 37.7477 152.885 38.0197C153.157 38.2917 153.293 38.6197 153.293 39.0037C153.293 39.3557 153.173 39.6677 152.933 39.9397C152.709 40.1957 152.389 40.3877 151.973 40.5157C151.557 40.6437 151.069 40.7077 150.509 40.7077H148.349V42.3637H150.653C151.597 42.3637 152.333 42.5237 152.861 42.8437C153.389 43.1637 153.653 43.6197 153.653 44.2117C153.653 44.6277 153.509 44.9957 153.221 45.3157C152.933 45.6197 152.517 45.8597 151.973 46.0357C151.445 46.2117 150.813 46.2997 150.077 46.2997C149.277 46.2997 148.485 46.1957 147.701 45.9877C146.917 45.7637 146.221 45.4597 145.613 45.0757L144.917 46.8277C145.637 47.2917 146.453 47.6517 147.365 47.9077C148.293 48.1477 149.237 48.2677 150.197 48.2677ZM168.747 48.0997L163.827 41.9077L165.723 40.7557L171.459 48.0997H168.747ZM159.531 48.0997V35.3797H161.835V48.0997H159.531ZM161.139 42.7237V40.7557H165.339V42.7237H161.139ZM165.915 42.0037L163.779 41.7157L168.651 35.3797H171.123L165.915 42.0037ZM178.901 48.2437C177.621 48.2437 176.485 47.9637 175.493 47.4037C174.501 46.8437 173.717 46.0757 173.141 45.0997C172.565 44.1077 172.277 42.9877 172.277 41.7397C172.277 40.4757 172.565 39.3557 173.141 38.3797C173.717 37.4037 174.501 36.6437 175.493 36.0997C176.485 35.5397 177.621 35.2597 178.901 35.2597C180.165 35.2597 181.293 35.5397 182.285 36.0997C183.293 36.6437 184.077 37.4037 184.637 38.3797C185.213 39.3397 185.501 40.4597 185.501 41.7397C185.501 43.0037 185.213 44.1237 184.637 45.0997C184.077 46.0757 183.293 46.8437 182.285 47.4037C181.293 47.9637 180.165 48.2437 178.901 48.2437ZM178.901 46.2277C179.717 46.2277 180.445 46.0437 181.085 45.6757C181.741 45.3077 182.253 44.7877 182.621 44.1157C182.989 43.4277 183.173 42.6357 183.173 41.7397C183.173 40.8277 182.989 40.0437 182.621 39.3877C182.253 38.7157 181.741 38.1957 181.085 37.8277C180.445 37.4597 179.717 37.2757 178.901 37.2757C178.085 37.2757 177.357 37.4597 176.717 37.8277C176.077 38.1957 175.565 38.7157 175.181 39.3877C174.797 40.0437 174.605 40.8277 174.605 41.7397C174.605 42.6357 174.797 43.4277 175.181 44.1157C175.565 44.7877 176.077 45.3077 176.717 45.6757C177.357 46.0437 178.085 46.2277 178.901 46.2277ZM204.49 48.0997L199.57 41.9077L201.466 40.7557L207.202 48.0997H204.49ZM195.274 48.0997V35.3797H197.578V48.0997H195.274ZM196.882 42.7237V40.7557H201.082V42.7237H196.882ZM201.658 42.0037L199.522 41.7157L204.394 35.3797H206.866L201.658 42.0037ZM216.063 48.0997V35.3797H218.367V46.0837H225.327V35.3797H227.631V48.0997H216.063ZM227.463 51.0517V47.9797L228.039 48.0997H225.327V46.0837H229.647V51.0517H227.463ZM238.297 48.2437C236.937 48.2437 235.737 47.9637 234.697 47.4037C233.673 46.8437 232.873 46.0757 232.297 45.0997C231.737 44.1237 231.457 43.0037 231.457 41.7397C231.457 40.4757 231.729 39.3557 232.273 38.3797C232.833 37.4037 233.593 36.6437 234.553 36.0997C235.529 35.5397 236.625 35.2597 237.841 35.2597C239.073 35.2597 240.161 35.5317 241.105 36.0757C242.049 36.6197 242.785 37.3877 243.313 38.3797C243.857 39.3557 244.129 40.4997 244.129 41.8117C244.129 41.9077 244.121 42.0197 244.105 42.1477C244.105 42.2757 244.097 42.3957 244.081 42.5077H233.257V40.8517H242.881L241.945 41.4277C241.961 40.6117 241.793 39.8837 241.441 39.2437C241.089 38.6037 240.601 38.1077 239.977 37.7557C239.369 37.3877 238.657 37.2037 237.841 37.2037C237.041 37.2037 236.329 37.3877 235.705 37.7557C235.081 38.1077 234.593 38.6117 234.241 39.2677C233.889 39.9077 233.713 40.6437 233.713 41.4757V41.8597C233.713 42.7077 233.905 43.4677 234.289 44.1397C234.689 44.7957 235.241 45.3077 235.945 45.6757C236.649 46.0437 237.457 46.2277 238.369 46.2277C239.121 46.2277 239.801 46.0997 240.409 45.8437C241.033 45.5877 241.577 45.2037 242.041 44.6917L243.313 46.1797C242.737 46.8517 242.017 47.3637 241.153 47.7157C240.305 48.0677 239.353 48.2437 238.297 48.2437ZM247.703 48.0997V35.3797H250.007V40.7797H257.255V35.3797H259.559V48.0997H257.255V42.7717H250.007V48.0997H247.703ZM266.559 48.0997V36.7957L267.135 37.3957H261.903V35.3797H273.519V37.3957H268.311L268.863 36.7957V48.0997H266.559ZM282.619 48.2437C281.563 48.2437 280.595 48.0037 279.715 47.5237C278.851 47.0277 278.155 46.2997 277.627 45.3397C277.115 44.3797 276.859 43.1797 276.859 41.7397C276.859 40.2997 277.107 39.0997 277.603 38.1397C278.115 37.1797 278.803 36.4597 279.667 35.9797C280.547 35.4997 281.531 35.2597 282.619 35.2597C283.867 35.2597 284.971 35.5317 285.931 36.0757C286.891 36.6197 287.651 37.3797 288.211 38.3557C288.771 39.3157 289.051 40.4437 289.051 41.7397C289.051 43.0357 288.771 44.1717 288.211 45.1477C287.651 46.1237 286.891 46.8837 285.931 47.4277C284.971 47.9717 283.867 48.2437 282.619 48.2437ZM275.875 52.7557V35.3797H278.083V38.8117L277.939 41.7637L278.179 44.7157V52.7557H275.875ZM282.427 46.2277C283.243 46.2277 283.971 46.0437 284.611 45.6757C285.267 45.3077 285.779 44.7877 286.147 44.1157C286.531 43.4277 286.723 42.6357 286.723 41.7397C286.723 40.8277 286.531 40.0437 286.147 39.3877C285.779 38.7157 285.267 38.1957 284.611 37.8277C283.971 37.4597 283.243 37.2757 282.427 37.2757C281.627 37.2757 280.899 37.4597 280.243 37.8277C279.603 38.1957 279.091 38.7157 278.707 39.3877C278.339 40.0437 278.155 40.8277 278.155 41.7397C278.155 42.6357 278.339 43.4277 278.707 44.1157C279.091 44.7877 279.603 45.3077 280.243 45.6757C280.899 46.0437 281.627 46.2277 282.427 46.2277ZM292.695 52.8997C292.087 52.8997 291.495 52.7957 290.919 52.5877C290.343 52.3957 289.847 52.1077 289.431 51.7237L290.415 49.9957C290.735 50.2997 291.087 50.5317 291.471 50.6917C291.855 50.8517 292.263 50.9317 292.695 50.9317C293.255 50.9317 293.719 50.7877 294.087 50.4997C294.455 50.2117 294.799 49.6997 295.119 48.9637L295.911 47.2117L296.151 46.9237L301.143 35.3797H303.399L297.231 49.3717C296.863 50.2677 296.447 50.9717 295.983 51.4837C295.535 51.9957 295.039 52.3557 294.495 52.5637C293.951 52.7877 293.351 52.8997 292.695 52.8997ZM295.719 48.5077L289.911 35.3797H292.311L297.255 46.7077L295.719 48.5077Z" fill="white"/>
<path d="M52.1243 35.453C52.1243 33.1665 50.2641 31.3063 47.9775 31.3063C45.691 31.3063 43.8308 33.1664 43.8308 35.453C43.8308 37.7396 45.691 39.5998 47.9775 39.5998C50.2641 39.5998 52.1243 37.7396 52.1243 35.453ZM45.6048 35.453C45.6048 34.1446 46.6692 33.0801 47.9777 33.0801C49.2862 33.0801 50.3506 34.1445 50.3506 35.453C50.3506 36.7615 49.2862 37.8259 47.9777 37.8259C46.6692 37.8259 45.6048 36.7615 45.6048 35.453Z" fill="white"/>
<path d="M59.691 13.0846H22.3957C22.1231 13.0846 21.8552 13.1054 21.5935 13.1455C19.0644 13.533 17.1211 15.7235 17.1211 18.3591V57.8482C17.1211 60.7566 19.4873 63.1228 22.3957 63.1228H30.9716C32.1642 63.1228 33.2652 62.7245 34.1497 62.0546C34.1882 62.0294 34.2245 62 34.2595 61.9682C34.9908 61.3835 35.5635 60.6089 35.9022 59.7194H59.691C60.1808 59.7194 60.5779 59.3223 60.5779 58.8325V13.9715C60.5779 13.4817 60.1808 13.0846 59.691 13.0846ZM23.0081 21.86C23.1264 21.1445 23.4626 20.4856 23.9858 19.963C24.646 19.3019 25.5247 18.9379 26.4601 18.9379H34.4237C34.147 20.5937 32.7048 21.86 30.9716 21.86H23.0081ZM22.3957 14.8584H30.9716C31.1526 14.8584 31.3304 14.8723 31.504 14.8989C32.78 15.0943 33.8311 15.9814 34.2621 17.164H26.4601C25.0505 17.164 23.726 17.713 22.7315 18.7088C21.92 19.5192 21.4055 20.5482 21.2423 21.6639C19.8771 21.186 18.8949 19.8856 18.8949 18.3593C18.8949 16.4289 20.4655 14.8584 22.3957 14.8584ZM18.8949 22.2999C19.827 23.1288 21.0532 23.6337 22.3957 23.6337H24.1365L31.9144 31.4114L18.8949 44.4309V22.2999ZM34.4723 57.8482C34.4723 58.6907 34.1731 59.4645 33.6754 60.0692L25.7153 52.1091C25.3689 51.7627 24.8073 51.7627 24.4611 52.1091C24.1147 52.4554 24.1147 53.017 24.4611 53.3633L32.2168 61.119C31.8297 61.267 31.41 61.3488 30.9715 61.3488H22.3956C20.4654 61.3488 18.8948 59.7784 18.8948 57.8481V47.7972L21.1499 50.0524C21.3231 50.2255 21.5501 50.3122 21.777 50.3122C22.004 50.3122 22.231 50.2256 22.4041 50.0524C22.7505 49.706 22.7505 49.1444 22.4041 48.7981L19.7201 46.1141L23.7284 42.106L34.4723 52.8499V57.8482ZM34.4723 44.7813C34.4722 44.7885 34.4722 44.7956 34.4723 44.8028V50.3414L24.9826 40.8516L33.1684 32.6658L34.4722 33.9695V44.7813H34.4723ZM34.4723 31.4611L26.6449 23.6338H30.9715C32.3139 23.6338 33.5402 23.1288 34.4723 22.2999V31.4611V31.4611ZM34.9124 14.8584H44.9577L36.2462 23.5705V18.3591C36.2462 17.0167 35.7413 15.7905 34.9124 14.8584ZM42.5853 39.3718C40.6458 36.7029 40.9312 33.0726 43.2641 30.7396C44.5636 29.4401 46.2705 28.7904 47.9775 28.7904C49.6846 28.7904 51.3915 29.4402 52.691 30.7396C55.0239 33.0726 55.3094 36.7029 53.3697 39.3718L47.9775 46.7914L42.5853 39.3718ZM45.1716 45.9476L36.2463 54.872V45.1586L41.0846 40.3194C41.1068 40.3509 41.1279 40.3832 41.1506 40.4146L45.1716 45.9476ZM42.0098 29.4854C40.5899 30.9053 39.7213 32.7897 39.5639 34.7915C39.4583 36.1351 39.6789 37.476 40.1913 38.7041L36.2462 42.6499V26.0785L37.6639 24.6614L42.2549 29.2524C42.1724 29.3287 42.09 29.4052 42.0098 29.4854ZM36.2462 57.9455V57.3805L46.2274 47.4004L47.2601 48.8213C47.427 49.051 47.6937 49.1868 47.9775 49.1868C48.2614 49.1868 48.5281 49.051 48.695 48.8213L49.5129 47.696L55.6898 53.8737L51.617 57.9455H36.2462ZM58.8041 57.9455H54.1259L56.944 55.128L58.8041 56.9883V57.9455ZM58.8041 54.4795L50.5686 46.2432L54.2207 41.2181L58.8041 45.8014V54.4795V54.4795ZM58.8041 43.2929L55.2479 39.7367C56.1232 38.2505 56.5273 36.523 56.3912 34.7915C56.2338 32.7897 55.3651 30.9053 53.9452 29.4854C53.6993 29.2396 53.4407 29.0143 53.1734 28.8052L58.8041 23.1746V43.2929V43.2929ZM58.8041 20.6659L51.6258 27.8443C49.1103 26.641 46.1185 26.7523 43.6925 28.1813L38.9185 23.4073L47.4662 14.8584H58.8041V20.6659V20.6659Z" fill="white"/>
<path d="M23.2296 50.182C23.0606 50.2181 22.8979 50.2998 22.7767 50.4245C22.4308 50.7607 22.4382 51.3409 22.7767 51.678C23.1151 52.0151 23.693 52.0248 24.0302 51.678C24.3726 51.3451 24.3732 50.7575 24.0302 50.4245C23.8277 50.2159 23.5129 50.1236 23.2296 50.182C23.3443 50.1584 23.174 50.1939 23.2296 50.182Z" fill="white"/>
</svg>
