<svg width="340" height="73" viewBox="0 0 340 73" fill="none" xmlns="http://www.w3.org/2000/svg">
<path d="M0.717773 8.76453C0.717773 4.34625 4.29949 0.764525 8.71777 0.764523L281.614 0.764408C286.032 0.764406 289.614 4.34613 289.614 8.76441V64.6915C289.614 69.1098 286.032 72.6915 281.614 72.6915H8.71777C4.2995 72.6915 0.717773 69.1098 0.717773 64.6915V8.76453Z" fill="#15668F"/>
<path d="M76.5619 0.764526L339.391 0.764404V72.6915H76.5619V0.764526Z" fill="#013047"/>
<path d="M45.1532 24.006C42.5423 26.6186 38.7776 26.7509 38.049 26.7509L34.5838 26.7492V42.5521C34.5838 43.0121 34.2137 43.3839 33.7538 43.3839C33.2938 43.3839 32.922 43.0121 32.922 42.5521V21.7877C32.9145 21.6098 32.7789 17.3976 35.6643 14.5122C38.2021 11.972 41.7338 11.7748 42.7552 11.7748L47.0588 11.7764C47.5188 11.7764 47.8905 12.1491 47.8905 12.6082L47.8897 16.7288C47.8973 16.9069 48.0386 21.119 45.1532 24.006ZM46.2271 16.7638V13.44L42.7552 13.4384C42.143 13.4384 38.9798 13.5465 36.8405 15.6883C34.4791 18.0497 34.5805 21.6863 34.5822 21.7545V23.9021L43.1437 15.3415C43.4689 15.0163 43.9954 15.0163 44.3198 15.3415C44.645 15.6668 44.645 16.1925 44.3198 16.5176L35.7509 25.0858L38.0491 25.0874C38.6621 25.0874 41.8295 24.9784 43.9772 22.8292C46.3368 20.4685 46.2287 16.8329 46.2271 16.7638Z" fill="white" stroke="white"/>
<path d="M31.2567 32.5659C31.2574 32.6791 31.2359 32.7905 31.1917 32.8961C31.1859 32.9095 31.1743 32.9186 31.1684 32.931C31.1285 33.0142 31.0828 33.0941 31.0145 33.1622C30.9513 33.2255 30.8764 33.2663 30.8008 33.3045C30.7817 33.3144 30.7675 33.3311 30.7475 33.3402C30.6452 33.3826 30.5363 33.4059 30.4265 33.4059C30.4239 33.4059 30.4223 33.4051 30.4198 33.4051L26.3042 33.4042L26.1287 33.4067C25.4001 33.4067 21.6354 33.2753 19.0269 30.666C16.139 27.7798 16.2812 23.5669 16.2879 23.4238V19.265C16.2879 18.8059 16.6597 18.4332 17.1197 18.4332L21.2436 18.4341L21.4191 18.4308C22.1478 18.4308 25.9107 18.5631 28.5209 21.1723C31.4072 24.0586 31.2632 28.2715 31.2566 28.4146V32.5659H31.2567ZM27.3448 22.3483C25.1989 20.2032 22.0323 20.0943 21.4193 20.0943L17.9516 20.0968L17.9508 23.4563C17.95 23.4929 17.8411 27.1286 20.2033 29.49C22.3476 31.6352 25.5158 31.7433 26.1289 31.7433L28.4179 31.7424L19.8557 23.1802C19.5304 22.8549 19.5304 22.3292 19.8557 22.0041C20.1809 21.6789 20.7074 21.6788 21.0318 22.0041L29.5933 30.5656L29.5941 28.3788C29.5956 28.343 29.7195 24.7239 27.3448 22.3483Z" fill="white" stroke="white"/>
<path d="M18.7528 45.1598C19.6111 44.9294 20.5078 45.0475 21.2257 45.4642L30.7986 50.1239C32.2866 50.8683 33.7888 50.8683 37.0809 50.8683C40.299 50.8683 45.2124 50.0556 45.2623 50.0481C45.7156 49.9733 46.1439 50.2785 46.2188 50.731C46.2945 51.1844 45.9884 51.6127 45.5351 51.6884C45.3289 51.7233 40.438 52.5318 37.0809 52.5318C33.6275 52.5318 31.894 52.5318 30.0632 51.6161L20.4454 46.9324C20.0612 46.7103 19.612 46.6513 19.1836 46.766C18.7545 46.8816 18.3951 47.157 18.1739 47.5412C17.7148 48.3355 17.9884 49.3553 18.8052 49.8277L30.0516 56.8271C30.0749 56.8429 32.4746 58.3542 37.9127 58.3542C42.628 58.3542 49.9126 54.3401 50.0175 54.2827C50.0933 54.2452 51.8973 53.3636 55.3799 53.3636C55.8399 53.3636 56.2117 53.7362 56.2117 54.1953C56.2117 54.6544 55.8399 55.0271 55.3799 55.0271C52.3547 55.0271 50.796 55.7549 50.7927 55.7549C50.7927 55.7549 50.7927 55.7549 50.7927 55.754C50.4783 55.9287 43.0598 60.0177 37.9127 60.0177C31.9072 60.0177 29.244 58.2877 29.1558 58.2286L17.9501 51.2542C16.3623 50.3367 15.8157 48.298 16.7324 46.7094C17.1767 45.94 17.8944 45.3894 18.7528 45.1598Z" fill="white" stroke="white"/>
<path d="M62.034 56.2749C62.034 55.587 62.5938 55.0272 63.2816 55.0272C63.9695 55.0272 64.5293 55.587 64.5293 56.2749C64.5293 56.9628 63.9695 57.5225 63.2816 57.5225C62.5938 57.5225 62.034 56.9628 62.034 56.2749Z" fill="white" stroke="white"/>
<path d="M60.3705 38.3917H65.3611C65.8211 38.3917 66.1929 38.7644 66.1929 39.2235C66.1929 39.6826 65.8211 40.0552 65.3611 40.0552H60.3705C59.9114 40.0552 59.5387 40.4286 59.5387 40.8869V59.1859C59.5387 59.6443 59.9114 60.0177 60.3705 60.0177H65.3611C65.8211 60.0177 66.1929 60.3903 66.1929 60.8494C66.1929 61.3085 65.8211 61.6812 65.3611 61.6812H60.3705C58.9947 61.6812 57.8752 60.5616 57.8752 59.1858V40.887C57.8752 39.5113 58.9947 38.3917 60.3705 38.3917Z" fill="white" stroke="white"/>
<path d="M55.3799 43.3822H48.7257C47.7551 43.3822 46.1056 44.6199 44.65 45.7111C42.8251 47.0803 41.1008 48.3729 39.5763 48.3729H34.5856C33.3222 48.3729 32.695 48.9459 32.6784 48.9609C32.5162 49.1231 32.3032 49.2046 32.0903 49.2046C31.8773 49.2046 31.6644 49.1231 31.5022 48.9609C31.1771 48.6356 31.1771 48.11 31.5022 47.7848C31.612 47.675 32.6334 46.7093 34.5856 46.7093H39.5763C40.5469 46.7093 42.1963 45.4716 43.6519 44.3803C45.4768 43.0112 47.2011 41.7186 48.7257 41.7186H55.3799C55.8399 41.7186 56.2117 42.0913 56.2117 42.5504C56.2117 43.0095 55.8399 43.3822 55.3799 43.3822Z" fill="white" stroke="white"/>
<path d="M167.87 40.2917V37.0117H182.87V40.2917H167.87ZM171.47 24.5717C173.497 24.5717 175.364 24.9317 177.07 25.6517C178.777 26.3451 180.257 27.3451 181.51 28.6517C182.79 29.9317 183.777 31.4384 184.47 33.1717C185.19 34.9051 185.55 36.8117 185.55 38.8917C185.55 40.9717 185.19 42.8784 184.47 44.6117C183.777 46.3451 182.79 47.8651 181.51 49.1717C180.257 50.4517 178.777 51.4517 177.07 52.1717C175.364 52.8651 173.497 53.2117 171.47 53.2117C169.23 53.2117 167.164 52.8384 165.27 52.0917C163.404 51.3451 161.83 50.2517 160.55 48.8117L163.07 46.2917C164.19 47.4384 165.43 48.2784 166.79 48.8117C168.177 49.3451 169.67 49.6117 171.27 49.6117C172.737 49.6117 174.097 49.3451 175.35 48.8117C176.604 48.2784 177.684 47.5451 178.59 46.6117C179.524 45.6517 180.244 44.5184 180.75 43.2117C181.257 41.8784 181.51 40.4384 181.51 38.8917C181.51 37.3451 181.257 35.9184 180.75 34.6117C180.244 33.2784 179.524 32.1451 178.59 31.2117C177.684 30.2517 176.604 29.5051 175.35 28.9717C174.097 28.4384 172.737 28.1717 171.27 28.1717C169.67 28.1717 168.177 28.4384 166.79 28.9717C165.43 29.5051 164.19 30.3451 163.07 31.4917L160.55 28.9717C161.83 27.5317 163.404 26.4384 165.27 25.6917C167.164 24.9451 169.23 24.5717 171.47 24.5717ZM210.872 52.8917L200.712 39.0917L203.952 37.0917L215.432 52.8917H210.872ZM192.032 52.8917V24.8917H195.952V52.8917H192.032ZM194.752 40.5717V37.0517H203.832V40.5717H194.752ZM204.312 39.3317L200.632 38.7717L210.672 24.8917H214.952L204.312 39.3317ZM232.053 53.2117C229.92 53.2117 227.933 52.8517 226.093 52.1317C224.28 51.4117 222.707 50.4117 221.373 49.1317C220.04 47.8251 219 46.3051 218.253 44.5717C217.507 42.8384 217.133 40.9451 217.133 38.8917C217.133 36.8384 217.507 34.9451 218.253 33.2117C219 31.4784 220.04 29.9717 221.373 28.6917C222.707 27.3851 224.28 26.3717 226.093 25.6517C227.907 24.9317 229.893 24.5717 232.053 24.5717C234.187 24.5717 236.147 24.9317 237.933 25.6517C239.747 26.3451 241.32 27.3451 242.653 28.6517C244.013 29.9317 245.053 31.4384 245.773 33.1717C246.52 34.9051 246.893 36.8117 246.893 38.8917C246.893 40.9717 246.52 42.8784 245.773 44.6117C245.053 46.3451 244.013 47.8651 242.653 49.1717C241.32 50.4517 239.747 51.4517 237.933 52.1717C236.147 52.8651 234.187 53.2117 232.053 53.2117ZM232.053 49.6517C233.6 49.6517 235.027 49.3851 236.333 48.8517C237.667 48.3184 238.813 47.5717 239.773 46.6117C240.76 45.6251 241.52 44.4784 242.053 43.1717C242.613 41.8651 242.893 40.4384 242.893 38.8917C242.893 37.3451 242.613 35.9184 242.053 34.6117C241.52 33.3051 240.76 32.1717 239.773 31.2117C238.813 30.2251 237.667 29.4651 236.333 28.9317C235.027 28.3984 233.6 28.1317 232.053 28.1317C230.48 28.1317 229.027 28.3984 227.693 28.9317C226.387 29.4651 225.24 30.2251 224.253 31.2117C223.267 32.1717 222.493 33.3051 221.933 34.6117C221.4 35.9184 221.133 37.3451 221.133 38.8917C221.133 40.4384 221.4 41.8651 221.933 43.1717C222.493 44.4784 223.267 45.6251 224.253 46.6117C225.24 47.5717 226.387 48.3184 227.693 48.8517C229.027 49.3851 230.48 49.6517 232.053 49.6517Z" fill="white"/>
</svg>
