<svg width="340" height="73" viewBox="0 0 340 73" fill="none" xmlns="http://www.w3.org/2000/svg">
<path d="M0.717896 8.55602C0.717896 4.13774 4.29962 0.55603 8.7179 0.55603H281.614C286.032 0.55603 289.614 4.13775 289.614 8.55603V64.4832C289.614 68.9014 286.032 72.4832 281.614 72.4832H8.7179C4.29962 72.4832 0.717896 68.9014 0.717896 64.4832V8.55602Z" fill="#15668F"/>
<path d="M76.562 0.55603H339.391V72.4832H76.562V0.55603Z" fill="#013047"/>
<path d="M12.664 56.5352C12.8088 56.6178 12.965 56.6571 13.1193 56.6571C13.4596 56.6571 13.7895 56.4668 13.9629 56.1296L26.4506 31.9131C26.4775 31.8546 27.1217 30.4782 28.459 30.4782C28.6489 30.4782 28.8627 30.5789 29.0736 30.7148L20.9106 46.0978C20.6527 46.5842 20.8195 47.1973 21.2815 47.4682C21.4292 47.5538 21.5893 47.5951 21.7474 47.5951C22.0839 47.5951 22.4099 47.4087 22.5863 47.0785L30.6248 31.9279L33.636 34.3042C34.0175 34.6063 34.5515 34.565 34.889 34.2105L39.9633 28.8811L43.1202 32.1967C43.4951 32.5905 44.101 32.5905 44.4757 32.1967L47.3518 29.1761C47.7267 28.7823 47.7267 28.146 47.3518 27.7523C46.9769 27.3587 46.371 27.3586 45.9962 27.7523L43.798 30.0611L40.6411 26.7455C40.2662 26.3518 39.6603 26.3518 39.2855 26.7455L34.1211 32.1696L30.9689 29.6866L30.8577 29.594C30.3534 29.1711 29.5089 28.4643 28.4592 28.4643C25.8832 28.4643 24.7596 30.9574 24.7404 31.0057L12.2776 55.1709C12.0245 55.6592 12.1981 56.2703 12.664 56.5352Z" fill="white" stroke="white"/>
<path d="M24.6245 58.6708H13.1204C12.5912 58.6708 12.1617 59.1219 12.1617 59.6776C12.1617 60.2334 12.5912 60.6845 13.1204 60.6845H24.6245C25.1537 60.6845 25.5832 60.2334 25.5832 59.6776C25.5832 59.1219 25.1537 58.6708 24.6245 58.6708Z" fill="white" stroke="white"/>
<path d="M31.6284 27.8563C32.0943 28.1211 32.6752 27.9378 32.9274 27.4485L38.9134 15.8029C38.9403 15.7445 39.5845 14.3681 40.9218 14.3681C42.2592 14.3681 42.9034 15.7445 42.9562 15.8573L59.1674 47.0737C59.3419 47.409 59.6707 47.5983 60.0101 47.5983C60.1654 47.5983 60.3227 47.559 60.4684 47.4754C60.9334 47.2086 61.1049 46.5974 60.8509 46.1091L56.4745 37.6834C56.7103 37.5808 56.9596 37.5264 57.2194 37.5264C58.5567 37.5264 59.2009 38.9028 59.248 39.0034L67.8761 56.1214C68.0486 56.4628 68.3804 56.6571 68.7245 56.6571C68.876 56.6571 69.0294 56.6198 69.1722 56.5403C69.64 56.2796 69.8183 55.6703 69.571 55.179L60.966 38.1113C60.919 38.0056 59.7954 35.5125 57.2195 35.5125C56.6356 35.5125 56.0796 35.6624 55.56 35.9223L44.6684 14.9531C44.6214 14.8473 43.4979 12.3542 40.9219 12.3542C38.345 12.3542 37.2224 14.8473 37.2023 14.8967L31.2403 26.4919C30.989 26.9803 31.1625 27.5914 31.6284 27.8563Z" fill="white" stroke="white"/>
<path d="M62.9715 58.6707H52.426V56.6569H54.3434H54.3626C54.8917 56.6569 55.3212 56.2058 55.3212 55.6501C55.3212 55.4557 55.2686 55.2745 55.1785 55.1215L52.3657 47.2416C52.2248 46.8489 51.8672 46.5881 51.4674 46.5881C51.0675 46.5881 50.71 46.8489 50.569 47.2416L47.693 55.2967C47.5837 55.6058 47.624 55.9521 47.8032 56.224C47.9825 56.4948 48.2768 56.6569 48.5912 56.6569H50.5086V58.6707H46.6739V55.6501C46.6739 55.0943 46.2444 54.6432 45.7153 54.6432H44.2227L45.7316 50.4163L45.9405 50.9802C46.1332 51.4988 46.6883 51.7545 47.1811 51.5542C47.6748 51.3527 47.9193 50.7688 47.7275 50.2513L46.6088 47.2306C46.465 46.843 46.1103 46.5883 45.7153 46.5883H45.7096C45.3117 46.5903 44.957 46.851 44.817 47.2417L41.941 55.2968C41.8316 55.606 41.872 55.9523 42.0512 56.2241C42.2305 56.4949 42.5247 56.657 42.8391 56.657H44.7565V58.6708H29.4177V56.657H31.3351H31.3543C31.8835 56.657 32.313 56.206 32.313 55.6502C32.313 55.4559 32.2603 55.2746 32.1702 55.1216L29.3574 47.2417C29.2165 46.849 28.8589 46.5883 28.4591 46.5883C28.0594 46.5883 27.7018 46.849 27.5608 47.2417L24.6858 55.2968C24.5756 55.606 24.6158 55.9523 24.7951 56.2241C24.9744 56.4949 25.2686 56.657 25.5831 56.657H27.5005V59.6777C27.5005 60.2334 27.93 60.6845 28.4591 60.6845H62.9715C63.5006 60.6845 63.9301 60.2334 63.9301 59.6777C63.9301 59.1219 63.5007 58.6707 62.9715 58.6707ZM26.9665 54.6432L28.4591 50.4627L29.9517 54.6432H26.9665ZM49.9747 54.6432L51.4674 50.4627L52.96 54.6432H49.9747Z" fill="white" stroke="white"/>
<path d="M68.7237 58.6709H66.8063C66.2772 58.6709 65.8477 59.122 65.8477 59.6777C65.8477 60.2335 66.2772 60.6846 66.8063 60.6846H68.7237C69.2528 60.6846 69.6823 60.2335 69.6823 59.6777C69.6823 59.122 69.2529 58.6709 68.7237 58.6709Z" fill="white" stroke="white"/>
<path d="M105.964 46.5881V24.1881H115.596C118.028 24.1881 119.938 24.6788 121.324 25.6601C122.711 26.6415 123.404 28.0708 123.404 29.9481C123.404 31.7828 122.743 33.1908 121.42 34.1721C120.098 35.1321 118.359 35.6121 116.204 35.6121L116.78 34.6521C119.276 34.6521 121.186 35.1535 122.508 36.1561C123.852 37.1375 124.524 38.5775 124.524 40.4761C124.524 42.3961 123.82 43.9001 122.412 44.9881C121.026 46.0548 118.956 46.5881 116.204 46.5881H105.964ZM109.132 44.0601H116.14C117.847 44.0601 119.127 43.7508 119.98 43.1321C120.855 42.4921 121.292 41.5215 121.292 40.2201C121.292 38.9188 120.855 37.9695 119.98 37.3721C119.127 36.7748 117.847 36.4761 116.14 36.4761H109.132V44.0601ZM109.132 34.0441H115.372C116.93 34.0441 118.114 33.7348 118.924 33.1161C119.756 32.4975 120.172 31.5908 120.172 30.3961C120.172 29.1801 119.756 28.2628 118.924 27.6441C118.114 27.0255 116.93 26.7161 115.372 26.7161H109.132V34.0441ZM129.359 46.5881V29.6281H132.431V41.9801L142.831 29.6281H145.615V46.5881H142.543V34.2361L132.175 46.5881H129.359ZM163.161 45.1481V32.3161H155.801L155.641 35.5801C155.599 36.6468 155.524 37.6815 155.417 38.6841C155.332 39.6655 155.183 40.5721 154.969 41.4041C154.777 42.2361 154.489 42.9188 154.105 43.4521C153.721 43.9855 153.209 44.3161 152.569 44.4441L149.529 43.9001C150.191 43.9215 150.724 43.7081 151.129 43.2601C151.535 42.7908 151.844 42.1508 152.057 41.3401C152.292 40.5295 152.463 39.6121 152.569 38.5881C152.676 37.5428 152.761 36.4655 152.825 35.3561L153.081 29.6281H166.233V45.1481H163.161ZM148.857 50.5241V43.9001H168.825V50.5241H165.945V46.5881H151.769V50.5241H148.857ZM181.421 46.5881V29.6281H184.493V36.8281H194.157V29.6281H197.229V46.5881H194.157V39.4841H184.493V46.5881H181.421ZM213.602 46.5881V43.0041L213.442 42.3321V36.2201C213.442 34.9188 213.058 33.9161 212.29 33.2121C211.544 32.4868 210.413 32.1241 208.898 32.1241C207.896 32.1241 206.914 32.2948 205.954 32.6361C204.994 32.9561 204.184 33.3935 203.522 33.9481L202.242 31.6441C203.117 30.9401 204.162 30.4068 205.378 30.0441C206.616 29.6601 207.906 29.4681 209.25 29.4681C211.576 29.4681 213.368 30.0335 214.626 31.1641C215.885 32.2948 216.514 34.0228 216.514 36.3481V46.5881H213.602ZM208.034 46.7801C206.776 46.7801 205.666 46.5668 204.706 46.1401C203.768 45.7135 203.042 45.1268 202.53 44.3801C202.018 43.6121 201.762 42.7481 201.762 41.7881C201.762 40.8708 201.976 40.0388 202.402 39.2921C202.85 38.5455 203.565 37.9481 204.546 37.5001C205.549 37.0521 206.893 36.8281 208.578 36.8281H213.954V39.0361H208.706C207.17 39.0361 206.136 39.2921 205.602 39.8041C205.069 40.3161 204.802 40.9348 204.802 41.6601C204.802 42.4921 205.133 43.1641 205.794 43.6761C206.456 44.1668 207.373 44.4121 208.546 44.4121C209.698 44.4121 210.701 44.1561 211.554 43.6441C212.429 43.1321 213.058 42.3855 213.442 41.4041L214.05 43.5161C213.645 44.5188 212.93 45.3188 211.906 45.9161C210.882 46.4921 209.592 46.7801 208.034 46.7801ZM230.64 46.5881V29.6281H243.12V32.3161H232.976L233.712 31.6121V46.5881H230.64ZM252.779 46.7801C251.072 46.7801 249.557 46.4068 248.235 45.6601C246.912 44.9135 245.867 43.8895 245.099 42.5881C244.331 41.2655 243.947 39.7721 243.947 38.1081C243.947 36.4228 244.331 34.9295 245.099 33.6281C245.867 32.3268 246.912 31.3135 248.235 30.5881C249.557 29.8415 251.072 29.4681 252.779 29.4681C254.464 29.4681 255.968 29.8415 257.291 30.5881C258.635 31.3135 259.68 32.3268 260.427 33.6281C261.195 34.9081 261.579 36.4015 261.579 38.1081C261.579 39.7935 261.195 41.2868 260.427 42.5881C259.68 43.8895 258.635 44.9135 257.291 45.6601C255.968 46.4068 254.464 46.7801 252.779 46.7801ZM252.779 44.0921C253.867 44.0921 254.837 43.8468 255.691 43.3561C256.565 42.8655 257.248 42.1721 257.739 41.2761C258.229 40.3588 258.475 39.3028 258.475 38.1081C258.475 36.8921 258.229 35.8468 257.739 34.9721C257.248 34.0761 256.565 33.3828 255.691 32.8921C254.837 32.4015 253.867 32.1561 252.779 32.1561C251.691 32.1561 250.72 32.4015 249.867 32.8921C249.013 33.3828 248.331 34.0761 247.819 34.9721C247.307 35.8468 247.051 36.8921 247.051 38.1081C247.051 39.3028 247.307 40.3588 247.819 41.2761C248.331 42.1721 249.013 42.8655 249.867 43.3561C250.72 43.8468 251.691 44.0921 252.779 44.0921ZM275.007 46.7801C273.599 46.7801 272.308 46.4601 271.135 45.8201C269.983 45.1588 269.055 44.1881 268.351 42.9081C267.668 41.6281 267.327 40.0281 267.327 38.1081C267.327 36.1881 267.657 34.5881 268.319 33.3081C269.001 32.0281 269.919 31.0681 271.071 30.4281C272.244 29.7881 273.556 29.4681 275.007 29.4681C276.671 29.4681 278.143 29.8308 279.423 30.5561C280.703 31.2815 281.716 32.2948 282.463 33.5961C283.209 34.8761 283.583 36.3801 283.583 38.1081C283.583 39.8361 283.209 41.3508 282.463 42.6521C281.716 43.9535 280.703 44.9668 279.423 45.6921C278.143 46.4175 276.671 46.7801 275.007 46.7801ZM266.015 52.7961V29.6281H268.959V34.2041L268.767 38.1401L269.087 42.0761V52.7961H266.015ZM274.751 44.0921C275.839 44.0921 276.809 43.8468 277.663 43.3561C278.537 42.8655 279.22 42.1721 279.711 41.2761C280.223 40.3588 280.479 39.3028 280.479 38.1081C280.479 36.8921 280.223 35.8468 279.711 34.9721C279.22 34.0761 278.537 33.3828 277.663 32.8921C276.809 32.4015 275.839 32.1561 274.751 32.1561C273.684 32.1561 272.713 32.4015 271.839 32.8921C270.985 33.3828 270.303 34.0761 269.791 34.9721C269.3 35.8468 269.055 36.8921 269.055 38.1081C269.055 39.3028 269.3 40.3588 269.791 41.2761C270.303 42.1721 270.985 42.8655 271.839 43.3561C272.713 43.8468 273.684 44.0921 274.751 44.0921ZM304.814 46.5881V29.6281H307.886V46.5881H304.814ZM295.694 35.3881C297.849 35.4095 299.481 35.9001 300.59 36.8601C301.721 37.8201 302.286 39.1748 302.286 40.9241C302.286 42.7588 301.667 44.1775 300.43 45.1801C299.214 46.1615 297.465 46.6415 295.182 46.6201L288.046 46.5881V29.6281H291.118V35.3561L295.694 35.3881ZM294.958 44.2841C296.323 44.3055 297.369 44.0281 298.094 43.4521C298.819 42.8761 299.182 42.0228 299.182 40.8921C299.182 39.7828 298.819 38.9721 298.094 38.4601C297.39 37.9481 296.345 37.6815 294.958 37.6601L291.118 37.5961V44.2521L294.958 44.2841Z" fill="white"/>
</svg>
