<svg width="340" height="73" viewBox="0 0 340 73" fill="none" xmlns="http://www.w3.org/2000/svg">
<path d="M0.717651 8.69518C0.717651 4.2769 4.29937 0.69519 8.71765 0.69519H281.614C286.032 0.69519 289.614 4.27691 289.614 8.69519V64.6223C289.614 69.0406 286.032 72.6223 281.614 72.6223H8.71765C4.29937 72.6223 0.717651 69.0406 0.717651 64.6223V8.69518Z" fill="#15668F"/>
<path d="M76.5618 0.69519H339.39V72.6223H76.5618V0.69519Z" fill="#013047"/>
<path d="M67.4893 25.0912L54.3546 12.4934C54.1911 12.3384 53.9742 12.0692 53.7492 12.0692H25.3783C25.1533 12.0692 24.9364 12.3384 24.7729 12.4934L11.6383 24.9997C11.3087 25.3112 11.2696 25.8683 11.548 26.2263C11.733 26.4646 38.7127 61.236 38.9135 61.4613C39.0037 61.5626 39.1253 61.6566 39.2156 61.6958C39.4592 61.8021 39.6631 61.8101 39.9119 61.7015C40.0023 61.6623 40.1238 61.5827 40.214 61.4813C40.2274 61.4664 40.2473 61.4615 40.2596 61.4456L67.5796 26.2714C67.858 25.9133 67.8189 25.4028 67.4893 25.0912ZM25.1347 14.3936L29.5363 24.4073H14.5406L25.1347 14.3936ZM32.5836 24.4073L39.5637 14.4825L46.544 24.4073H32.5836ZM47.2479 26.1699L39.5637 56.9066L31.8797 26.1699H47.2479V26.1699ZM41.2609 13.8318H52.3143L48.063 23.5036L41.2609 13.8318ZM31.0646 23.5036L26.8132 13.8318H37.8666L31.0646 23.5036ZM30.0627 26.1699L37.6943 56.6963L13.9847 26.1699H30.0627ZM49.0648 26.1699H65.1428L41.4332 56.6963L49.0648 26.1699ZM49.5912 24.4073L53.9928 14.3936L64.587 24.4073H49.5912Z" fill="white" stroke="white"/>
<path d="M109.836 51.0692V23.0692H133.956V51.0692H130.036V25.5092L130.996 26.5492H112.796L113.796 25.5092V51.0692H109.836ZM153.288 51.3092C151.528 51.3092 149.914 50.9092 148.448 50.1092C147.008 49.2825 145.848 48.0692 144.968 46.4692C144.114 44.8692 143.688 42.8692 143.688 40.4692C143.688 38.0692 144.101 36.0692 144.928 34.4692C145.781 32.8692 146.928 31.6692 148.368 30.8692C149.834 30.0692 151.474 29.6692 153.288 29.6692C155.368 29.6692 157.208 30.1225 158.808 31.0292C160.408 31.9359 161.674 33.2025 162.608 34.8292C163.541 36.4292 164.008 38.3092 164.008 40.4692C164.008 42.6292 163.541 44.5225 162.608 46.1492C161.674 47.7759 160.408 49.0425 158.808 49.9492C157.208 50.8559 155.368 51.3092 153.288 51.3092ZM142.048 58.8292V29.8692H145.728V35.5892L145.488 40.5092L145.888 45.4292V58.8292H142.048ZM152.968 47.9492C154.328 47.9492 155.541 47.6425 156.608 47.0292C157.701 46.4159 158.554 45.5492 159.168 44.4292C159.808 43.2825 160.128 41.9625 160.128 40.4692C160.128 38.9492 159.808 37.6425 159.168 36.5492C158.554 35.4292 157.701 34.5625 156.608 33.9492C155.541 33.3359 154.328 33.0292 152.968 33.0292C151.634 33.0292 150.421 33.3359 149.328 33.9492C148.261 34.5625 147.408 35.4292 146.768 36.5492C146.154 37.6425 145.848 38.9492 145.848 40.4692C145.848 41.9625 146.154 43.2825 146.768 44.4292C147.408 45.5492 148.261 46.4159 149.328 47.0292C150.421 47.6425 151.634 47.9492 152.968 47.9492ZM179.027 51.3092C176.76 51.3092 174.76 50.8425 173.027 49.9092C171.32 48.9759 169.987 47.6959 169.027 46.0692C168.093 44.4425 167.627 42.5759 167.627 40.4692C167.627 38.3625 168.08 36.4959 168.987 34.8692C169.92 33.2425 171.187 31.9759 172.787 31.0692C174.413 30.1359 176.24 29.6692 178.267 29.6692C180.32 29.6692 182.133 30.1225 183.707 31.0292C185.28 31.9359 186.507 33.2159 187.387 34.8692C188.293 36.4959 188.747 38.4025 188.747 40.5892C188.747 40.7492 188.733 40.9359 188.707 41.1492C188.707 41.3625 188.693 41.5625 188.667 41.7492H170.627V38.9892H186.667L185.107 39.9492C185.133 38.5892 184.853 37.3759 184.267 36.3092C183.68 35.2425 182.867 34.4159 181.827 33.8292C180.813 33.2159 179.627 32.9092 178.267 32.9092C176.933 32.9092 175.747 33.2159 174.707 33.8292C173.667 34.4159 172.853 35.2559 172.267 36.3492C171.68 37.4159 171.387 38.6425 171.387 40.0292V40.6692C171.387 42.0825 171.707 43.3492 172.347 44.4692C173.013 45.5625 173.933 46.4159 175.107 47.0292C176.28 47.6425 177.627 47.9492 179.147 47.9492C180.4 47.9492 181.533 47.7359 182.547 47.3092C183.587 46.8825 184.493 46.2425 185.267 45.3892L187.387 47.8692C186.427 48.9892 185.227 49.8425 183.787 50.4292C182.373 51.0159 180.787 51.3092 179.027 51.3092ZM194.704 51.0692V29.8692H198.664L207.784 45.5492H206.184L215.544 29.8692H219.144V51.0692H215.664V34.1892L216.304 34.5492L207.744 48.6692H206.064L197.464 34.2692L198.224 34.1092V51.0692H194.704ZM226.618 51.0692V29.8692H230.458V45.3092L243.458 29.8692H246.938V51.0692H243.098V35.6292L230.138 51.0692H226.618ZM255.472 59.0692C254.458 59.0692 253.472 58.8959 252.512 58.5492C251.552 58.2292 250.725 57.7492 250.032 57.1092L251.672 54.2292C252.205 54.7359 252.792 55.1225 253.432 55.3892C254.072 55.6559 254.752 55.7892 255.472 55.7892C256.405 55.7892 257.178 55.5492 257.792 55.0692C258.405 54.5892 258.978 53.7359 259.512 52.5092L260.832 49.5892L261.232 49.1092L269.552 29.8692H273.312L263.032 53.1892C262.418 54.6825 261.725 55.8559 260.952 56.7092C260.205 57.5625 259.378 58.1625 258.472 58.5092C257.565 58.8825 256.565 59.0692 255.472 59.0692ZM260.512 51.7492L250.832 29.8692H254.832L263.072 48.7492L260.512 51.7492ZM277.243 51.0692V29.8692H281.203L290.323 45.5492H288.723L298.083 29.8692H301.683V51.0692H298.203V34.1892L298.843 34.5492L290.283 48.6692H288.603L280.003 34.2692L280.763 34.1092V51.0692H277.243Z" fill="white"/>
</svg>
