<svg width="340" height="73" viewBox="0 0 340 73" fill="none" xmlns="http://www.w3.org/2000/svg">
<path d="M0.717651 8.6256C0.717651 4.20732 4.29937 0.62561 8.71765 0.62561H281.614C286.032 0.62561 289.614 4.20733 289.614 8.62561V64.5527C289.614 68.971 286.032 72.5527 281.614 72.5527H8.71765C4.29937 72.5527 0.717651 68.971 0.717651 64.5527V8.6256Z" fill="#15668F"/>
<path d="M76.5618 0.62561H339.39V72.5527H76.5618V0.62561Z" fill="#013047"/>
<path d="M20.4551 21.651C20.4551 24.6333 22.9104 27.0596 25.928 27.0596C28.9457 27.0596 31.401 24.6332 31.401 21.651C31.401 18.6688 28.9457 16.2424 25.928 16.2424C22.9104 16.2424 20.4551 18.6687 20.4551 21.651ZM29.8373 21.651C29.8373 23.7813 28.0837 25.5143 25.928 25.5143C23.7724 25.5143 22.0188 23.7813 22.0188 21.651C22.0188 19.5207 23.7724 17.7877 25.928 17.7877C28.0837 17.7877 29.8373 19.5208 29.8373 21.651Z" fill="white" stroke="white"/>
<path d="M23.8431 37.5426C23.2211 36.8032 22.2837 36.3315 21.2369 36.3315C20.805 36.3315 20.4551 36.6774 20.4551 37.1042C20.4551 37.531 20.8051 37.8768 21.2369 37.8768C22.2428 37.8768 23.0612 38.6857 23.0612 39.6797C23.0612 40.1065 23.4111 40.4523 23.8431 40.4523C24.275 40.4523 24.6249 40.1064 24.6249 39.6797C24.6249 38.6856 25.4434 37.8768 26.4492 37.8768C26.8812 37.8768 27.2311 37.531 27.2311 37.1042C27.2311 36.6773 26.8812 36.3315 26.4492 36.3315C25.4026 36.3315 24.465 36.8032 23.8431 37.5426Z" fill="white" stroke="white"/>
<path d="M25.9279 31.1807C28.4812 31.1807 30.8876 30.2043 32.704 28.4312C33.0113 28.1313 33.0144 27.6422 32.7108 27.3386C32.4074 27.035 31.9123 27.0321 31.6051 27.3319C30.0833 28.8174 28.0671 29.6354 25.9279 29.6354C21.4731 29.6354 17.8487 26.0537 17.8487 21.6512C17.8487 20.3443 18.175 19.0484 18.7922 17.9034C18.9952 17.5267 18.8509 17.0588 18.4697 16.8582C18.0886 16.6574 17.615 16.8002 17.412 17.1768C16.6747 18.5446 16.285 20.0918 16.285 21.6511C16.285 26.9057 20.6108 31.1807 25.9279 31.1807Z" fill="white" stroke="white"/>
<path d="M20.2151 16.0054C21.7409 14.4975 23.7698 13.667 25.928 13.667C30.3828 13.667 34.0072 17.2487 34.0072 21.6511C34.0072 22.8885 33.7288 24.074 33.1801 25.1749C32.9892 25.5576 33.1485 26.021 33.5359 26.2094C33.647 26.2635 33.7648 26.2892 33.8809 26.2892C34.1693 26.2892 34.4467 26.1306 34.5828 25.8577C35.2386 24.5426 35.571 23.1273 35.571 21.651C35.5709 16.3964 31.245 12.1216 25.9279 12.1216C23.3521 12.1216 20.9306 13.1129 19.1092 14.9128C18.8039 15.2144 18.8039 15.7037 19.1093 16.0054C19.4146 16.3073 19.9096 16.3072 20.2151 16.0054Z" fill="white" stroke="white"/>
<path d="M52.5111 17.7877H53.5536C53.9855 17.7877 54.3354 17.4418 54.3354 17.0151C54.3354 16.5883 53.9855 16.2425 53.5536 16.2425H52.5111C51.7925 16.2425 51.208 15.6648 51.208 14.9547C51.208 14.2445 51.7925 13.6669 52.5111 13.6669H62.9358C63.6544 13.6669 64.2389 14.2445 64.2389 14.9547C64.2389 15.6648 63.6544 16.2425 62.9358 16.2425H56.6028C56.1709 16.2425 55.8209 16.5883 55.8209 17.0151C55.8209 17.4418 56.1709 17.7877 56.6028 17.7877H62.9358C64.5165 17.7877 65.8026 16.5168 65.8026 14.9547C65.8027 13.3926 64.5166 12.1216 62.9359 12.1216H52.5111C50.9304 12.1216 49.6443 13.3926 49.6443 14.9547C49.6443 16.5168 50.9304 17.7877 52.5111 17.7877Z" fill="white" stroke="white"/>
<path d="M17.0669 49.7242H30.619C31.051 49.7242 31.4009 49.3784 31.4009 48.9516C31.4009 48.5247 31.051 48.179 30.619 48.179H17.0669C16.6349 48.179 16.285 48.5247 16.285 48.9516C16.285 49.3783 16.635 49.7242 17.0669 49.7242Z" fill="white" stroke="white"/>
<path d="M60.5904 56.5066C60.5904 56.0798 60.2404 55.734 59.8086 55.734H55.6386C55.2067 55.734 54.8568 56.0798 54.8568 56.5066C54.8568 56.9335 55.2067 57.2793 55.6386 57.2793H59.8086C60.2405 57.2793 60.5904 56.9334 60.5904 56.5066Z" fill="white" stroke="white"/>
<path d="M64.7679 48.179H59.8084C59.3765 48.179 59.0266 48.5247 59.0266 48.9516C59.0266 49.3784 59.3765 49.7242 59.8084 49.7242H64.7679C65.1998 49.7242 65.5497 49.3784 65.5497 48.9516C65.5497 48.5248 65.1997 48.179 64.7679 48.179Z" fill="white" stroke="white"/>
<path d="M55.5703 51.9397L57.9202 48.069C58.1613 47.672 58.1678 47.175 57.9369 46.772C57.7059 46.3689 57.2715 46.1186 56.8029 46.1186H47.0381V44.5733H54.213C54.8015 44.5733 55.3382 44.3041 55.6855 43.8345C56.0329 43.3651 56.1298 42.7779 55.9514 42.2237L49.3174 21.6194C49.0754 20.8681 48.3768 20.3633 47.579 20.3633H47.0381V20.1058C47.0381 19.6789 46.6882 19.3331 46.2563 19.3331C45.8244 19.3331 45.4745 19.679 45.4745 20.1058V20.3633H44.7436C44.1167 20.3633 43.5412 20.6754 43.2045 21.1982L29.9366 41.8026C29.5791 42.3578 29.5561 43.0611 29.8765 43.638C30.1969 44.2149 30.8098 44.5733 31.4757 44.5733H43.2592C43.6911 44.5733 44.0411 44.2274 44.0411 43.8007C44.0411 43.3739 43.691 43.028 43.2592 43.028H31.4757C31.3416 43.028 31.275 42.9443 31.2472 42.8944C31.2195 42.8445 31.1839 42.744 31.2557 42.6322L44.5236 22.0281C44.5717 21.9535 44.6539 21.9087 44.7435 21.9087H45.4744V46.1188H34.3823C33.9903 46.1188 33.6231 46.2906 33.3745 46.5901C33.126 46.8897 33.0277 47.2793 33.1045 47.659L33.8547 51.3658C34.0247 52.2055 34.777 52.8151 35.6436 52.8151H36.9608C37.3927 52.8151 37.7426 52.4692 37.7426 52.0424C37.7426 51.6157 37.3926 51.2698 36.9608 51.2698H35.6436C35.5199 51.2698 35.4123 51.1827 35.3881 51.0627L34.7002 47.664H56.3425L54.2293 51.1447C54.1824 51.2218 54.0968 51.2698 54.0058 51.2698H40.0882C39.6563 51.2698 39.3064 51.6157 39.3064 52.0424C39.3064 52.4692 39.6563 52.8151 40.0882 52.8151H54.0058C54.6429 52.815 55.2423 52.4796 55.5703 51.9397ZM47.0381 21.9086H47.579C47.6929 21.9086 47.7927 21.9808 47.8273 22.0881L54.4612 42.6924C54.4961 42.8008 54.4524 42.8831 54.4233 42.9225C54.3941 42.9619 54.3281 43.028 54.213 43.028H47.0382V21.9086H47.0381Z" fill="white" stroke="white"/>
<path d="M64.7679 59.5115H60.7467C60.3148 59.5115 59.9648 59.8574 59.9648 60.2841C59.9648 60.711 60.3148 61.0568 60.7467 61.0568H64.7679C65.1998 61.0568 65.5497 60.711 65.5497 60.2841C65.5497 59.8573 65.1997 59.5115 64.7679 59.5115Z" fill="white" stroke="white"/>
<path d="M30.6192 51.9565H21.2369C20.805 51.9565 20.4551 52.3023 20.4551 52.7292C20.4551 53.156 20.8051 53.5018 21.2369 53.5018H30.6192C31.0511 53.5018 31.401 53.156 31.401 52.7292C31.4011 52.3024 31.0511 51.9565 30.6192 51.9565Z" fill="white" stroke="white"/>
<path d="M22.2793 57.451H17.0669C16.6349 57.451 16.285 57.7968 16.285 58.2237C16.285 58.6505 16.635 58.9963 17.0669 58.9963H22.2793C22.7112 58.9963 23.0611 58.6505 23.0611 58.2237C23.0611 57.7968 22.7112 57.451 22.2793 57.451Z" fill="white" stroke="white"/>
<path d="M47.2988 59.5115H34.789C34.3571 59.5115 34.0072 59.8574 34.0072 60.2841C34.0072 60.711 34.3571 61.0568 34.789 61.0568H47.2987C47.7307 61.0568 48.0806 60.711 48.0806 60.2841C48.0807 59.8573 47.7307 59.5115 47.2988 59.5115Z" fill="white" stroke="white"/>
<path d="M52.5111 55.7338H29.5766C29.1447 55.7338 28.7948 56.0796 28.7948 56.5064C28.7948 56.9332 29.1448 57.279 29.5766 57.279H52.5112C52.9431 57.279 53.293 56.9332 53.293 56.5064C53.293 56.0797 52.943 55.7338 52.5111 55.7338Z" fill="white" stroke="white"/>
<path d="M103.464 44.8151V22.4151H113.096C115.528 22.4151 117.438 22.9057 118.824 23.8871C120.211 24.8684 120.904 26.2977 120.904 28.1751C120.904 30.0097 120.243 31.4177 118.92 32.3991C117.598 33.3591 115.859 33.8391 113.704 33.8391L114.28 32.8791C116.776 32.8791 118.686 33.3804 120.008 34.3831C121.352 35.3644 122.024 36.8044 122.024 38.7031C122.024 40.6231 121.32 42.1271 119.912 43.2151C118.526 44.2817 116.456 44.8151 113.704 44.8151H103.464ZM106.632 42.2871H113.64C115.347 42.2871 116.627 41.9777 117.48 41.3591C118.355 40.7191 118.792 39.7484 118.792 38.4471C118.792 37.1457 118.355 36.1964 117.48 35.5991C116.627 35.0017 115.347 34.7031 113.64 34.7031H106.632V42.2871ZM106.632 32.2711H112.872C114.43 32.2711 115.614 31.9617 116.424 31.3431C117.256 30.7244 117.672 29.8177 117.672 28.6231C117.672 27.4071 117.256 26.4897 116.424 25.8711C115.614 25.2524 114.43 24.9431 112.872 24.9431H106.632V32.2711ZM126.859 44.8151V27.8551H129.931V40.2071L140.331 27.8551H143.115V44.8151H140.043V32.4631L129.675 44.8151H126.859ZM160.661 43.3751V30.5431H153.301L153.141 33.8071C153.099 34.8737 153.024 35.9084 152.917 36.9111C152.832 37.8924 152.683 38.7991 152.469 39.6311C152.277 40.4631 151.989 41.1457 151.605 41.6791C151.221 42.2124 150.709 42.5431 150.069 42.6711L147.029 42.1271C147.691 42.1484 148.224 41.9351 148.629 41.4871C149.035 41.0177 149.344 40.3777 149.557 39.5671C149.792 38.7564 149.963 37.8391 150.069 36.8151C150.176 35.7697 150.261 34.6924 150.325 33.5831L150.581 27.8551H163.733V43.3751H160.661ZM146.357 48.7511V42.1271H166.325V48.7511H163.445V44.8151H149.269V48.7511H146.357ZM178.921 44.8151V27.8551H181.993V35.0551H191.657V27.8551H194.729V44.8151H191.657V37.7111H181.993V44.8151H178.921ZM211.102 44.8151V41.2311L210.942 40.5591V34.4471C210.942 33.1457 210.558 32.1431 209.79 31.4391C209.044 30.7137 207.913 30.3511 206.398 30.3511C205.396 30.3511 204.414 30.5217 203.454 30.8631C202.494 31.1831 201.684 31.6204 201.022 32.1751L199.742 29.8711C200.617 29.1671 201.662 28.6337 202.878 28.2711C204.116 27.8871 205.406 27.6951 206.75 27.6951C209.076 27.6951 210.868 28.2604 212.126 29.3911C213.385 30.5217 214.014 32.2497 214.014 34.5751V44.8151H211.102ZM205.534 45.0071C204.276 45.0071 203.166 44.7937 202.206 44.3671C201.268 43.9404 200.542 43.3537 200.03 42.6071C199.518 41.8391 199.262 40.9751 199.262 40.0151C199.262 39.0977 199.476 38.2657 199.902 37.5191C200.35 36.7724 201.065 36.1751 202.046 35.7271C203.049 35.2791 204.393 35.0551 206.078 35.0551H211.454V37.2631H206.206C204.67 37.2631 203.636 37.5191 203.102 38.0311C202.569 38.5431 202.302 39.1617 202.302 39.8871C202.302 40.7191 202.633 41.3911 203.294 41.9031C203.956 42.3937 204.873 42.6391 206.046 42.6391C207.198 42.6391 208.201 42.3831 209.054 41.8711C209.929 41.3591 210.558 40.6124 210.942 39.6311L211.55 41.7431C211.145 42.7457 210.43 43.5457 209.406 44.1431C208.382 44.7191 207.092 45.0071 205.534 45.0071ZM228.14 44.8151V27.8551H231.308L238.604 40.3991H237.324L244.812 27.8551H247.692V44.8151H244.908V31.3111L245.42 31.5991L238.572 42.8951H237.228L230.348 31.3751L230.956 31.2471V44.8151H228.14ZM260.935 45.0071C259.228 45.0071 257.714 44.6337 256.391 43.8871C255.068 43.1404 254.023 42.1164 253.255 40.8151C252.487 39.4924 252.103 37.9991 252.103 36.3351C252.103 34.6497 252.487 33.1564 253.255 31.8551C254.023 30.5537 255.068 29.5404 256.391 28.8151C257.714 28.0684 259.228 27.6951 260.935 27.6951C262.62 27.6951 264.124 28.0684 265.447 28.8151C266.791 29.5404 267.836 30.5537 268.583 31.8551C269.351 33.1351 269.735 34.6284 269.735 36.3351C269.735 38.0204 269.351 39.5137 268.583 40.8151C267.836 42.1164 266.791 43.1404 265.447 43.8871C264.124 44.6337 262.62 45.0071 260.935 45.0071ZM260.935 42.3191C262.023 42.3191 262.994 42.0737 263.847 41.5831C264.722 41.0924 265.404 40.3991 265.895 39.5031C266.386 38.5857 266.631 37.5297 266.631 36.3351C266.631 35.1191 266.386 34.0737 265.895 33.1991C265.404 32.3031 264.722 31.6097 263.847 31.1191C262.994 30.6284 262.023 30.3831 260.935 30.3831C259.847 30.3831 258.876 30.6284 258.023 31.1191C257.17 31.6097 256.487 32.3031 255.975 33.1991C255.463 34.0737 255.207 35.1191 255.207 36.3351C255.207 37.5297 255.463 38.5857 255.975 39.5031C256.487 40.3991 257.17 41.0924 258.023 41.5831C258.876 42.0737 259.847 42.3191 260.935 42.3191ZM283.163 45.0071C281.755 45.0071 280.464 44.6871 279.291 44.0471C278.139 43.3857 277.211 42.4151 276.507 41.1351C275.824 39.8551 275.483 38.2551 275.483 36.3351C275.483 34.4151 275.814 32.8151 276.475 31.5351C277.158 30.2551 278.075 29.2951 279.227 28.6551C280.4 28.0151 281.712 27.6951 283.163 27.6951C284.827 27.6951 286.299 28.0577 287.579 28.7831C288.859 29.5084 289.872 30.5217 290.619 31.8231C291.366 33.1031 291.739 34.6071 291.739 36.3351C291.739 38.0631 291.366 39.5777 290.619 40.8791C289.872 42.1804 288.859 43.1937 287.579 43.9191C286.299 44.6444 284.827 45.0071 283.163 45.0071ZM274.171 51.0231V27.8551H277.115V32.4311L276.923 36.3671L277.243 40.3031V51.0231H274.171ZM282.907 42.3191C283.995 42.3191 284.966 42.0737 285.819 41.5831C286.694 41.0924 287.376 40.3991 287.867 39.5031C288.379 38.5857 288.635 37.5297 288.635 36.3351C288.635 35.1191 288.379 34.0737 287.867 33.1991C287.376 32.3031 286.694 31.6097 285.819 31.1191C284.966 30.6284 283.995 30.3831 282.907 30.3831C281.84 30.3831 280.87 30.6284 279.995 31.1191C279.142 31.6097 278.459 32.3031 277.947 33.1991C277.456 34.0737 277.211 35.1191 277.211 36.3351C277.211 37.5297 277.456 38.5857 277.947 39.5031C278.459 40.3991 279.142 41.0924 279.995 41.5831C280.87 42.0737 281.84 42.3191 282.907 42.3191ZM303.754 45.0071C301.941 45.0071 300.341 44.6337 298.954 43.8871C297.589 43.1404 296.522 42.1164 295.754 40.8151C295.008 39.5137 294.634 38.0204 294.634 36.3351C294.634 34.6497 294.997 33.1564 295.722 31.8551C296.469 30.5537 297.482 29.5404 298.762 28.8151C300.064 28.0684 301.525 27.6951 303.146 27.6951C304.789 27.6951 306.24 28.0577 307.498 28.7831C308.757 29.5084 309.738 30.5324 310.442 31.8551C311.168 33.1564 311.53 34.6817 311.53 36.4311C311.53 36.5591 311.52 36.7084 311.498 36.8791C311.498 37.0497 311.488 37.2097 311.466 37.3591H297.034V35.1511H309.866L308.618 35.9191C308.64 34.8311 308.416 33.8604 307.946 33.0071C307.477 32.1537 306.826 31.4924 305.994 31.0231C305.184 30.5324 304.234 30.2871 303.146 30.2871C302.08 30.2871 301.13 30.5324 300.298 31.0231C299.466 31.4924 298.816 32.1644 298.346 33.0391C297.877 33.8924 297.642 34.8737 297.642 35.9831V36.4951C297.642 37.6257 297.898 38.6391 298.41 39.5351C298.944 40.4097 299.68 41.0924 300.618 41.5831C301.557 42.0737 302.634 42.3191 303.85 42.3191C304.853 42.3191 305.76 42.1484 306.57 41.8071C307.402 41.4657 308.128 40.9537 308.746 40.2711L310.442 42.2551C309.674 43.1511 308.714 43.8337 307.562 44.3031C306.432 44.7724 305.162 45.0071 303.754 45.0071Z" fill="white"/>
</svg>
