<svg width="340" height="73" viewBox="0 0 340 73" fill="none" xmlns="http://www.w3.org/2000/svg">
<path d="M0.717896 8.83361C0.717896 4.41533 4.29962 0.833618 8.7179 0.833618H281.614C286.032 0.833618 289.614 4.41534 289.614 8.83362V64.7608C289.614 69.179 286.032 72.7607 281.614 72.7607H8.7179C4.29962 72.7607 0.717896 69.179 0.717896 64.7607V8.83361Z" fill="#15668F"/>
<path d="M76.562 0.833618H339.391V72.7607H76.562V0.833618Z" fill="#013047"/>
<path d="M61.1006 29.7362C61.8059 27.8978 61.5523 25.8343 60.4223 24.2162L59.625 23.0742C59.3138 22.6288 59.1144 22.1092 59.0484 21.5716L58.8793 20.1943C58.6393 18.2423 57.4447 16.5316 55.6831 15.618L54.4404 14.9733C53.9553 14.7217 53.5344 14.353 53.223 13.9074L52.4258 12.7658C51.2958 11.1477 49.4336 10.1816 47.4442 10.1816H46.0407C45.4928 10.1816 44.9468 10.0485 44.4616 9.79689L43.2189 9.15223C41.4577 8.23857 39.3544 8.23839 37.5928 9.15223L36.3502 9.79689C35.8648 10.0485 35.3188 10.1816 34.7711 10.1816H33.3676C31.3784 10.1816 29.5159 11.1477 28.3859 12.7658L27.5888 13.9072C27.2774 14.353 26.8565 14.7215 26.3713 14.9733L25.1287 15.618C23.3673 16.5316 22.1724 18.2423 21.9325 20.1945L21.7633 21.5714C21.6973 22.109 21.498 22.6286 21.1866 23.0744L20.3894 24.216C19.2594 25.8341 19.0058 27.8978 19.7112 29.7362L20.2089 31.0328C20.4031 31.5393 20.471 32.091 20.4048 32.6288L20.2356 34.0057C19.9957 35.9575 20.7416 37.9012 22.2308 39.205L23.2814 40.1248C23.6914 40.4838 24.0108 40.9412 24.2052 41.4477L24.7029 42.7445C25.2262 44.1086 26.2287 45.2185 27.5 45.8932L22.0171 59.1124C21.8153 59.599 21.9268 60.1578 22.3008 60.5322C22.675 60.9067 23.2389 61.0239 23.7335 60.8304L29.7807 58.4677L32.4098 64.3458C32.6226 64.8215 33.099 65.1275 33.6238 65.1275C33.6299 65.1275 33.6359 65.1275 33.642 65.1275C34.1742 65.1203 34.6504 64.7998 34.8524 64.3132L40.4057 50.9243L45.959 64.3132C46.1608 64.7998 46.6372 65.1203 47.1694 65.1275C47.1753 65.1275 47.1813 65.1275 47.1876 65.1275C47.7126 65.1275 48.1888 64.8213 48.4016 64.3458L51.0307 58.4677L57.0779 60.8304C57.5723 61.0237 58.1367 60.9065 58.5106 60.5322C58.8846 60.1578 58.9963 59.599 58.7943 59.1124L53.3114 45.8932C54.5827 45.2185 55.5852 44.1086 56.1085 42.7445L56.6062 41.4477C56.8006 40.9412 57.12 40.4836 57.53 40.1246L58.5805 39.2048C60.0698 37.9008 60.8155 35.9573 60.5758 34.0057L60.4066 32.6284C60.3404 32.0908 60.4083 31.539 60.6023 31.0328L61.1006 29.7362V29.7362ZM56.8203 37.2408L55.7698 38.1606C55.0392 38.8002 54.47 39.6151 54.1239 40.5173L53.6262 41.8143C53.2302 42.8463 52.3466 43.6201 51.2621 43.8842L49.8994 44.2162C48.9518 44.447 48.0648 44.9072 47.3342 45.547L46.2837 46.4668C45.4476 47.1986 44.301 47.4779 43.2172 47.2136L41.8545 46.8818C40.907 46.6509 39.905 46.6511 38.9574 46.8818L37.5945 47.2138C36.5102 47.4781 35.3641 47.1986 34.5283 46.4668L33.4778 45.547C32.747 44.9072 31.8601 44.4472 30.9126 44.2162L29.5497 43.8842C28.4654 43.6201 27.5818 42.8463 27.1857 41.8143L26.6881 40.5173C26.3419 39.6151 25.7728 38.8002 25.0422 38.1608L23.9917 37.241C23.1558 36.5092 22.7372 35.418 22.8719 34.3225L23.0411 32.9454C23.1587 31.9879 23.0379 31.0049 22.6919 30.1027L22.1941 28.8058C21.7982 27.7739 21.9405 26.6154 22.5751 25.707L23.3718 24.5656C23.9266 23.7717 24.2818 22.8459 24.3996 21.8878L24.5688 20.5109C24.7035 19.4151 25.3741 18.4547 26.3628 17.9418L27.6055 17.2972C28.4696 16.849 29.2195 16.1925 29.7742 15.3983L30.5714 14.2568C31.2058 13.3484 32.251 12.8061 33.3677 12.8061H34.7712C35.7472 12.8061 36.7198 12.5692 37.5843 12.1208L38.827 11.4761C39.8157 10.9632 40.9963 10.9634 41.9852 11.4761L43.2279 12.1208C44.0923 12.5692 45.0651 12.8061 46.0409 12.8061H47.4444C48.5611 12.8061 49.6063 13.3484 50.2408 14.2567L51.0379 15.3984C51.5927 16.1925 52.3426 16.849 53.2067 17.2972L54.4493 17.9418C55.438 18.4547 56.1087 19.4151 56.2433 20.5107L56.4125 21.8878C56.5303 22.8457 56.8855 23.7715 57.4401 24.5652L58.2373 25.707C58.8717 26.6154 59.0139 27.7737 58.6181 28.8055L58.12 30.1027C57.7743 31.0047 57.6535 31.9877 57.7711 32.9451L57.9402 34.3223C58.0747 35.418 57.6561 36.509 56.8203 37.2408V37.2408ZM50.8207 55.564C50.1581 55.305 49.4066 55.6094 49.1183 56.2539L47.2337 60.4675L42.8136 49.811C44.6763 50.1893 46.615 49.683 48.0443 48.4312L49.0948 47.5113C49.5049 47.1521 50.0029 46.8938 50.5351 46.7643L50.7786 46.7049L55.1556 57.2575L50.8207 55.564V55.564ZM31.6936 56.2539C31.4053 55.6094 30.6533 55.305 29.9912 55.564L25.6565 57.2577L30.0335 46.7051L30.277 46.7643C30.8092 46.8938 31.3073 47.1523 31.7173 47.5113L32.7679 48.431C33.8872 49.4114 35.3192 49.9359 36.7818 49.9357C37.1871 49.9357 37.5945 49.8929 37.9985 49.8108L33.5783 60.4675L31.6936 56.2539V56.2539Z" fill="white"/>
<path d="M40.4062 43.5921C48.4343 43.5921 54.9659 37.1365 54.9659 29.2017C54.9659 21.2669 48.4343 14.8113 40.4062 14.8113C32.378 14.8113 25.8464 21.2669 25.8464 29.2017C25.8464 37.1365 32.378 43.5921 40.4062 43.5921ZM40.4062 17.4358C46.9701 17.4358 52.3106 22.714 52.3106 29.2019C52.3106 35.6897 46.9703 40.9679 40.4062 40.9679C33.842 40.9679 28.5017 35.6897 28.5017 29.2019C28.5017 22.714 33.8422 17.4358 40.4062 17.4358V17.4358Z" fill="white"/>
<path d="M34.2128 36.7077H46.5998C47.333 36.7077 47.9274 36.1202 47.9274 35.3955V27.6236C47.9274 27.2117 47.7319 26.8239 47.3992 26.5759L41.2058 21.9598C40.7324 21.607 40.0804 21.607 39.607 21.9598L33.4136 26.5759C33.0809 26.8239 32.8854 27.2117 32.8854 27.6236V35.3955C32.8852 36.1202 33.4794 36.7077 34.2128 36.7077ZM35.5404 28.2774L40.4062 24.6507L45.272 28.2774V34.0831H41.8224V31.4732C41.8224 31.1307 41.5415 30.8531 41.195 30.8531H39.6174C39.2709 30.8531 38.99 31.1307 38.99 31.4732V34.0831H35.5404V28.2774V28.2774Z" fill="white"/>
<path d="M142.47 53.8113V28.2513L143.47 29.2913H132.91V25.8113H155.99V29.2913H145.43L146.39 28.2513V53.8113H142.47ZM173.061 54.1313C170.928 54.1313 168.941 53.7713 167.101 53.0513C165.288 52.3313 163.715 51.3313 162.381 50.0513C161.048 48.7446 160.008 47.2246 159.261 45.4913C158.515 43.7579 158.141 41.8646 158.141 39.8113C158.141 37.7579 158.515 35.8646 159.261 34.1313C160.008 32.3979 161.048 30.8913 162.381 29.6113C163.715 28.3046 165.288 27.2913 167.101 26.5713C168.915 25.8513 170.901 25.4913 173.061 25.4913C175.195 25.4913 177.155 25.8513 178.941 26.5713C180.755 27.2646 182.328 28.2646 183.661 29.5713C185.021 30.8513 186.061 32.3579 186.781 34.0913C187.528 35.8246 187.901 37.7313 187.901 39.8113C187.901 41.8913 187.528 43.7979 186.781 45.5313C186.061 47.2646 185.021 48.7846 183.661 50.0913C182.328 51.3713 180.755 52.3713 178.941 53.0913C177.155 53.7846 175.195 54.1313 173.061 54.1313ZM173.061 50.5713C174.608 50.5713 176.035 50.3046 177.341 49.7713C178.675 49.2379 179.821 48.4913 180.781 47.5313C181.768 46.5446 182.528 45.3979 183.061 44.0913C183.621 42.7846 183.901 41.3579 183.901 39.8113C183.901 38.2646 183.621 36.8379 183.061 35.5313C182.528 34.2246 181.768 33.0913 180.781 32.1313C179.821 31.1446 178.675 30.3846 177.341 29.8513C176.035 29.3179 174.608 29.0513 173.061 29.0513C171.488 29.0513 170.035 29.3179 168.701 29.8513C167.395 30.3846 166.248 31.1446 165.261 32.1313C164.275 33.0913 163.501 34.2246 162.941 35.5313C162.408 36.8379 162.141 38.2646 162.141 39.8113C162.141 41.3579 162.408 42.7846 162.941 44.0913C163.501 45.3979 164.275 46.5446 165.261 47.5313C166.248 48.4913 167.395 49.2379 168.701 49.7713C170.035 50.3046 171.488 50.5713 173.061 50.5713ZM194.367 53.8113V25.8113H218.487V53.8113H214.567V28.2513L215.527 29.2913H197.327L198.327 28.2513V53.8113H194.367ZM240.241 53.8113V27.4113L241.961 29.2913H233.921V25.8113H244.201V53.8113H240.241ZM261.766 54.1313C259.579 54.1313 257.619 53.5713 255.886 52.4513C254.179 51.3313 252.819 49.7046 251.806 47.5713C250.819 45.4379 250.326 42.8513 250.326 39.8113C250.326 36.7713 250.819 34.1846 251.806 32.0513C252.819 29.9179 254.179 28.2913 255.886 27.1713C257.619 26.0513 259.579 25.4913 261.766 25.4913C263.926 25.4913 265.873 26.0513 267.606 27.1713C269.339 28.2913 270.699 29.9179 271.686 32.0513C272.673 34.1846 273.166 36.7713 273.166 39.8113C273.166 42.8513 272.673 45.4379 271.686 47.5713C270.699 49.7046 269.339 51.3313 267.606 52.4513C265.873 53.5713 263.926 54.1313 261.766 54.1313ZM261.766 50.5713C263.233 50.5713 264.513 50.1713 265.606 49.3713C266.726 48.5713 267.593 47.3713 268.206 45.7713C268.846 44.1713 269.166 42.1846 269.166 39.8113C269.166 37.4379 268.846 35.4513 268.206 33.8513C267.593 32.2513 266.726 31.0513 265.606 30.2513C264.513 29.4513 263.233 29.0513 261.766 29.0513C260.299 29.0513 259.006 29.4513 257.886 30.2513C256.766 31.0513 255.886 32.2513 255.246 33.8513C254.633 35.4513 254.326 37.4379 254.326 39.8113C254.326 42.1846 254.633 44.1713 255.246 45.7713C255.886 47.3713 256.766 48.5713 257.886 49.3713C259.006 50.1713 260.299 50.5713 261.766 50.5713Z" fill="white"/>
</svg>
