<svg width="340" height="73" viewBox="0 0 340 73" fill="none" xmlns="http://www.w3.org/2000/svg">
<path d="M0.717896 8.9027C0.717896 4.48442 4.29962 0.90271 8.7179 0.90271H281.614C286.032 0.90271 289.614 4.48443 289.614 8.90271V64.8298C289.614 69.2481 286.032 72.8298 281.614 72.8298H8.7179C4.29962 72.8298 0.717896 69.2481 0.717896 64.8298V8.9027Z" fill="#15668F"/>
<path d="M76.562 0.90271H339.391V72.8298H76.562V0.90271Z" fill="#013047"/>
<path d="M61.1006 29.8053C61.8059 27.9669 61.5523 25.9034 60.4223 24.2853L59.625 23.1433C59.3138 22.6979 59.1144 22.1783 59.0484 21.6406L58.8793 20.2634C58.6393 18.3114 57.4447 16.6007 55.6831 15.6871L54.4404 15.0424C53.9553 14.7908 53.5344 14.4221 53.223 13.9765L52.4258 12.8349C51.2958 11.2168 49.4336 10.2506 47.4442 10.2506H46.0407C45.4928 10.2506 44.9468 10.1176 44.4616 9.86599L43.2189 9.22133C41.4577 8.30767 39.3544 8.30748 37.5928 9.22133L36.3502 9.86599C35.8648 10.1176 35.3188 10.2506 34.7711 10.2506H33.3676C31.3784 10.2506 29.5159 11.2168 28.3859 12.8349L27.5888 13.9763C27.2774 14.4221 26.8565 14.7906 26.3713 15.0424L25.1287 15.6871C23.3673 16.6007 22.1724 18.3114 21.9325 20.2636L21.7633 21.6405C21.6973 22.1781 21.498 22.6977 21.1866 23.1435L20.3894 24.2851C19.2594 25.9032 19.0058 27.9669 19.7112 29.8053L20.2089 31.1019C20.4031 31.6084 20.471 32.1601 20.4048 32.6979L20.2356 34.0748C19.9957 36.0266 20.7416 37.9703 22.2308 39.274L23.2814 40.1939C23.6914 40.5529 24.0108 41.0103 24.2052 41.5168L24.7029 42.8136C25.2262 44.1777 26.2287 45.2876 27.5 45.9623L22.0171 59.1815C21.8153 59.6681 21.9268 60.2269 22.3008 60.6013C22.675 60.9758 23.2389 61.093 23.7335 60.8995L29.7807 58.5368L32.4098 64.4149C32.6226 64.8906 33.099 65.1966 33.6238 65.1966C33.6299 65.1966 33.6359 65.1966 33.642 65.1966C34.1742 65.1894 34.6504 64.8689 34.8524 64.3822L40.4057 50.9934L45.959 64.3822C46.1608 64.8689 46.6372 65.1894 47.1694 65.1966C47.1753 65.1966 47.1813 65.1966 47.1876 65.1966C47.7126 65.1966 48.1888 64.8904 48.4016 64.4149L51.0307 58.5368L57.0779 60.8995C57.5723 61.0928 58.1367 60.9756 58.5106 60.6013C58.8846 60.2269 58.9963 59.6681 58.7943 59.1815L53.3114 45.9623C54.5827 45.2876 55.5852 44.1777 56.1085 42.8136L56.6062 41.5168C56.8006 41.0103 57.12 40.5527 57.53 40.1937L58.5805 39.2739C60.0698 37.9699 60.8155 36.0264 60.5758 34.0748L60.4066 32.6975C60.3404 32.1599 60.4083 31.608 60.6023 31.1019L61.1006 29.8053V29.8053ZM56.8203 37.3099L55.7698 38.2297C55.0392 38.8693 54.47 39.6842 54.1239 40.5864L53.6262 41.8834C53.2302 42.9154 52.3466 43.6892 51.2621 43.9533L49.8994 44.2853C48.9518 44.5161 48.0648 44.9763 47.3342 45.6161L46.2837 46.5359C45.4476 47.2677 44.301 47.547 43.2172 47.2827L41.8545 46.9509C40.907 46.72 39.905 46.7202 38.9574 46.9509L37.5945 47.2829C36.5102 47.5472 35.3641 47.2677 34.5283 46.5359L33.4778 45.6161C32.747 44.9763 31.8601 44.5162 30.9126 44.2853L29.5497 43.9533C28.4654 43.6892 27.5818 42.9154 27.1857 41.8834L26.6881 40.5864C26.3419 39.6842 25.7728 38.8693 25.0422 38.2299L23.9917 37.3101C23.1558 36.5782 22.7372 35.4871 22.8719 34.3916L23.0411 33.0145C23.1587 32.057 23.0379 31.074 22.6919 30.1718L22.1941 28.8749C21.7982 27.843 21.9405 26.6845 22.5751 25.7761L23.3718 24.6347C23.9266 23.8408 24.2818 22.915 24.3996 21.9569L24.5688 20.58C24.7035 19.4842 25.3741 18.5238 26.3628 18.0109L27.6055 17.3663C28.4696 16.9181 29.2195 16.2616 29.7742 15.4674L30.5714 14.3259C31.2058 13.4175 32.251 12.8752 33.3677 12.8752H34.7712C35.7472 12.8752 36.7198 12.6383 37.5843 12.1899L38.827 11.5452C39.8157 11.0323 40.9963 11.0325 41.9852 11.5452L43.2279 12.1899C44.0923 12.6383 45.0651 12.8752 46.0409 12.8752H47.4444C48.5611 12.8752 49.6063 13.4175 50.2408 14.3257L51.0379 15.4675C51.5927 16.2616 52.3426 16.9181 53.2067 17.3663L54.4493 18.0109C55.438 18.5238 56.1087 19.4842 56.2433 20.5798L56.4125 21.9569C56.5303 22.9148 56.8855 23.8406 57.4401 24.6343L58.2373 25.7761C58.8717 26.6845 59.0139 27.8428 58.6181 28.8746L58.12 30.1718C57.7743 31.0738 57.6535 32.0568 57.7711 33.0141L57.9402 34.3914C58.0747 35.4871 57.6561 36.5781 56.8203 37.3099V37.3099ZM50.8207 55.6331C50.1581 55.3741 49.4066 55.6785 49.1183 56.323L47.2337 60.5366L42.8136 49.8801C44.6763 50.2584 46.615 49.7521 48.0443 48.5002L49.0948 47.5804C49.5049 47.2212 50.0029 46.9629 50.5351 46.8334L50.7786 46.774L55.1556 57.3266L50.8207 55.6331V55.6331ZM31.6936 56.323C31.4053 55.6785 30.6533 55.3741 29.9912 55.6331L25.6565 57.3268L30.0335 46.7742L30.277 46.8334C30.8092 46.9629 31.3073 47.2214 31.7173 47.5804L32.7679 48.5001C33.8872 49.4805 35.3192 50.005 36.7818 50.0048C37.1871 50.0048 37.5945 49.962 37.9985 49.8799L33.5783 60.5366L31.6936 56.323V56.323Z" fill="white"/>
<path d="M40.4062 43.6612C48.4343 43.6612 54.9659 37.2056 54.9659 29.2708C54.9659 21.336 48.4343 14.8804 40.4062 14.8804C32.378 14.8804 25.8464 21.336 25.8464 29.2708C25.8464 37.2056 32.378 43.6612 40.4062 43.6612ZM40.4062 17.5049C46.9701 17.5049 52.3106 22.7831 52.3106 29.271C52.3106 35.7588 46.9703 41.037 40.4062 41.037C33.842 41.037 28.5017 35.7588 28.5017 29.271C28.5017 22.7831 33.8422 17.5049 40.4062 17.5049V17.5049Z" fill="white"/>
<path d="M34.2128 36.7768H46.5998C47.333 36.7768 47.9274 36.1893 47.9274 35.4646V27.6927C47.9274 27.2808 47.7319 26.893 47.3992 26.645L41.2058 22.0289C40.7324 21.6761 40.0804 21.6761 39.607 22.0289L33.4136 26.645C33.0809 26.893 32.8854 27.2808 32.8854 27.6927V35.4646C32.8852 36.1893 33.4794 36.7768 34.2128 36.7768ZM35.5404 28.3465L40.4062 24.7198L45.272 28.3465V34.1522H41.8224V31.5423C41.8224 31.1998 41.5415 30.9222 41.195 30.9222H39.6174C39.2709 30.9222 38.99 31.1998 38.99 31.5423V34.1522H35.5404V28.3465V28.3465Z" fill="white"/>
<path d="M151.47 51.2767V25.7167L152.47 26.7567H141.91V23.2767H164.99V26.7567H154.43L155.39 25.7167V51.2767H151.47ZM182.061 51.5967C179.928 51.5967 177.941 51.2367 176.101 50.5167C174.288 49.7967 172.715 48.7967 171.381 47.5167C170.048 46.2101 169.008 44.6901 168.261 42.9567C167.515 41.2234 167.141 39.3301 167.141 37.2767C167.141 35.2234 167.515 33.3301 168.261 31.5967C169.008 29.8634 170.048 28.3567 171.381 27.0767C172.715 25.7701 174.288 24.7567 176.101 24.0367C177.915 23.3167 179.901 22.9567 182.061 22.9567C184.195 22.9567 186.155 23.3167 187.941 24.0367C189.755 24.7301 191.328 25.7301 192.661 27.0367C194.021 28.3167 195.061 29.8234 195.781 31.5567C196.528 33.2901 196.901 35.1967 196.901 37.2767C196.901 39.3567 196.528 41.2634 195.781 42.9967C195.061 44.7301 194.021 46.2501 192.661 47.5567C191.328 48.8367 189.755 49.8367 187.941 50.5567C186.155 51.2501 184.195 51.5967 182.061 51.5967ZM182.061 48.0367C183.608 48.0367 185.035 47.7701 186.341 47.2367C187.675 46.7034 188.821 45.9567 189.781 44.9967C190.768 44.0101 191.528 42.8634 192.061 41.5567C192.621 40.2501 192.901 38.8234 192.901 37.2767C192.901 35.7301 192.621 34.3034 192.061 32.9967C191.528 31.6901 190.768 30.5567 189.781 29.5967C188.821 28.6101 187.675 27.8501 186.341 27.3167C185.035 26.7834 183.608 26.5167 182.061 26.5167C180.488 26.5167 179.035 26.7834 177.701 27.3167C176.395 27.8501 175.248 28.6101 174.261 29.5967C173.275 30.5567 172.501 31.6901 171.941 32.9967C171.408 34.3034 171.141 35.7301 171.141 37.2767C171.141 38.8234 171.408 40.2501 171.941 41.5567C172.501 42.8634 173.275 44.0101 174.261 44.9967C175.248 45.9567 176.395 46.7034 177.701 47.2367C179.035 47.7701 180.488 48.0367 182.061 48.0367ZM203.367 51.2767V23.2767H227.487V51.2767H223.567V25.7167L224.527 26.7567H206.327L207.327 25.7167V51.2767H203.367ZM253.561 51.5967C251.588 51.5967 249.668 51.2901 247.801 50.6767C245.961 50.0634 244.455 49.2367 243.281 48.1967L245.121 45.0367C246.055 45.9167 247.268 46.6367 248.761 47.1967C250.255 47.7567 251.841 48.0367 253.521 48.0367C255.655 48.0367 257.295 47.5834 258.441 46.6767C259.588 45.7701 260.161 44.5567 260.161 43.0367C260.161 41.9967 259.908 41.0901 259.401 40.3167C258.895 39.5434 258.015 38.9567 256.761 38.5567C255.535 38.1301 253.841 37.9167 251.681 37.9167H245.321L246.801 23.2767H262.601V26.7567H248.281L250.361 24.7967L249.201 36.3567L247.121 34.4367H252.521C255.321 34.4367 257.575 34.7967 259.281 35.5167C260.988 36.2367 262.228 37.2367 263.001 38.5167C263.775 39.7701 264.161 41.2234 264.161 42.8767C264.161 44.4767 263.775 45.9434 263.001 47.2767C262.228 48.5834 261.055 49.6367 259.481 50.4367C257.935 51.2101 255.961 51.5967 253.561 51.5967Z" fill="white"/>
</svg>
