<svg width="464" height="108" viewBox="0 0 464 108" fill="none" xmlns="http://www.w3.org/2000/svg">
<g clip-path="url(#clip0_1_44)">
<path d="M1.75871 16.8307H14.9677C16.951 16.8307 17.6994 17.2785 18.7097 19.2564L29.2245 40.2668L39.6645 19.2564C40.6374 17.2785 41.3484 16.8307 43.4065 16.8307H56.129C57.3264 16.8307 57.8877 17.2039 57.8877 17.9502C57.887 18.4069 57.7712 18.856 57.551 19.2564L32.7794 66.0539C31.32 68.9274 30.4219 69.7858 29.0374 69.7858C27.6529 69.7858 26.7548 68.8155 25.2955 66.0539L0.374194 19.2564C0.142362 18.8589 0.0137392 18.4099 0 17.9502C0 17.2039 0.59871 16.8307 1.75871 16.8307Z" fill="#F2F2F2"/>
<path d="M76.822 16.8307C77.1241 16.7933 77.4308 16.8259 77.7184 16.9258C78.0059 17.0257 78.2665 17.1903 78.48 17.4068C78.6935 17.6233 78.8541 17.8859 78.9494 18.1743C79.0448 18.4627 79.0722 18.7691 79.0297 19.0698V66.2032C79.0737 66.5025 79.047 66.8079 78.9516 67.0951C78.8563 67.3823 78.6949 67.6433 78.4804 67.8572C78.2659 68.0711 78.0042 68.232 77.7163 68.3271C77.4283 68.4223 77.1221 68.4489 76.822 68.405H63.8749C63.5747 68.4489 63.2685 68.4223 62.9805 68.3271C62.6926 68.232 62.4309 68.0711 62.2164 67.8572C62.0019 67.6433 61.8405 67.3823 61.7452 67.0951C61.6498 66.8079 61.6231 66.5025 61.6671 66.2032V19.0698C61.6246 18.7691 61.652 18.4627 61.7474 18.1743C61.8427 17.8859 62.0033 17.6233 62.2168 17.4068C62.4303 17.1903 62.6909 17.0257 62.9784 16.9258C63.266 16.8259 63.5727 16.7933 63.8749 16.8307H76.822Z" fill="#F2F2F2"/>
<path d="M102.304 16.8307C102.607 16.7933 102.913 16.8259 103.201 16.9258C103.488 17.0257 103.749 17.1903 103.963 17.4068C104.176 17.6233 104.337 17.8859 104.432 18.1743C104.527 18.4627 104.555 18.7691 104.512 19.0698V66.2032C104.556 66.5025 104.53 66.8079 104.434 67.0951C104.339 67.3823 104.177 67.6432 103.963 67.8572C103.748 68.0711 103.487 68.232 103.199 68.3271C102.911 68.4222 102.605 68.4489 102.304 68.405H89.3574C89.0573 68.4489 88.751 68.4222 88.4631 68.3271C88.1751 68.232 87.9134 68.0711 87.6989 67.8572C87.4844 67.6432 87.3231 67.3823 87.2277 67.0951C87.1323 66.8079 87.1056 66.5025 87.1497 66.2032V19.0698C87.1071 18.7691 87.1346 18.4627 87.2299 18.1743C87.3252 17.8859 87.4859 17.6233 87.6994 17.4068C87.9128 17.1903 88.1734 17.0257 88.461 16.9258C88.7485 16.8259 89.0552 16.7933 89.3574 16.8307H102.304ZM106.046 40.5653L119.031 18.9952C119.363 18.2592 119.926 17.6504 120.634 17.2602C121.342 16.8699 122.158 16.7192 122.96 16.8307H137.479C138.676 16.8307 139.275 17.2039 139.275 17.9502C139.228 18.4027 139.074 18.8375 138.826 19.2191L123.858 42.0207L139.387 66.0539C139.639 66.4197 139.794 66.8435 139.836 67.2854C139.836 68.0318 139.237 68.405 138.04 68.405H123.072C120.79 68.405 120.079 68.0318 119.106 66.3525L105.972 44.4838C105.582 43.9337 105.35 43.289 105.298 42.6178C105.369 41.8623 105.669 41.1463 106.159 40.5653H106.046Z" fill="#F2F2F2"/>
<path d="M154.243 68.405H141.445C140.248 68.405 139.686 68.0318 139.686 67.2855C139.71 66.8274 139.838 66.3807 140.061 65.9793L164.645 19.2191C166.105 16.3456 167.003 15.4872 168.387 15.4872C169.772 15.4872 170.707 16.4575 172.129 19.2191L197.2 65.9793C197.422 66.3807 197.55 66.8274 197.574 67.2855C197.574 68.0318 196.975 68.405 195.815 68.405H182.532C181.717 68.5343 180.884 68.3578 180.193 67.9097C179.502 67.4617 179.002 66.7738 178.79 65.9793L168.387 44.9689L157.91 65.9793C157.161 67.9572 156.226 68.405 154.243 68.405Z" fill="#F2F2F2"/>
<path d="M255.088 38.1769C254.687 38.17 254.292 38.2702 253.943 38.4671C253.594 38.664 253.305 38.9503 253.105 39.2965L235.966 69.5245L227.135 85.0864L221.972 94.2667C221.788 94.5913 221.692 94.9577 221.692 95.3303C221.692 95.703 221.788 96.0693 221.972 96.3939L223.955 100.126C224.292 100.686 224.554 101.171 224.815 101.656C225.483 102.874 226.234 104.046 227.061 105.164C227.343 105.537 227.656 105.887 227.996 106.209L228.445 106.657C228.726 106.892 229.027 107.105 229.343 107.291C229.603 107.446 229.879 107.571 230.166 107.664H230.428C230.864 107.802 231.319 107.865 231.775 107.851C232.62 107.865 233.455 107.673 234.208 107.291C234.28 107.317 234.36 107.317 234.432 107.291C234.691 107.164 234.931 107.001 235.143 106.806C235.249 106.739 235.338 106.65 235.405 106.545L236.154 105.798L236.565 105.313C236.815 104.99 237.077 104.616 237.351 104.193L237.688 103.671L238.025 103.111V102.775L238.885 101.245L239.446 100.163L255.649 69.5245L270.617 41.4609C270.797 41.1199 270.886 40.7382 270.875 40.3527C270.864 39.9672 270.754 39.5911 270.554 39.2608C270.355 38.9305 270.073 38.6571 269.737 38.4672C269.4 38.2773 269.02 38.1773 268.634 38.1769H255.088Z" fill="#F2F2F2"/>
<path d="M181.671 20.3013L187.097 30.7505C187.3 31.1084 187.593 31.4069 187.947 31.6165C188.302 31.826 188.705 31.9392 189.117 31.9447H229.044C229.437 31.949 229.822 32.0544 230.163 32.2509C230.503 32.4473 230.786 32.728 230.986 33.0659C231.185 33.4037 231.294 33.7872 231.301 34.1792C231.308 34.5712 231.214 34.9585 231.027 35.3034L210.184 71.9876C210.011 72.322 209.92 72.6931 209.92 73.0698C209.92 73.4465 210.011 73.8176 210.184 74.152L216.022 85.161C216.216 85.511 216.501 85.8027 216.846 86.0059C217.192 86.209 217.585 86.3161 217.986 86.3161C218.387 86.3161 218.781 86.209 219.127 86.0059C219.472 85.8027 219.757 85.511 219.951 85.161L224.516 76.839L228.67 69.3753L249.325 32.915C249.522 32.5744 249.806 32.2916 250.148 32.0951C250.489 31.8985 250.877 31.7952 251.271 31.7954H274.172C274.584 31.7899 274.987 31.6767 275.342 31.4672C275.696 31.2577 275.989 30.9591 276.192 30.6012L281.693 20.152C281.873 19.811 281.962 19.4292 281.951 19.0438C281.941 18.6583 281.83 18.2822 281.63 17.9519C281.431 17.6216 281.149 17.3482 280.813 17.1583C280.476 16.9684 280.096 16.8684 279.71 16.868H183.654C183.246 16.8526 182.84 16.9487 182.483 17.146C182.125 17.3434 181.828 17.6344 181.624 17.9878C181.42 18.3412 181.316 18.7434 181.324 19.1511C181.333 19.5588 181.453 19.9565 181.671 20.3013V20.3013Z" fill="#F2F2F2"/>
<path d="M192.859 41.461L204.085 62.9192C204.276 63.2783 204.562 63.5788 204.911 63.7884C205.261 63.998 205.661 64.1087 206.068 64.1087C206.476 64.1087 206.876 63.998 207.226 63.7884C207.575 63.5788 207.86 63.2783 208.052 62.9192L220.213 41.461C220.413 41.1233 220.519 40.7385 220.52 40.3463C220.521 39.9541 220.417 39.5688 220.218 39.2302C220.02 38.8916 219.735 38.612 219.391 38.4202C219.048 38.2285 218.66 38.1316 218.267 38.1396H194.843C194.451 38.1365 194.065 38.2358 193.723 38.4277C193.382 38.6195 193.096 38.8971 192.896 39.233C192.695 39.5689 192.586 39.9513 192.58 40.3422C192.574 40.733 192.67 41.1187 192.859 41.461V41.461Z" fill="#F2F2F2"/>
<path d="M287.119 9.35719e-06H176.395C175.934 -0.0400422 175.471 -0.0400422 175.01 9.35372e-06C174.593 0.0238835 174.189 0.152795 173.836 0.374692C173.483 0.596589 173.191 0.904225 172.99 1.26884C172.912 1.54964 172.912 1.84637 172.99 2.12717C173.027 3.08041 173.283 4.01243 173.738 4.85143L175.871 9.59089C176.055 9.95644 176.338 10.2626 176.689 10.474C177.04 10.6853 177.444 10.7932 177.854 10.7851H285.51C285.919 10.7888 286.321 10.6791 286.671 10.4683C287.021 10.2574 287.306 9.95364 287.493 9.59089L289.963 4.96338C290.418 4.12439 290.674 3.19237 290.711 2.23912C290.711 0.746381 289.514 9.35719e-06 287.119 9.35719e-06Z" fill="#F2F2F2"/>
<path d="M325.548 16.8307H294.191C293.794 16.8379 293.405 16.9485 293.064 17.1514C292.723 17.3543 292.44 17.6425 292.245 17.9875L286.071 28.8846C285.88 29.2213 285.782 29.6021 285.786 29.9887C285.79 30.3754 285.896 30.7542 286.093 31.0871C286.29 31.4199 286.572 31.6951 286.909 31.885C287.247 32.0749 287.629 32.1727 288.017 32.1686H295.014C295.6 32.1686 296.161 32.4006 296.575 32.8135C296.989 33.2264 297.222 33.7865 297.222 34.3704V66.2032C297.222 66.7871 297.455 67.3471 297.869 67.7601C298.283 68.173 298.844 68.405 299.43 68.405H312.339C312.641 68.4474 312.948 68.42 313.237 68.3249C313.526 68.2298 313.79 68.0696 314.007 67.8567C314.224 67.6438 314.389 67.3839 314.489 67.0972C314.589 66.8104 314.622 66.5045 314.585 66.2032V33.5867C314.585 32.5045 314.959 32.2806 315.894 32.2806H325.548C325.866 32.2922 326.182 32.2366 326.477 32.1173C326.771 31.998 327.036 31.8177 327.256 31.5884C327.475 31.3592 327.643 31.0861 327.749 30.7872C327.854 30.4884 327.895 30.1706 327.868 29.8549V19.0698C327.915 18.7583 327.887 18.4402 327.786 18.1419C327.684 17.8435 327.513 17.5736 327.286 17.3546C327.059 17.1356 326.783 16.9738 326.481 16.8826C326.179 16.7915 325.859 16.7737 325.548 16.8307V16.8307Z" fill="#F2F2F2"/>
<path d="M348.187 16.8307C348.489 16.7934 348.796 16.8259 349.084 16.9258C349.371 17.0257 349.632 17.1903 349.845 17.4068C350.059 17.6233 350.219 17.886 350.315 18.1743C350.41 18.4627 350.437 18.7692 350.395 19.0698V33.2882C350.395 34.2212 350.769 34.5944 351.742 34.5944H362.519C363.604 34.5944 363.828 34.2212 363.828 33.2882V19.0698C363.785 18.7656 363.812 18.4554 363.91 18.1638C364.007 17.8722 364.171 17.6072 364.389 17.3899C364.607 17.1726 364.873 17.0089 365.165 16.9118C365.457 16.8148 365.769 16.787 366.074 16.8307H378.983C379.285 16.7934 379.592 16.8259 379.88 16.9258C380.167 17.0257 380.428 17.1903 380.641 17.4068C380.855 17.6233 381.015 17.886 381.111 18.1743C381.206 18.4627 381.234 18.7692 381.191 19.0698V66.2032C381.235 66.5025 381.208 66.808 381.113 67.0951C381.018 67.3823 380.856 67.6433 380.642 67.8572C380.427 68.0711 380.166 68.2321 379.878 68.3272C379.59 68.4223 379.283 68.4489 378.983 68.405H366.074C365.772 68.4474 365.465 68.42 365.176 68.325C364.886 68.2299 364.623 68.0697 364.406 67.8568C364.189 67.6439 364.024 67.384 363.924 67.0972C363.824 66.8105 363.791 66.5046 363.828 66.2032V51.2758C363.828 50.1935 363.604 49.9696 362.519 49.9696H351.742C350.769 49.9696 350.395 50.1935 350.395 51.2758V66.2032C350.439 66.5025 350.412 66.808 350.317 67.0951C350.221 67.3823 350.06 67.6433 349.846 67.8572C349.631 68.0711 349.369 68.2321 349.081 68.3272C348.793 68.4223 348.487 68.4489 348.187 68.405H335.24C334.94 68.4489 334.634 68.4223 334.346 68.3272C334.058 68.2321 333.796 68.0711 333.582 67.8572C333.367 67.6433 333.206 67.3823 333.11 67.0951C333.015 66.808 332.988 66.5025 333.032 66.2032V19.0698C332.99 18.7692 333.017 18.4627 333.113 18.1743C333.208 17.886 333.369 17.6233 333.582 17.4068C333.795 17.1903 334.056 17.0257 334.344 16.9258C334.631 16.8259 334.938 16.7934 335.24 16.8307H348.187Z" fill="#F2F2F2"/>
<path d="M399.526 68.405H386.729C385.569 68.405 384.97 68.0318 384.97 67.2855C384.994 66.8274 385.122 66.3807 385.345 65.9793L410.079 19.2191C411.538 16.3456 412.436 15.4872 413.821 15.4872C415.205 15.4872 416.103 16.4575 417.563 19.2191L442.334 65.9793C442.525 66.3907 442.639 66.8333 442.671 67.2855C442.671 68.0318 442.11 68.405 440.912 68.405H427.628C425.608 68.405 424.897 67.9572 423.886 65.9793L413.409 44.9689L402.969 65.9793C402.258 67.9572 401.51 68.405 399.526 68.405Z" fill="#F2F2F2"/>
<path d="M461.792 16.8307C462.094 16.7933 462.401 16.8259 462.689 16.9258C462.976 17.0257 463.237 17.1903 463.45 17.4068C463.664 17.6233 463.824 17.8859 463.92 18.1743C464.015 18.4627 464.043 18.7691 464 19.0698V66.2032C464.044 66.5025 464.017 66.8079 463.922 67.0951C463.827 67.3823 463.665 67.6433 463.451 67.8572C463.236 68.0711 462.975 68.232 462.687 68.3271C462.399 68.4223 462.092 68.4489 461.792 68.405H449.032C448.732 68.4489 448.426 68.4223 448.138 68.3271C447.85 68.232 447.588 68.0711 447.374 67.8572C447.159 67.6433 446.998 67.3823 446.903 67.0951C446.807 66.8079 446.78 66.5025 446.825 66.2032V19.0698C446.782 18.7691 446.809 18.4627 446.905 18.1743C447 17.8859 447.161 17.6233 447.374 17.4068C447.588 17.1903 447.848 17.0257 448.136 16.9258C448.423 16.8259 448.73 16.7933 449.032 16.8307H461.792Z" fill="#F2F2F2"/>
<path d="M300.017 74.0907H299.617C299.593 73.9757 299.552 73.8747 299.493 73.7876C299.435 73.7006 299.364 73.6275 299.28 73.5684C299.197 73.5082 299.105 73.463 299.004 73.4329C298.903 73.4028 298.798 73.3878 298.688 73.3878C298.488 73.3878 298.307 73.4383 298.145 73.5393C297.984 73.6404 297.855 73.7892 297.76 73.9859C297.665 74.1826 297.618 74.4239 297.618 74.7098C297.618 74.9957 297.665 75.237 297.76 75.4337C297.855 75.6304 297.984 75.7792 298.145 75.8803C298.307 75.9813 298.488 76.0318 298.688 76.0318C298.798 76.0318 298.903 76.0168 299.004 75.9867C299.105 75.9566 299.197 75.912 299.28 75.8529C299.364 75.7927 299.435 75.7191 299.493 75.632C299.552 75.5439 299.593 75.4428 299.617 75.3289H300.017C299.987 75.4976 299.932 75.6487 299.852 75.7819C299.773 75.9152 299.674 76.0286 299.556 76.1221C299.437 76.2145 299.305 76.2849 299.157 76.3333C299.011 76.3817 298.855 76.4059 298.688 76.4059C298.407 76.4059 298.156 76.3371 297.937 76.1995C297.718 76.0619 297.545 75.8663 297.419 75.6126C297.294 75.359 297.231 75.058 297.231 74.7098C297.231 74.3616 297.294 74.0606 297.419 73.807C297.545 73.5533 297.718 73.3577 297.937 73.2201C298.156 73.0825 298.407 73.0138 298.688 73.0138C298.855 73.0138 299.011 73.0379 299.157 73.0863C299.305 73.1347 299.437 73.2056 299.556 73.2991C299.674 73.3916 299.773 73.5044 299.852 73.6377C299.932 73.7699 299.987 73.9209 300.017 74.0907ZM303.449 74.7098C303.449 75.058 303.386 75.359 303.26 75.6126C303.134 75.8663 302.962 76.0619 302.743 76.1995C302.523 76.3371 302.273 76.4059 301.991 76.4059C301.71 76.4059 301.459 76.3371 301.24 76.1995C301.021 76.0619 300.848 75.8663 300.723 75.6126C300.597 75.359 300.534 75.058 300.534 74.7098C300.534 74.3616 300.597 74.0606 300.723 73.807C300.848 73.5533 301.021 73.3577 301.24 73.2201C301.459 73.0825 301.71 73.0138 301.991 73.0138C302.273 73.0138 302.523 73.0825 302.743 73.2201C302.962 73.3577 303.134 73.5533 303.26 73.807C303.386 74.0606 303.449 74.3616 303.449 74.7098ZM303.062 74.7098C303.062 74.4239 303.014 74.1826 302.918 73.9859C302.824 73.7892 302.695 73.6404 302.533 73.5393C302.372 73.4383 302.191 73.3878 301.991 73.3878C301.791 73.3878 301.61 73.4383 301.448 73.5393C301.287 73.6404 301.158 73.7892 301.063 73.9859C300.968 74.1826 300.921 74.4239 300.921 74.7098C300.921 74.9957 300.968 75.237 301.063 75.4337C301.158 75.6304 301.287 75.7792 301.448 75.8803C301.61 75.9813 301.791 76.0318 301.991 76.0318C302.191 76.0318 302.372 75.9813 302.533 75.8803C302.695 75.7792 302.824 75.6304 302.918 75.4337C303.014 75.237 303.062 74.9957 303.062 74.7098ZM304.121 73.0589H304.598L305.72 75.7997H305.759L306.881 73.0589H307.358V76.3607H306.984V73.8521H306.952L305.92 76.3607H305.559L304.527 73.8521H304.495V76.3607H304.121V73.0589ZM308.16 76.3607V73.0589H309.276C309.535 73.0589 309.746 73.1057 309.911 73.1992C310.076 73.2916 310.199 73.4168 310.279 73.5748C310.358 73.7328 310.398 73.9091 310.398 74.1036C310.398 74.2982 310.358 74.475 310.279 74.634C310.2 74.7931 310.079 74.9199 309.914 75.0145C309.75 75.108 309.539 75.1548 309.282 75.1548H308.482V74.8001H309.269C309.447 74.8001 309.589 74.7695 309.696 74.7082C309.804 74.6469 309.882 74.5642 309.93 74.4599C309.98 74.3546 310.004 74.2358 310.004 74.1036C310.004 73.9714 309.98 73.8532 309.93 73.7489C309.882 73.6447 309.803 73.563 309.695 73.5039C309.586 73.4437 309.442 73.4136 309.263 73.4136H308.56V76.3607H308.16ZM310.84 76.3607H310.421L311.634 73.0589H312.046L313.259 76.3607H312.84L311.853 73.5813H311.827L310.84 76.3607ZM310.995 75.0709H312.685V75.4256H310.995V75.0709ZM316.391 73.0589V76.3607H316.004L314.205 73.7683H314.173V76.3607H313.773V73.0589H314.16L315.966 75.6578H315.998V73.0589H316.391ZM316.908 73.0589H317.365L318.281 74.6002H318.32L319.236 73.0589H319.693L318.5 75V76.3607H318.101V75L316.908 73.0589ZM321.487 76.3607V73.0589H321.887V76.006H323.422V76.3607H321.487ZM324.441 73.0589V76.3607H324.041V73.0589H324.441ZM325.243 73.0589H325.72L326.842 75.7997H326.881L328.003 73.0589H328.48V76.3607H328.106V73.8521H328.074L327.042 76.3607H326.681L325.649 73.8521H325.617V76.3607H325.243V73.0589ZM329.682 73.0589V76.3607H329.282V73.0589H329.682ZM330.303 73.4136V73.0589H332.779V73.4136H331.741V76.3607H331.341V73.4136H330.303ZM333.396 76.3607V73.0589H335.389V73.4136H333.796V74.5292H335.286V74.8839H333.796V76.006H335.415V76.3607H333.396ZM337.128 76.3607H336.109V73.0589H337.173C337.494 73.0589 337.768 73.125 337.996 73.2572C338.224 73.3883 338.398 73.577 338.52 73.8231C338.641 74.0681 338.702 74.3616 338.702 74.7034C338.702 75.0473 338.641 75.3434 338.518 75.5917C338.396 75.8389 338.217 76.0291 337.983 76.1624C337.749 76.2946 337.464 76.3607 337.128 76.3607ZM336.509 76.006H337.103C337.376 76.006 337.602 75.9534 337.781 75.848C337.961 75.7427 338.095 75.5928 338.183 75.3982C338.271 75.2037 338.315 74.9721 338.315 74.7034C338.315 74.4368 338.271 74.2073 338.184 74.0149C338.097 73.8215 337.967 73.6732 337.794 73.57C337.621 73.4657 337.406 73.4136 337.148 73.4136H336.509V76.006Z" fill="#F2F2F2"/>
</g>
<defs>
<clipPath id="clip0_1_44">
<rect width="464" height="108" fill="white"/>
</clipPath>
</defs>
</svg>
